<?xml version="1.0" encoding="UTF-8" standalone="no"?>
<svg
   width="5673.2271"
   height="4023.9656"
   viewBox="0 0 5673.2271 4023.9656"
   version="1.1"
   xml:space="preserve"
   style="clip-rule:evenodd;fill-rule:evenodd;stroke-linecap:round;stroke-linejoin:round;stroke-miterlimit:1.5"
   id="svg2157"
   xmlns="http://www.w3.org/2000/svg"
   xmlns:svg="http://www.w3.org/2000/svg"><defs
   id="defs2161" />
    
    
<g
   id="fullcolor-retro-dudes-file"
   transform="matrix(9.9999994,0,0,9.9999994,41343.395,-15178.501)"><path
     id="ellipse3732"
     style="color:#000000;clip-rule:nonzero;fill:#000000;fill-rule:nonzero;stroke-width:1.13521;stroke-linecap:butt;stroke-linejoin:miter;-inkscape-stroke:none"
     d="m -3747.4453,1517.8559 c -0.8279,-0.028 -1.6668,0.046 -2.4942,0.2286 -11.4864,2.555 -43.4573,9.6579 -69.4824,15.4414 l -12.8515,-12.6211 c -1.6329,-1.6043 -3.8003,-2.5009 -6.0332,-2.5703 -0.7448,-0.023 -1.4963,0.046 -2.2383,0.2109 a 4.0004,4.0004 0 0 0 -0.01,0 l -186.4941,41.9336 -21.6387,-35.4629 c -1.5234,-2.4988 -4.1549,-4.0517 -6.9746,-4.2793 h -0.01 c -0.9392,-0.076 -1.8985,0 -2.8457,0.2285 l -68.9551,16.7871 c -2.498,0.6106 -4.6212,2.2697 -5.8222,4.5469 -1.2109,2.2845 -1.3739,4.9703 -0.4629,7.3828 l 37.0918,98.2891 c 0.112,0.2963 0.074,0.6385 -0.1035,0.9023 a 4.0004,4.0004 0 0 0 0,0.01 c -23.7767,35.4519 -35.4269,67.0307 -35.8907,95.291 -0.4489,27.3521 9.8071,51.3829 28.9258,71.8848 -1.3789,3.6125 -2.1398,7.8003 -1.6054,12.0429 0.4515,3.5851 2.1939,7.3759 5.7089,9.6895 3.1312,2.0609 7.2397,2.8229 12.2911,2.3633 2.3488,3.0744 5.101,6.6445 8.2168,10.5703 7.7231,9.732 16.4787,20.3832 22.58,25.3555 6.1829,5.0386 14.1295,7.2823 21.4961,7.9453 7.3667,0.6629 14.0658,-0.092 18.8203,-2.4688 5.1246,-2.5622 8.1954,-5.8416 9.25,-9.4863 0.6189,-2.1386 0.4817,-4.153 0.023,-5.8984 0.6123,-0.6217 1.166,-1.2968 1.6465,-2.0352 1.2798,-1.9672 1.8946,-4.3142 1.8437,-6.7441 4.0181,12.3124 13.3224,24.9174 25.2246,35.7343 13.7384,12.4858 31.0282,22.5317 48.4922,25.7793 34.4426,6.405 52.2878,-11.5278 56.5371,-24.7031 2.3003,-7.1321 0.4242,-15.2369 -3.0039,-22.7051 -1.8285,-3.9834 -4.1495,-7.7868 -6.7969,-11.1465 5.4197,1.5873 11.094,2.5535 16.9453,2.627 15.242,0.1915 29.4116,-0.2885 40.8594,-1.877 11.4479,-1.5884 20.3,-3.7631 25.2285,-9.5214 2.781,-3.2492 3.4945,-7.537 3.4649,-12.2247 -0.03,-4.6872 -0.9709,-9.914 -2.6934,-15.1777 -3.4449,-10.5273 -9.9378,-21.3463 -19.9121,-26.7207 -13.3741,-7.2013 -30.3558,-9.3667 -48.5781,-0.1426 -1.6941,-1.7922 -3.1758,-3.8291 -4.4492,-6.1425 0.8384,-1.1742 1.569,-2.5539 1.9453,-4.2051 0.4385,-1.9241 0.3032,-4.1267 -0.4649,-6.2949 5.7953,-13.7212 9.9968,-28.4377 13.4805,-43.5704 33.934,-12.8939 68.6481,-26.0866 77.6738,-29.5156 3.1948,-1.2147 5.5456,-3.9801 6.2442,-7.3066 0.079,-0.3808 0.5528,-2.67 0.6445,-3.1133 0.2665,0.1117 0.5341,0.2164 0.8008,0.3262 -5.3347,13.403 -10.2901,27.1925 -14.9883,41.2304 a 4.0004,4.0004 0 0 0 2.2402,4.9551 c 34.171,14.403 68.3727,31.4239 102.5821,50.7949 a 4.0004,4.0004 0 0 0 0.248,0.055 4,4 0 0 0 0.961,0.3926 l 20.6211,4 a 4.0004,4.0004 0 0 0 3.125,-0.7012 4.0004,4.0004 0 0 0 1.6093,-2.7695 c 2.0833,-18.0849 5.1527,-36.0284 10,-53.7988 1.2118,-4.4426 2.5339,-8.8746 3.9805,-13.295 0.2752,-0.8411 0.5771,-1.6794 0.8613,-2.5195 15.8841,-3.0928 29.3441,-8.5196 39.4512,-17.2168 10.4612,-9.0021 17.0871,-21.5513 18.8535,-37.5429 4.8768,-11.1334 5.9121,-21.8499 6.2559,-28.8848 0.198,-4.0101 -0.7477,-7.8977 -2.5879,-11.5488 3.1205,-2.1301 6.3134,-4.2186 9.6504,-6.2207 a 4.0004,4.0004 0 0 0 0.248,-6.6973 c -22.6311,-15.9653 -45.9335,-31.9235 -69.7734,-47.8809 2.9142,-5.1446 4.9844,-8.9472 4.9844,-8.9472 a 4,4 0 0 0 -1.6133,-5.4219 4,4 0 0 0 -5.4219,1.6133 c 0,0 -2.6378,4.6316 -4.6934,8.2695 -0.044,-0.029 -0.089,-0.058 -0.1328,-0.088 2.2617,-5.0626 3.5643,-9.2597 3.8535,-12.7168 0.3516,-4.2009 -0.763,-7.8813 -3.3281,-10.0586 -1.2825,-1.0887 -2.7322,-1.6941 -4.1914,-1.9609 -1.4592,-0.2668 -2.9275,-0.194 -4.2461,0.07 -2.6372,0.5298 -4.9787,1.7224 -6.7558,3.7578 -2.3471,2.6883 -5.254,7.3899 -8.5606,13.8965 -35.1134,21.4532 -60.648,53.2436 -80.8144,90.6699 -3.9678,-1.6431 -7.9956,-3.4875 -12.0821,-5.5273 8.9099,-43.0235 18.878,-91.1653 23.5078,-113.5078 0.6804,-3.3191 -0.3743,-6.7689 -2.7793,-9.1407 -1.8051,-1.7803 -4.2056,-2.7915 -6.6894,-2.8769 z m 96.3945,30.5 c 0.5697,-0.02 0.9097,0.1172 1.0391,0.2286 0.1724,0.1463 0.7522,0.6736 0.5332,3.291 -0.1659,1.982 -0.9084,4.9575 -2.5703,8.9336 -2.1642,-1.4364 -4.3039,-2.8723 -6.4766,-4.3086 1.9792,-3.4239 3.6383,-5.873 4.5234,-6.8867 0.2529,-0.2896 1.3376,-0.9835 2.3047,-1.1778 0.2418,-0.048 0.4566,-0.073 0.6465,-0.08 z m -420.8554,188.0313 v 0 c -2e-4,0 2e-4,0 0,0.01 4.3064,18.5612 11.9433,33.298 21.9805,45.0371 -0.4017,-0.2727 -0.8202,-0.5321 -1.2774,-0.7578 -1.3648,-0.674 -2.92,-1.0564 -4.6015,-1.1309 -1.6818,-0.074 -3.4902,0.1605 -5.3594,0.7207 -0.1024,0.031 -0.2059,0.068 -0.3086,0.1 -7.8674,-16.2518 -11.5608,-30.9271 -10.4336,-43.9687 -5e-4,0 0,0 0,-0.01 z m 157.664,22.4004 c -1.1689,3.8804 -2.6247,7.6488 -4.3223,11.334 -0.4363,0.7012 -5.6997,9.2138 -10.2851,19.5078 -2.3912,5.368 -4.586,11.1732 -5.752,16.7148 -0.012,0.057 -0.021,0.1144 -0.033,0.1719 -0.9351,-1.3544 -2.1779,-2.5851 -3.7148,-3.6035 3.1299,-12.2174 5.5127,-24.7209 6.9297,-37.5977 7.4432,-2.8284 9.2574,-3.5176 17.1777,-6.5273 z m -131.916,26.8027 c 4.1042,4.2634 8.5618,8.0781 13.2988,11.5196 -3.1652,-1.0913 -6.486,-2.0563 -9.6308,-2.9219 -0.4499,-0.1239 -0.8397,-0.2179 -1.2793,-0.336 -0.1105,-1.533 -0.5041,-4.4818 -1.9512,-7.4375 -0.1338,-0.2731 -0.2805,-0.5481 -0.4375,-0.8242 z m 58.2754,1.1817 c -0.8207,5.7705 -2.0714,11.5454 -3.7559,17.3281 -1.3626,1.5913 -6.7572,8.2503 -10.6133,18.7246 -0.5698,-0.8699 -1.2625,-1.7873 -2.1738,-2.9648 -1.3714,-1.7722 -3.121,-3.8924 -5.0937,-6.1016 -3.9454,-4.4183 -8.6633,-9.1626 -13.3477,-12.1504 -0.5037,-0.3215 -1.0423,-0.6311 -1.5976,-0.9355 0.033,-0.013 28.2525,-10.7352 36.582,-13.9004 z m 53.5996,33.5371 v 0 c 0.2278,0.5582 0.4844,1.1076 0.7891,1.6445 3.2387,5.7075 9.4822,13.1128 17.8789,20.1816 -3.2581,-0.53 -6.5483,-0.762 -9.8047,-0.6328 -0.2123,0.01 -0.4227,0.034 -0.6348,0.045 -3.4416,-5.6571 -6.5283,-12.0144 -9.293,-19.0118 0.3764,-0.7164 0.7361,-1.4599 1.0645,-2.2304 z m -96.3125,4.8086 c 0.098,0.2359 0.198,0.4749 0.2988,0.7148 -0.6465,-0.027 -1.9444,-0.081 -2.7597,-0.1152 0.7548,-0.2354 1.557,-0.444 2.4609,-0.5996 z" /><path
     style="color:#000000;clip-rule:nonzero;fill:#ffb900;fill-rule:nonzero;stroke-width:1.13521;stroke-linecap:butt;stroke-linejoin:miter;-inkscape-stroke:none"
     d="m -3748.2109,1525.8989 c 0.6706,-0.1483 1.3447,0.045 1.8379,0.5313 0.4949,0.4881 0.6981,1.1589 0.5585,1.8398 -4.7575,22.9595 -15.1917,73.3505 -24.1503,116.6113 a 4,4 0 0 0 -0.018,0.082 c -4.1213,19.9016 -9.7582,47.1034 -11.1172,53.6777 -0.1414,0.6735 -0.6126,1.2273 -1.2578,1.4727 -27.8316,10.5735 -229.9779,87.3929 -239.4649,90.998 0.2591,-7.9578 3.636,-111.6671 5.4785,-168.2461 a 4,4 0 0 0 0,-0.031 c 0.3949,-12.1262 0.9988,-30.698 1.1738,-36.0723 0.03,-0.9362 0.6562,-1.6838 1.5567,-1.8828 31.8364,-7.0792 221.5098,-49.217 265.3965,-58.9785 z"
     id="path12992" /><path
     style="color:#000000;clip-rule:nonzero;fill:#000000;fill-rule:nonzero;stroke-width:1.13521;stroke-linecap:butt;stroke-linejoin:miter;-inkscape-stroke:none"
     d="m -3856.1367,1570.1509 c -9.0269,-0.2505 -17.5516,5.5913 -24.5235,14.7675 -4.685,-6.1798 -10.5442,-10.2799 -17.4648,-11.2011 -11.8025,-1.5712 -23.0622,6.5345 -31.752,19.3867 -8.6898,12.8521 -15.2336,30.8461 -17.9531,51.2754 -1.2916,9.7024 -1.5964,19.0928 -1.0332,27.8594 l -12.8027,5.8007 a 4,4 0 0 0 -1.9922,5.293 4,4 0 0 0 5.293,1.9942 l 10.3281,-4.6778 c 0.8779,6.4695 2.2648,12.494 4.1211,17.916 5.025,14.6778 13.7717,25.4465 25.5742,27.0176 0.05,0.01 0.1001,0.01 0.1504,0.012 1.0641,1.8934 2.4089,3.5934 4.0762,4.959 -11.6036,3.4666 -23.0647,2.172 -34.9102,-2.7226 1.6923,-1.1993 3.7549,-2.2126 6.2754,-3.0528 a 4,4 0 0 0 2.5293,-5.0605 4,4 0 0 0 -5.0586,-2.5293 c -5.6955,1.8985 -10.0107,5.0373 -13.0879,8.9472 a 4,4 0 0 0 -1.0273,1.252 4,4 0 0 0 -0.086,0.2754 c -2.3462,3.4791 -3.8141,7.4709 -4.4843,11.6933 a 4,4 0 0 0 3.3222,4.5782 4,4 0 0 0 4.5781,-3.3242 c 0.3748,-2.361 0.9331,-4.4701 1.7715,-6.3477 17.7975,7.8372 36.3445,8.547 54.3516,-1.084 3.039,-0.9668 5.8296,-2.7865 8.2246,-5.041 1.8916,-1.7806 3.628,-3.8981 5.168,-6.2891 l 16.9629,7.1875 a 4.0004,4.0004 0 0 0 5.4589,-4.58 l -4.0703,-17.67 c 2.6831,-0.1759 5.3147,-0.8856 7.8672,-2.0468 1.958,2.6128 4.5957,4.6585 8.043,5.6503 6.4573,1.8579 12.4821,-0.8974 17.0644,-5.2109 4.5823,-4.3134 8.265,-10.5759 10.4063,-18.0176 2.1412,-7.4417 2.3509,-14.7058 0.7617,-20.7949 -1.0089,-3.8659 -2.8487,-7.5048 -5.707,-10.125 0.9847,-4.18 1.7891,-8.5213 2.3847,-12.9961 2.4324,-18.2724 0.9935,-35.3536 -3.5195,-48.5351 -4.513,-13.1817 -12.4035,-22.9604 -23.1328,-24.3887 v 0 c -0.7056,-0.094 -1.4074,-0.1485 -2.1074,-0.1679 z"
     id="path13002" /><path
     style="color:#000000;clip-rule:nonzero;fill:#ffffff;fill-rule:nonzero;stroke-width:1.13521;stroke-linecap:butt;stroke-linejoin:miter;-inkscape-stroke:none"
     d="m -3674.9062,1572.1118 c -1.9699,4.83 -3.8797,10.0791 -5.5938,15.625 l -0.8457,-0.3887 a 4,4 0 0 0 -3.0586,-0.1172 4,4 0 0 0 -2.2461,2.0821 4,4 0 0 0 1.9649,5.3047 l 2.2363,1.0273 c -0.3615,2.4189 -0.3927,4.5307 -0.049,6.4512 0.6316,3.5284 3.4307,6.58 6.5371,7.2031 3.1064,0.6231 5.8725,-0.2904 8.4648,-1.5195 1.7254,-0.8181 3.3739,-1.8578 4.9121,-3.0078 l 14.8985,6.8457 a 4,4 0 0 0 5.3046,-1.9649 4,4 0 0 0 -1.9648,-5.3047 l -12.207,-5.6093 c 1.2836,-1.6689 2.6099,-3.5868 4.0312,-5.7071 0.3113,-0.4644 0.6318,-0.965 0.9473,-1.4453 l 16.5117,9.834 a 4,4 0 0 0 5.4844,-1.3906 4,4 0 0 0 -1.3907,-5.4844 l -16.3203,-9.7207 c 1.1787,-1.9199 2.35,-3.8588 3.4805,-5.7695 0.4632,-0.7829 0.8642,-1.4889 1.3125,-2.2559 21.9403,14.6986 43.4027,29.3922 64.3203,44.0879 -1.6403,1.0519 -3.2885,2.0986 -4.916,3.1582 -1.0303,-1.1854 -2.1533,-2.3316 -3.3633,-3.4316 -6.7096,-6.0998 -16.1178,-11.0589 -27.4062,-14.459 -1.9231,-0.5791 -3.6961,-0.9571 -5.3516,-1.1192 v 0 c -1.6554,-0.1622 -3.1941,-0.1091 -4.6465,0.1777 -2.9047,0.5737 -5.3787,2.3004 -6.7929,4.4629 -1.625,2.4846 -2.1264,5.1687 -2.1407,7.7734 -1.8045,-0.1525 -3.4752,-0.1038 -5.0234,0.17 -3.6045,0.6371 -6.5818,2.716 -8.1094,5.4297 -3.0551,5.4271 -1.3637,11.598 1.5508,16.1074 1.8116,2.7998 5.1784,6.0556 8.9727,9.5312 -6.0512,-2.1966 -11.9976,-3.6854 -17.3829,-2.6308 -3.7094,0.7251 -6.6626,1.9948 -8.6347,4.4004 -1.9721,2.4056 -2.2749,5.6815 -1.6309,8.2988 1.2878,5.2338 5.1453,9.6217 9.0801,13.9238 3.5565,3.8925 8.7036,7.8513 13.5645,11.2227 -19.4509,30.695 -31.6224,65.5301 -42.002,101.205 -31.8491,-17.8501 -63.7198,-33.6891 -95.6016,-47.289 23.183,-68.4363 52.3145,-129.4315 103.1036,-165.7051 z"
     id="path13004" /><path
     style="color:#000000;clip-rule:nonzero;fill:#005dc7;fill-rule:nonzero;stroke-width:1.13521;stroke-linecap:butt;stroke-linejoin:miter;-inkscape-stroke:none"
     d="m -4000.9004,1835.0708 22.9531,0.957 3.5137,1.5723 -3.668,2.334 -19.8086,-0.8379 c -0.4273,-0.5728 -0.9234,-1.0805 -1.4707,-1.4863 -0.7045,-0.5225 -1.448,-0.8892 -2.1972,-1.1465 0.2717,-0.4577 0.494,-0.9267 0.6777,-1.3926 z"
     id="path13080" /><path
     style="color:#000000;clip-rule:nonzero;fill:#005dc7;fill-rule:nonzero;stroke-width:1.13521;stroke-linecap:butt;stroke-linejoin:miter;-inkscape-stroke:none"
     d="m -4062.959,1832.4692 c 11.5324,0.4828 36.9831,1.5523 38.8535,1.6309 1.7659,1.5201 3.9016,2.9553 6.4571,4.1523 -0.8382,-0.035 -32.9229,-1.3929 -45.4082,-1.9257 a 4.0004,4.0004 0 0 0 -0.01,0 c -0.5673,-0.023 -0.9531,-0.4245 -0.9531,-1.004 v -1.8496 c 0,-0.2698 0.1188,-0.541 0.3047,-0.7187 0.196,-0.1875 0.4685,-0.2952 0.7558,-0.2852 z"
     id="path13078" /><path
     style="color:#000000;clip-rule:nonzero;fill:#ffffff;fill-rule:nonzero;stroke-width:1.13521;stroke-linecap:butt;stroke-linejoin:miter;-inkscape-stroke:none"
     d="m -3941.168,1811.2056 c 0.1228,0.2587 0.3459,0.5061 0.4141,0.7793 0.2893,1.1585 0.019,3.0502 -0.8496,5.1132 -1.7369,4.1262 -5.3477,8.168 -5.3477,8.168 a 4,4 0 0 0 0.2207,5.6523 4,4 0 0 0 5.6524,-0.2187 c 0,0 0.2125,-0.2414 0.3008,-0.3379 1.9489,4.4883 4.0563,8.7311 6.3339,12.7188 -6.1558,2.3769 -10.6903,7.6492 -14.0078,12.3593 -3.9642,5.6286 -6.2402,10.9668 -6.2402,10.9668 a 4,4 0 0 0 2.0996,5.252 4,4 0 0 0 5.2539,-2.0996 c 0,0 2.002,-4.6479 5.4277,-9.5117 3.4258,-4.864 8.2329,-9.4145 12.5391,-10.1172 11.0462,-1.8026 24.6122,2.2799 33.9649,9.2578 4.3399,3.2379 9.0069,9.2999 11.9238,15.6543 2.9168,6.3543 3.9399,12.9442 2.6601,16.9121 -2.9106,9.0247 -16.0836,25.1318 -47.4609,19.2969 -15.446,-2.8724 -31.7471,-12.1767 -44.5762,-23.836 -12.8275,-11.6578 -22.0802,-25.7293 -24.2246,-36.9765 -0.058,-0.3053 -0.1036,-0.6253 -0.1562,-0.9375 0.01,-0.015 0.011,-0.028 0.016,-0.043 0.2425,-0.7213 0.4373,-1.4187 0.5898,-2.1016 l 19.4512,0.8223 a 4.0004,4.0004 0 0 0 2.3164,-0.6211 l 11,-7 a 4.0004,4.0004 0 0 0 -0.5156,-7.0273 l -11,-4.92 a 4.0004,4.0004 0 0 0 -1.4649,-0.3437 l -18.4921,-0.7715 c 2.0361,-6.1676 4.8754,-11.0069 7.0859,-14.25 12.5765,16.1954 38.8116,13.7892 47.0859,-1.8398 z"
     id="path13072" /><path
     style="color:#000000;clip-rule:nonzero;fill:#ffffff;fill-rule:nonzero;stroke-width:1.13521;stroke-linecap:butt;stroke-linejoin:miter;-inkscape-stroke:none"
     d="m -4056.1992,1787.4907 c 0.6509,0.024 1.1002,0.1792 1.457,0.3555 0.7136,0.3523 1.3172,1.0264 1.836,2.0859 0.2757,0.5631 0.4844,1.1851 0.6484,1.7969 -1.4796,-0.3384 -2.9336,-0.6641 -2.9336,-0.6641 v 0 a 4,4 0 0 0 -4.7422,3.0879 4,4 0 0 0 3.0879,4.7403 c 0,0 5.6231,1.1886 12.2324,3.0078 6.6093,1.8192 14.3655,4.4861 17.4414,6.4492 3.4056,2.1722 7.9965,6.6033 11.6836,10.7324 1.8435,2.0645 3.4905,4.0606 4.7344,5.668 1.2439,1.6075 2.1752,3.0543 2.1855,3.0742 -0.043,-0.083 0.2925,0.8116 0.3965,1.709 0.1039,0.8974 0.043,1.8926 -0.1172,2.4492 -0.1605,0.5565 -0.2105,0.5162 -0.248,0.5352 -0.037,0.019 -0.5966,0.2795 -2.3516,-0.2383 -6.1023,-1.8051 -9.2475,-4.9602 -11.0664,-7.6543 -1.8192,-2.6944 -2.1269,-4.6074 -2.1269,-4.6074 a 4.0004,4.0004 0 0 0 -4.1856,-3.293 c -8.1088,0.4999 -13.8719,3.8847 -17.4453,8.459 -7.4924,-0.3142 -11.913,-0.5008 -16.9336,-0.711 a 4.0004,4.0004 0 0 0 -0.021,0 v 0 c -2.4339,-0.089 -4.8105,0.804 -6.58,2.4961 -1.7801,1.7022 -2.7754,4.0517 -2.7754,6.5019 v 1.8496 c 0,4.7805 3.8383,8.7994 8.625,8.9961 6.8711,0.2934 14.549,0.6172 24.9668,1.0586 5.737,0.92 14.2922,1.5488 21.5547,0.8789 2.7877,-0.2494 5.3709,-0.6838 7.6679,-1.5097 1.7268,-0.622 3.6442,-0.912 4.5489,-0.8145 0.2666,0.029 0.2308,0.036 0.2968,0.061 0.039,0.2668 0.088,1.1066 -0.4531,2.7148 0.037,-0.2019 -1.2458,1.297 -4.0859,2.416 -2.8967,1.1413 -6.8873,2.1246 -10.8321,2.8594 -7.8895,1.4696 -15.5664,2.0098 -15.5664,2.0098 a 4,4 0 0 0 -3.7129,4.2675 4,4 0 0 0 4.2676,3.7129 c 0,0 8.0187,-0.5495 16.4766,-2.125 2.2954,-0.4275 4.6228,-0.9287 6.8691,-1.5293 -0.097,0.5259 -0.3181,0.9912 -0.6211,1.4571 -0.8001,1.2298 -2.7083,2.6004 -5.8652,3.3008 -0.8191,0.1811 -5.9421,0.7915 -10.2481,1.1972 -4.3058,0.4058 -8.2109,0.7227 -8.2109,0.7227 a 4,4 0 0 0 -3.6641,4.3086 4,4 0 0 0 4.3086,3.664 c 0,0 3.947,-0.3187 8.3164,-0.7304 4.3696,-0.4118 8.7477,-0.801 11.2266,-1.3497 0.3935,-0.087 0.7809,-0.1867 1.1641,-0.291 -0.5425,0.9685 -1.7937,2.2943 -4.8184,3.8067 -2.3082,1.1532 -8.3071,2.2176 -14.5234,1.6582 -6.2174,-0.5596 -12.741,-2.5803 -17.1602,-6.1817 -4.5006,-3.6677 -13.7436,-14.517 -21.3691,-24.125 -7.6255,-9.6079 -13.9414,-18.1504 -13.9414,-18.1504 a 4,4 0 0 0 -2.6231,-1.5781 4,4 0 0 0 -2.9707,0.7383 4,4 0 0 0 -1.0664,5.1094 c -0.7455,-0.2099 -1.3371,-0.4745 -1.7734,-0.7617 -1.3202,-0.869 -1.9212,-2.0329 -2.1699,-4.0079 -0.4975,-3.9497 1.8907,-10.4595 3.5878,-12.7226 5.232,-6.976 23.8598,-23.1418 34.9454,-26.459 1.1666,-0.3496 2.019,-0.4574 2.6699,-0.4336 z"
     id="path13070" /><path
     style="color:#000000;clip-rule:nonzero;fill:#ffffff;fill-rule:nonzero;stroke-width:1.13521;stroke-linecap:butt;stroke-linejoin:miter;-inkscape-stroke:none"
     d="m -3914.7734,1779.4966 c 0.9387,0.752 1.9389,1.466 2.9961,2.1523 3.6428,2.365 8.2409,4.3867 13.1152,5.7988 4.8744,1.4121 9.9943,2.2214 14.7656,1.8223 0.899,-0.075 1.7897,-0.2534 2.6777,-0.4336 -0.7777,0.5049 -1.4023,0.8438 -1.4023,0.8438 a 4,4 0 0 0 -2.0547,5.2695 4,4 0 0 0 5.2696,2.0566 c 0,0 0.467,-0.2218 1.082,-0.5488 1.0855,1.7921 2.2944,3.4706 3.625,5.0274 -5.013,3.561 -8.2065,7.2947 -10.1446,10.4472 -2.4924,4.0543 -3.0175,7.5449 -3.0175,7.5449 a 4,4 0 0 0 3.4629,4.4747 4,4 0 0 0 4.4726,-3.4629 c 0,0 0.106,-1.4496 1.8985,-4.3653 1.7925,-2.9156 5.2064,-6.8952 11.957,-10.6445 16.9224,-9.4013 31.0864,-7.4759 43.1601,-0.9746 7.1557,3.8556 13.1085,13.0133 16.1036,22.166 1.4975,4.5763 2.2739,9.1155 2.2968,12.7402 0.023,3.6247 -0.8788,6.1949 -1.5429,6.9707 -1.9614,2.2917 -9.4829,5.3068 -20.25,6.8008 -10.7671,1.494 -24.6522,1.9893 -39.6602,1.8008 -13.9931,-0.1758 -27.5104,-6.3667 -38.3809,-14.168 -10.8704,-7.8013 -19.0839,-17.3305 -22.1914,-22.8066 -0.9532,-1.6798 -1.2125,-5.378 -0.2363,-10.0176 0.9762,-4.6396 2.9779,-10.0485 5.2305,-15.1055 2.335,-5.2419 4.8249,-9.9293 6.7676,-13.3886 z"
     id="path13064" /><path
     style="color:#000000;clip-rule:nonzero;fill:#000000;fill-rule:nonzero;stroke-width:1.13521;stroke-linecap:butt;stroke-linejoin:miter;-inkscape-stroke:none"
     d="m -3941.0449,1776.7934 c -1.4849,9.2072 -3.4517,18.2469 -5.834,27.1563 a 4,4 0 0 0 -0.01,0.1035 4.0004,4.0004 0 0 0 -0.035,0.062 c -3.0018,13.5075 -27.6755,17.8458 -36.8125,1.4258 1.0706,-3.7594 1.9795,-7.5207 2.707,-11.2852 11.5521,-5.1426 27.3719,-12.131 39.9805,-17.4629 z"
     id="path13062" /><path
     style="color:#000000;clip-rule:nonzero;fill:#000000;fill-rule:nonzero;stroke-width:1.13521;stroke-linecap:butt;stroke-linejoin:miter;-inkscape-stroke:none"
     d="m -3870.2383,1755.4927 c -2.3906,8.0607 -5.1041,15.8529 -8.2969,23.2558 -0.9489,1.3491 -2.8332,2.2815 -6.0293,2.5489 -3.3367,0.279 -7.693,-0.323 -11.871,-1.5333 -4.1781,-1.2103 -8.209,-3.0243 -10.9844,-4.8261 -1.8157,-1.1789 -2.7558,-2.3908 -3.2168,-2.9453 0.6472,-1.4655 1.2593,-2.9486 1.8359,-4.4493 z"
     id="path13058" /><path
     style="color:#000000;clip-rule:nonzero;fill:#000000;fill-rule:nonzero;stroke-width:1.13521;stroke-linecap:butt;stroke-linejoin:miter;-inkscape-stroke:none"
     d="m -3759.9863,1725.9829 a 4,4 0 0 0 -1.5332,0.293 4,4 0 0 0 -2.1797,2.1504 4,4 0 0 0 2.1269,5.2421 l 71,30 a 4,4 0 0 0 5.2422,-2.1289 4,4 0 0 0 -2.1289,-5.2421 l -71,-30 a 4,4 0 0 0 -1.5273,-0.3145 z"
     id="path13054" /><path
     style="color:#000000;clip-rule:nonzero;fill:#ffb900;fill-rule:nonzero;stroke-width:1.13521;stroke-linecap:butt;stroke-linejoin:miter;-inkscape-stroke:none"
     d="m -3891.4277,1712.5259 c -1.8719,4.3412 -4.3453,7.9348 -6.9141,10.3632 -1.9102,1.2882 -3.8106,2.4434 -5.7031,3.461 -1.0771,0.2743 -2.0135,0.28 -2.7422,0.07 -0.7389,-0.2126 -1.5438,-0.7297 -2.3203,-1.5547 6.348,-1.7941 12.3575,-6.1874 17.6797,-12.3398 z"
     id="path13052" /><path
     style="color:#000000;clip-rule:nonzero;fill:#000000;fill-rule:nonzero;stroke-width:1.13521;stroke-linecap:butt;stroke-linejoin:miter;-inkscape-stroke:none"
     d="m -3754.4883,1709.0102 a 4,4 0 0 0 -1.0117,0.2579 4,4 0 0 0 -2.1914,2.1386 4,4 0 0 0 2.1016,5.252 l 28,12 a 4,4 0 0 0 5.2519,-2.0996 4,4 0 0 0 -2.1016,-5.252 l -28,-12 a 4,4 0 0 0 -2.0488,-0.2969 z"
     id="path13050" /><path
     style="color:#000000;clip-rule:nonzero;fill:#ff9cae;fill-rule:nonzero;stroke-width:1.13521;stroke-linecap:butt;stroke-linejoin:miter;-inkscape-stroke:none"
     d="m -3879.9648,1703.8989 c 1.0466,0.6193 2.1327,1.1453 3.2558,1.5762 l 3.0254,13.1367 -9.2051,-3.9023 c 0.5911,-1.4731 1.1213,-3.004 1.5782,-4.5918 0.6028,-2.0953 1.0462,-4.174 1.3457,-6.2188 z"
     id="path13048" /><path
     style="color:#000000;clip-rule:nonzero;fill:#ffffff;fill-rule:nonzero;stroke-width:1.13521;stroke-linecap:butt;stroke-linejoin:miter;-inkscape-stroke:none"
     d="m -3597.3398,1692.0864 c -2.4474,3.9437 -5.4561,7.4044 -9.0059,10.459 -7.7543,6.6726 -18.2419,11.4022 -31.0586,14.418 0.7558,-1.9935 1.5434,-3.9841 2.3555,-5.9727 8.448,-1.9058 18.2778,-5.3654 28.1738,-11.6308 3.5751,-2.2609 6.7308,-4.7078 9.5352,-7.2735 z"
     id="path13046" /><path
     style="color:#000000;clip-rule:nonzero;fill:#000000;fill-rule:nonzero;stroke-width:1.13521;stroke-linecap:butt;stroke-linejoin:miter;-inkscape-stroke:none"
     d="m -3746.8828,1687.9849 a 4,4 0 0 0 -3.8926,2.6367 4,4 0 0 0 2.3984,5.123 l 58,21 a 4,4 0 0 0 5.1231,-2.4004 4,4 0 0 0 -2.4004,-5.123 l -58,-21 a 4,4 0 0 0 -1.2285,-0.2363 z"
     id="path13044" /><path
     style="color:#000000;clip-rule:nonzero;fill:#ffffff;fill-rule:nonzero;stroke-width:1.13521;stroke-linecap:butt;stroke-linejoin:miter;-inkscape-stroke:none"
     d="m -3869.334,1685.6821 c 1.4305,-0.01 2.9007,0.033 4.4043,0.1133 -0.2555,3.9535 0.071,7.7154 0.957,11.1113 0.04,0.1546 0.088,0.3071 0.1309,0.461 -2.4638,1.0047 -4.9009,1.3781 -7.2422,1.0664 -0.4531,-0.06 -0.9015,-0.1457 -1.334,-0.252 a 3.8489483,4.1456955 7.5823045 0 0 -0.01,0 c -2.5614,-0.623 -4.9776,-2.0535 -7.2422,-4.3008 1.167,-2.4862 2.2685,-5.0781 3.2949,-7.7754 2.2381,-0.2677 4.5839,-0.4119 7.041,-0.4238 z"
     id="path13042" /><path
     style="color:#000000;clip-rule:nonzero;fill:#ffffff;fill-rule:nonzero;stroke-width:1.13521;stroke-linecap:butt;stroke-linejoin:miter;-inkscape-stroke:none"
     d="m -3895.8242,1682.6333 c 0.6027,-0.047 1.1385,0 1.5957,0.1348 1.8289,0.5262 4.0622,2.8114 5.2695,7.4375 0.2913,1.1161 0.5056,2.3359 0.6406,3.6308 -1.422,2.7271 -2.9197,5.2679 -4.4804,7.5762 -6.1929,9.1592 -13.0598,14.5575 -19.6426,15.793 -0.7772,-4.409 -0.5222,-9.9958 1.125,-15.7207 1.8775,-6.525 5.1907,-11.9397 8.6719,-15.2168 2.611,-2.4578 5.0122,-3.4928 6.8203,-3.6348 z"
     id="path13040" /><path
     style="color:#000000;clip-rule:nonzero;fill:#ffffff;fill-rule:nonzero;stroke-width:1.13521;stroke-linecap:butt;stroke-linejoin:miter;-inkscape-stroke:none"
     d="m -3940.0762,1681.4126 20.7442,16.4219 c -0.1292,0.4083 -0.2554,0.8205 -0.375,1.2363 -1.7321,6.0198 -2.1965,11.9224 -1.4707,17.1816 -6.3124,-2.7086 -11.7837,-9.836 -15.4961,-20.6797 -1.4527,-4.2433 -2.5978,-9.0092 -3.4024,-14.1601 z"
     id="path13038" /><path
     style="color:#000000;clip-rule:nonzero;fill:#000000;fill-rule:nonzero;stroke-width:1.13521;stroke-linecap:butt;stroke-linejoin:miter;-inkscape-stroke:none"
     d="m -3740.3262,1668.9946 a 4,4 0 0 0 -3.416,2.5391 4,4 0 0 0 2.2774,5.1777 l 18,7 a 4,4 0 0 0 5.1777,-2.2793 4,4 0 0 0 -2.2774,-5.1777 l -18,-7 a 4,4 0 0 0 -1.7617,-0.2598 z"
     id="path13036" /><path
     style="color:#000000;clip-rule:nonzero;fill:#ffb900;fill-rule:nonzero;stroke-width:1.13521;stroke-linecap:butt;stroke-linejoin:miter;-inkscape-stroke:none"
     d="m -3832.666,1666.5356 c 0.069,0.2317 0.1373,0.4663 0.2012,0.711 1.2073,4.6261 1.1352,10.975 -0.7422,17.5 -1.8775,6.525 -5.1906,11.9397 -8.6719,15.2168 -3.4813,3.2769 -6.5871,4.0243 -8.416,3.498 -1.0809,-0.311 -2.2992,-1.2546 -3.3672,-2.914 3.6885,-2.967 7.1247,-6.8435 10.1914,-11.379 4.2653,-6.3082 7.9439,-13.9884 10.8047,-22.6328 z"
     id="path13034" /><path
     style="color:#000000;clip-rule:nonzero;fill:#ffffff;fill-rule:nonzero;stroke-width:1.13521;stroke-linecap:butt;stroke-linejoin:miter;-inkscape-stroke:none"
     d="m -3839.332,1659.6743 c 0.2448,-0.019 0.4711,-0.01 0.6933,0 -2.8029,9.7465 -6.6538,18.2273 -11.0351,24.707 -2.1168,3.1306 -4.3155,5.7556 -6.5469,7.8633 -0.3998,-4.0409 -0.01,-8.8308 1.3984,-13.7207 1.8775,-6.525 5.1907,-11.9397 8.6719,-15.2168 2.6111,-2.4578 5.0103,-3.4928 6.8184,-3.6348 z"
     id="path13032" /><path
     style="color:#000000;clip-rule:nonzero;fill:#000000;fill-rule:nonzero;stroke-width:1.13521;stroke-linecap:butt;stroke-linejoin:miter;-inkscape-stroke:none"
     d="m -3729.875,1653.9849 a 4,4 0 0 0 -3.9648,2.83 4,4 0 0 0 2.6562,4.9942 l 36,11 a 4,4 0 0 0 4.9941,-2.6582 4,4 0 0 0 -2.6562,-4.9942 l -36,-11 a 4,4 0 0 0 -1.0293,-0.1718 z"
     id="path13030" /><path
     style="color:#000000;clip-rule:nonzero;fill:#ffb900;fill-rule:nonzero;stroke-width:1.13521;stroke-linecap:butt;stroke-linejoin:miter;-inkscape-stroke:none"
     d="m -3763.1641,1651.4985 c 3.3558,1.6337 6.6794,3.1399 9.9746,4.5215 -5.5966,10.9394 -10.7429,22.3493 -15.5917,34.0645 -0.7272,-0.2996 -1.4551,-0.6064 -2.1836,-0.9219 1.4862,-7.1832 5.0191,-24.2314 7.8007,-37.6641 z"
     id="path13028" /><path
     style="color:#000000;clip-rule:nonzero;fill:#000000;fill-rule:nonzero;stroke-width:1.13521;stroke-linecap:butt;stroke-linejoin:miter;-inkscape-stroke:none"
     d="m -3721.9336,1634.9849 a 4,4 0 0 0 -3.8594,2.6835 4,4 0 0 0 2.4629,5.0918 l 46,16 a 4,4 0 0 0 5.0938,-2.4628 4,4 0 0 0 -2.4649,-5.0918 l -46,-16 a 4,4 0 0 0 -1.2324,-0.2207 z"
     id="path13026" /><path
     style="color:#000000;clip-rule:nonzero;fill:#ff5345;fill-rule:nonzero;stroke-width:1.13521;stroke-linecap:butt;stroke-linejoin:miter;-inkscape-stroke:none"
     d="m -4024.5742,1629.8891 c -1.7864,54.8556 -4.0938,125.7806 -4.793,147.254 -3.0335,-2.4381 -6.0379,-5.89 -8.9258,-10.3262 0.07,-2.1547 3.6057,-111.8284 4.2207,-130.9238 0.012,-0.3505 0.1984,-0.6587 0.4942,-0.8282 a 4.0004,4.0004 0 0 0 0.01,0 c 2.8526,-1.6422 5.5472,-3.1924 8.9942,-5.1758 z"
     id="path13024" /><path
     style="color:#000000;clip-rule:nonzero;fill:#000000;fill-rule:nonzero;stroke-width:1.13521;stroke-linecap:butt;stroke-linejoin:miter;-inkscape-stroke:none"
     d="m -3708.8926,1618.9849 a 4,4 0 0 0 -3.8867,2.6464 4,4 0 0 0 2.4121,5.1172 l 39,14 a 4,4 0 0 0 5.1172,-2.414 4,4 0 0 0 -2.4141,-5.1172 l -39,-14 a 4,4 0 0 0 -1.2285,-0.2324 z"
     id="path13022" /><path
     style="color:#000000;clip-rule:nonzero;fill:#ff87a8;fill-rule:nonzero;stroke-width:1.13521;stroke-linecap:butt;stroke-linejoin:miter;-inkscape-stroke:none"
     d="m -4024.1289,1616.2153 c -0.044,1.3476 -0.092,2.8317 -0.1387,4.2598 -2.0744,1.1937 -9.069,5.2189 -13.289,7.6484 -2.7038,1.5502 -4.4111,4.4011 -4.5118,7.5098 -0.5482,17.0226 -3.0916,95.8894 -3.7636,116.7344 -1.7469,-4.0588 -3.4207,-8.4779 -5.0157,-13.2188 -0.011,-1.1294 -0.934,-93.0473 -1.1308,-112.6074 0,-0.4438 0.2484,-0.8034 0.6719,-0.9492 7.4802,-2.5797 21.4612,-7.4045 27.1777,-9.377 z"
     id="path13020" /><path
     style="color:#000000;clip-rule:nonzero;fill:#ffffff;fill-rule:nonzero;stroke-width:1.13521;stroke-linecap:butt;stroke-linejoin:miter;-inkscape-stroke:none"
     d="m -3621.3223,1612.9595 c 1.1653,-0.033 2.8715,0.166 5.1543,0.8535 10.3916,3.1299 18.8017,7.691 24.3321,12.7187 5.5303,5.0278 8.0723,10.2682 7.8261,15.2539 -0.3302,6.7611 -1.3348,16.6285 -5.8125,26.584 -3.8688,8.5873 -10.2598,17.2303 -21.33,24.2305 -6.8296,4.3243 -13.627,7.1675 -19.8829,9.0586 1.951,-4.2701 4.0391,-8.5295 6.2852,-12.7754 a 4,4 0 0 0 0.018,-0.062 4,4 0 0 0 0.4179,-1.3965 4,4 0 0 0 0.012,-0.037 4,4 0 0 0 0.016,-0.4531 4,4 0 0 0 -0.053,-0.5664 4,4 0 0 0 -0.3418,-1.0821 4,4 0 0 0 -0.01,-0.014 4,4 0 0 0 -0.2753,-0.4804 4,4 0 0 0 -0.01,-0.01 4,4 0 0 0 -0.2324,-0.3145 4,4 0 0 0 -0.035,-0.029 4,4 0 0 0 -0.9531,-0.8281 c -5.5357,-3.4058 -17.0136,-11.0017 -21.8731,-16.3203 -3.6743,-4.0173 -6.7098,-8.3791 -7.2167,-10.4395 -0.2534,-1.0302 -0.178,-1.0376 0.051,-1.3164 0.2286,-0.2787 1.2968,-1.0942 3.9825,-1.6191 2.9934,-0.5862 10.0604,0.9725 16.9863,3.7558 6.926,2.7834 13.9444,6.4794 18.4023,8.9707 2.9478,1.6554 4.7559,2.7598 4.7559,2.7598 a 4.0004,4.0004 0 0 0 4.5801,-6.5391 c 0,0 -1.7022,-1.358 -4.3418,-3.5312 a 4.0004,4.0004 0 0 0 -0.01,0 c -3.9508,-3.2401 -9.971,-8.2574 -15.3828,-13.0781 -5.4111,-4.8202 -10.4177,-9.9076 -11.4043,-11.4317 -1.6347,-2.5307 -2.0685,-6.4684 -1.2988,-7.8359 0.385,-0.6838 0.8075,-1.1738 2.5312,-1.4785 1.7236,-0.3047 4.7633,-0.132 9.1797,1.2949 11.8028,3.8143 21.8002,12.1969 27.0723,17.3926 2.6694,2.6217 4.0527,4.3261 4.0527,4.3261 a 4,4 0 0 0 5.6289,0.5704 4,4 0 0 0 0.5703,-5.6289 c 0,0 -1.7165,-2.096 -4.6406,-4.9688 -5.7467,-5.6631 -16.3927,-14.7901 -30.0742,-19.2539 v 0 c -0.1235,-2.3319 0.1649,-4.3846 0.6836,-5.1777 0.3457,-0.5287 0.5707,-0.7793 1.6484,-0.9922 0.2695,-0.053 0.5979,-0.09 0.9863,-0.1015 z"
     id="path13018" /><path
     style="color:#000000;clip-rule:nonzero;fill:#00a07e;fill-rule:nonzero;stroke-width:1.13521;stroke-linecap:butt;stroke-linejoin:miter;-inkscape-stroke:none"
     d="m -4023.6973,1602.9692 c -0.038,1.1696 -0.1104,3.4022 -0.1523,4.6895 -3.2444,1.1194 -21.7858,7.5174 -30.0606,10.3711 -3.6445,1.2542 -6.106,4.7357 -6.0683,8.5918 0.1429,14.208 0.5385,53.5636 0.8223,81.7968 -5.9101,-26.7282 -10.1385,-58.2927 -12.754,-90.6875 -0.04,-0.5009 0.2366,-0.8985 0.7227,-1.039 11.5426,-3.338 40.8974,-11.818 47.4902,-13.7227 z"
     id="path13016" /><path
     style="color:#000000;clip-rule:nonzero;fill:#000000;fill-rule:nonzero;stroke-width:1.13521;stroke-linecap:butt;stroke-linejoin:miter;-inkscape-stroke:none"
     d="m -3697.0332,1601.4829 a 4,4 0 0 0 -3.6836,2.4863 4,4 0 0 0 2.1875,5.2168 l 11,4.5 a 4,4 0 0 0 5.2168,-2.1894 4,4 0 0 0 -2.1875,-5.2168 l -11,-4.5 a 4,4 0 0 0 -1.5332,-0.2969 z"
     id="path13014" /><path
     style="color:#000000;clip-rule:nonzero;fill:#ffffff;fill-opacity:1;fill-rule:nonzero;stroke-width:1.13521;stroke-linecap:butt;stroke-linejoin:miter;-inkscape-stroke:none"
     d="m -3674.7051,1599.2036 3.3457,1.5371 c -1.5281,0.6435 -2.7815,0.7645 -3.0293,0.7149 -0.2711,-0.054 0.01,0.5883 -0.2343,-0.7676 -0.065,-0.3604 -0.094,-0.8621 -0.082,-1.4844 z"
     id="path13012" /><path
     style="color:#000000;clip-rule:nonzero;fill:#ffffff;fill-rule:nonzero;stroke-width:1.13521;stroke-linecap:butt;stroke-linejoin:miter;-inkscape-stroke:none"
     d="m -3916.8457,1589.5747 c -5.0424,7.6769 -8.9646,18.5114 -10.6016,30.8086 -3.3485,25.1533 4.109,46.9316 16.6387,48.5996 6.4678,0.861 13.0268,-3.8018 18.3223,-11.9668 -5.5133,-9.0306 -9.6027,-19.7048 -12.2539,-32.0352 5.6764,7.3327 11.7586,13.9288 18.289,19.6856 2.0119,-5.4871 3.54,-11.6572 4.416,-18.2383 1.6379,-12.3032 0.6841,-23.7913 -2.1777,-32.5215 1.6532,2.8228 3.1423,6.0959 4.418,9.8223 4.4645,13.0408 6.0863,30.9385 3.5254,50.1758 -1.1941,8.9697 -3.2144,17.3863 -5.7871,25.0097 -1.2244,0.2499 -2.4254,0.5388 -3.6036,0.8672 -1.7545,-1.7871 -3.9224,-3.1764 -6.5742,-3.9394 -6.4573,-1.8579 -12.4822,0.8956 -17.0644,5.209 -2.607,2.454 -4.9216,5.541 -6.8282,9.1152 l -24.4062,-19.3203 a 4.0004,4.0004 0 0 0 -0.6504,-0.3848 c -0.4405,-7.8676 -0.1809,-16.3129 0.9844,-25.0664 2.5609,-19.2373 8.8087,-36.0891 16.5293,-47.5078 2.2026,-3.2577 4.4939,-6.0226 6.8242,-8.3125 z"
     id="path13010" /><path
     style="color:#000000;clip-rule:nonzero;fill:#ffffff;fill-rule:nonzero;stroke-width:1.13521;stroke-linecap:butt;stroke-linejoin:miter;-inkscape-stroke:none"
     d="m -3842.3613,1588.4634 c 1.5873,2.6052 3.012,5.6888 4.2265,9.2363 3.9533,11.547 5.4024,27.4487 3.1289,44.5273 -0.4745,3.5646 -1.1013,7.0291 -1.8437,10.3848 -6.0364,-1.2611 -11.6381,1.4168 -15.957,5.4824 -4.5823,4.3135 -8.2651,10.5759 -10.4063,18.0176 -0.1671,0.581 -0.3192,1.16 -0.4629,1.7383 -1.2909,-0.082 -2.5658,-0.1343 -3.8222,-0.1582 -2.067,-0.039 -4.0852,0 -6.0567,0.125 2.1645,-7.1435 3.8436,-14.8261 4.918,-22.8965 0.4923,-3.6983 0.8367,-7.3497 1.0508,-10.9414 8.4399,-1.6215 15.0711,-5.2283 19.6406,-11.0859 -0.38,-7.82 -2.0703,-15.6508 -5.0703,-23.4707 4.36,3.1999 7.7796,7.5507 10.3496,12.9707 2.5894,-8.5786 2.7756,-19.7989 0.3047,-33.9297 z"
     id="path13008" /><path
     style="color:#000000;clip-rule:nonzero;fill:#ffffff;fill-opacity:1;fill-rule:nonzero;stroke-width:1.13521;stroke-linecap:butt;stroke-linejoin:miter;-inkscape-stroke:none"
     d="m -3669.6992,1580.7915 11.2461,6.6973 c -0.2366,0.3587 -0.4801,0.7425 -0.7129,1.0898 -1.8425,2.7487 -3.6057,5.0972 -4.9395,6.6914 l -9.0683,-4.168 c 1.0783,-3.5663 2.2539,-7.0122 3.4746,-10.3105 z"
     id="path13006" /><path
     style="color:#000000;clip-rule:nonzero;fill:#ffffff;fill-opacity:1;fill-rule:nonzero;stroke-width:1.13521;stroke-linecap:butt;stroke-linejoin:miter;-inkscape-stroke:none"
     d="m -3662.0977,1563.7427 c 4.3381,2.8693 8.6206,5.7385 12.9219,8.6074 -0.382,0.6801 -0.7501,1.3358 -1.5176,2.6328 -1.1299,1.9098 -2.2996,3.8441 -3.4707,5.75 l -12.5625,-7.4824 c 1.3962,-3.3198 2.8081,-6.4071 4.1758,-9.1934 0.01,-0.018 0.017,-0.035 0.025,-0.053 0.1441,-0.086 0.2834,-0.1765 0.4277,-0.2617 z"
     id="path13000" /><path
     style="color:#000000;clip-rule:nonzero;fill:#ffb900;fill-rule:nonzero;stroke-width:1.13521;stroke-linecap:butt;stroke-linejoin:miter;-inkscape-stroke:none"
     d="m -4056.6094,1528.7368 a 4.0004,4.0004 0 0 0 0.01,0 c 0.4368,-0.1074 0.8453,0.061 1.082,0.4492 l 20.2266,33.1504 -78.4824,17.6485 -12.5,-33.127 c -0.1003,-0.2656 -0.078,-0.5762 0.047,-0.8105 a 4.0004,4.0004 0 0 0 0.01,-0.014 c 0.1358,-0.2582 0.3677,-0.4392 0.6484,-0.5078 z"
     id="path12996" /><path
     style="color:#000000;clip-rule:nonzero;fill:#ffb900;fill-rule:nonzero;stroke-width:1.13521;stroke-linecap:butt;stroke-linejoin:miter;-inkscape-stroke:none"
     d="m -3838.8066,1526.3559 c 0.3521,-0.079 0.6833,0.019 0.9257,0.2579 l 9.1485,8.9824 c -72.9009,16.2002 -164.208,36.4892 -186.6016,41.4687 -4.4395,0.981 -7.6786,4.8919 -7.8262,9.4356 -0.039,1.2015 -0.209,6.4472 -0.2617,8.0644 -3.8188,1.1032 -37.8347,10.9307 -49.9883,14.4453 -4.0799,1.1795 -6.8126,5.1223 -6.4746,9.3614 3.2227,39.9174 8.7988,78.7432 17.1778,109.2851 4.1895,15.2711 9.0666,28.4737 14.8379,38.7989 5.1629,9.2367 11.0646,16.3036 18.1953,20.1171 -0.01,0.2313 -0.09,2.7423 -0.096,2.9102 -19.8235,-14.8712 -33.6362,-36.5386 -37.2657,-71.9082 a 4.0004,4.0004 0 0 0 -3.2636,-3.5254 4.0004,4.0004 0 0 0 -4.2969,2.1504 c -9.7429,19.5515 -6.1173,42.5715 5.7285,67.2148 -12.3431,6.2518 -24.8179,17.8312 -30.7226,25.3731 -16.8798,-18.8048 -25.4727,-39.9645 -25.0704,-64.4785 0.4292,-26.1506 11.308,-56.3354 34.5293,-90.961 v -0.01 c 1.6231,-2.4153 1.9764,-5.4699 0.9473,-8.1914 l -21.7383,-57.6055 z"
     id="path12994" /></g></svg>
