<?xml version="1.0" encoding="UTF-8" standalone="no"?>
<svg
   width="4453.9751"
   height="5266.1294"
   viewBox="0 0 4453.9751 5266.1294"
   version="1.1"
   xml:space="preserve"
   style="clip-rule:evenodd;fill-rule:evenodd;stroke-linecap:round;stroke-linejoin:round;stroke-miterlimit:1.5"
   id="svg2157"
   xmlns="http://www.w3.org/2000/svg"
   xmlns:svg="http://www.w3.org/2000/svg"><defs
   id="defs2161" />
    
    
<g
   id="fullcolor-retro-dudes-laptop"
   transform="matrix(9.9999994,0,0,9.9999994,-42703.618,-18519.348)"><g
     id="g235933"
     transform="translate(9636.9821,-756.86781)"
     style="clip-rule:evenodd;fill-rule:evenodd;stroke-linecap:round;stroke-linejoin:round;stroke-miterlimit:1.5"><path
       style="color:#000000;clip-rule:nonzero;fill:#000000;fill-rule:nonzero;stroke-width:1.20267;stroke-linecap:butt;stroke-linejoin:miter;-inkscape-stroke:none"
       d="m -5046.6348,2608.8027 c -1.9322,0.016 -3.7544,0.5706 -5.4199,1.2422 -2.5378,1.0235 -4.8619,2.4731 -6.8652,3.8828 -4.4863,3.1571 -9.0813,9.8315 -12.5742,19.1953 -3.1828,8.5324 -4.9835,19.209 -2.5664,30.3985 -1.0749,0.5737 -2.1267,1.1632 -3.1329,1.7754 -5.6102,3.4133 -10.2729,7.3239 -11.7656,12.8261 -0.7463,2.7512 -0.3515,5.9557 1.2832,8.5723 0.9668,1.5476 2.2794,2.8977 3.9024,4.1133 -1.738,3.1907 -2.6095,6.7406 -1.7754,10.4062 0.9255,4.0673 3.8328,7.5532 8.4355,10.3692 -0.9751,2.0644 -1.4979,4.3715 -1.1308,6.7461 0.4183,2.7069 2.0615,5.2161 4.4121,7.0254 4.1682,3.2083 10.5854,4.8961 19.9238,5.5859 0.5929,4.1568 2.1862,7.5575 4.5156,9.9941 2.871,3.0032 6.5222,4.4683 9.9356,5.1641 0.5647,2.228 1.8416,5.9702 4.5703,9.1133 2.0811,2.3971 5.5513,4.4995 9.6465,4.1738 3.1673,-0.2518 6.3447,-1.7263 9.7246,-4.4512 9.1657,14.7402 15.1508,34.6683 2.0801,55.1973 -10.5216,16.5256 -23.5988,27.2743 -37.086,34.1777 -6.091,-20.9774 -42.921,-147.8226 -49.9473,-172.0195 -1.1118,-3.8276 -4.6577,-6.4883 -8.6425,-6.4883 h -45.4571 c -0.9758,-2.0981 -2.0361,-4.0996 -3.1855,-5.9804 -6.4575,-10.567 -15.8634,-17.7129 -26.6367,-17.7129 -10.3242,0 -19.3368,6.5234 -25.793,16.4062 -5.8364,-6.3431 -13.1339,-10.3261 -21.2051,-10.3261 -10.8332,0 -20.2192,7.1358 -26.6621,17.6113 h -84.9707 a 4.0004,4.0004 0 0 0 -0.2715,0.084 4,4 0 0 0 -1.7441,0.5429 4.0004,4.0004 0 0 0 -0.332,0.1758 4,4 0 0 0 -0.1856,0.1 c -5.8339,4.7721 -7.7239,12.2455 -7.6797,20.3907 0.044,8.145 1.8628,17.4448 4.0879,27.5878 a 4.0004,4.0004 0 0 0 0.027,0.1172 l 37.164,148.0899 c -0.658,0.337 -1.3101,0.6565 -1.9863,1.0429 -11.357,6.49 -29.5702,24.5732 -38.4082,52.4961 -8.8368,27.9148 -8.1347,51.8412 -5.9785,67.1446 -2.0071,1.5318 -3.6674,3.1456 -4.9805,4.8515 -2.3473,3.0495 -3.55,6.5524 -3.2715,9.9649 0.2785,3.4125 1.9788,6.4924 4.418,8.9316 1.8951,1.8951 4.174,2.6966 6.6074,2.918 -0.061,9.5265 1.252,21.7426 7.1738,32.5644 6.4859,11.8535 16.2494,27.1886 23.336,35.1817 2.178,2.4565 4.9063,3.9724 7.7285,4.2109 2.8226,0.2386 5.5801,-0.8637 7.4551,-2.7891 2.9369,-3.016 3.6801,-7.789 1.8984,-12.4765 1.1806,0.5811 2.8044,1.3845 3.4453,1.6953 5.9921,2.9052 12.4475,1.4955 15.5293,-2.873 1.541,-2.1843 2.1365,-5.1106 1.3985,-7.879 -0.2045,-0.7667 -0.5052,-1.5091 -0.8887,-2.2246 1.9283,-1.2289 3.5493,-2.8716 4.5976,-5.0234 1.657,-3.4009 1.3018,-7.6019 -0.8515,-11.6484 0.5949,-1.2064 0.956,-2.5579 0.9258,-3.9688 -0.07,-3.2651 -1.5993,-6.4596 -4.3809,-10.0137 -4.0369,-5.1582 -8.2779,-10.0398 -11.3848,-14.4003 -3.1021,-4.3538 -4.8316,-8.1625 -4.8457,-10.4786 0.066,-0.8247 0.5807,-8.4677 -2.6855,-15.9336 -1.7258,-3.9447 -4.6977,-7.9499 -9.4629,-10.2324 -1.6593,-0.7947 -3.4992,-1.3534 -5.5098,-1.664 -0.5387,-32.3725 17.1445,-58.8163 30.6426,-71.8028 10.2799,9.4672 30.8646,28.425 58.4609,53.8399 2.1394,34.4573 1.172,67.7828 -6.7578,100.6504 a 4.0004,4.0004 0 0 0 -1.9609,-0.041 c 0,0 -8.9122,2.1648 -15.3379,8.6954 -3.2128,3.2651 -5.8543,7.9432 -5.7988,13.6738 0.045,4.6454 1.8871,9.731 5.6738,15.2461 -1.8233,1.1751 -3.8453,2.7234 -5.7148,5.0781 -4.6181,5.8165 -7.8842,15.7699 -4.459,30.752 0.9242,4.1958 4.7618,7.1767 9.0566,7.0332 17.8394,-0.5629 90.5589,-2.9857 111.3223,-3.6778 2.5959,-0.085 5.0315,-1.2895 6.6738,-3.2988 1.6415,-2.01 2.3354,-4.6371 1.9043,-7.1934 a 4.0004,4.0004 0 0 0 -0.01,-0.039 c -1.0988,-6.1411 -3.4166,-15.956 -8.5273,-24.5938 -5.1108,-8.6378 -13.6691,-16.3326 -25.9688,-16.1054 -7.9752,0.1471 -14.9216,1.4685 -20.6992,4.7617 0.4005,-1.0533 0.8599,-2.0996 1.0352,-3.1778 1.0568,-6.4998 -0.9814,-12.6957 -2.3106,-17.1035 a 4.0004,4.0004 0 0 0 -3.5566,-2.7226 c 8.1342,-19.6624 13.1805,-40.5439 14.2227,-63.0059 2.153,1.9829 8.5736,7.8944 9.7167,8.9473 1.9391,1.7863 4.5696,2.6326 7.1836,2.3144 6.2099,-0.7558 37.4745,-4.6115 60.9454,-7.4941 0.805,18.7149 -0.5138,34.5471 -4.4786,46.789 a 4.0004,4.0004 0 0 0 -1.3632,-0.2578 c 0,0 -5.7484,0.02 -11.9239,2.3321 -6.1755,2.3122 -13.4339,7.5528 -14.7539,17.1504 -0.715,5.2015 1.3474,9.8713 4.3887,13.1972 0.6608,0.7227 1.3699,1.3895 2.1055,2.0215 -1.4842,10.2643 -2.9905,24.4347 -1.8399,36.1035 a 4.0004,4.0004 0 0 0 0.02,0.1602 c 0.616,4.4073 4.4446,7.7383 8.8945,7.7383 1.951,0 4.537,4e-4 7.5508,0.01 a 4,4 0 0 0 0.023,0.01 4,4 0 0 0 0.041,-0.01 c 0.059,2e-4 0.089,-2e-4 0.1485,0 a 4.0004,4.0004 0 0 0 0.014,0 c 5.2987,0 12.029,0.01 19.5215,0.01 a 4,4 0 0 0 0.019,0.01 4,4 0 0 0 0.027,-0.012 c 28.0359,0.01 66.7506,0.012 81.7402,0.012 2.7901,0 5.4328,-1.3004 7.1348,-3.5137 1.7026,-2.2133 2.2817,-5.1025 1.5644,-7.8008 a 4.0004,4.0004 0 0 0 -0.01,-0.031 c -1.6839,-6.1235 -4.8764,-15.4776 -10.6836,-23.8262 -5.8072,-8.3486 -14.5704,-15.842 -26.7539,-16.8828 -3.647,-0.3116 -7.1875,-0.4906 -10.6055,-0.4727 -2.931,0.015 -5.7599,0.1986 -8.5,0.5449 0.129,-0.233 0.2706,-0.4655 0.3867,-0.6992 1.8832,-3.7881 1.7639,-7.7405 0.5196,-10.6465 -2.3947,-5.5927 -7.573,-7.8637 -7.9688,-8.0312 8.7151,-17.7907 10.4486,-37.4877 5.7344,-58.9414 2.1365,-0.2652 2.6151,-0.3179 4.7558,-0.584 48.0082,-5.9679 96.0066,-12.0389 108.1348,-13.9981 16.7827,-2.7109 24.8927,-7.8634 28.6445,-13.3418 1.876,-2.7391 2.5256,-5.4751 2.6192,-7.5156 0.094,-2.0405 -0.4297,-3.7383 -0.4297,-3.7383 a 4,4 0 0 0 -0.098,-0.1132 4.0004,4.0004 0 0 0 -1.1914,-1.7383 l -102.5605,-82.5528 c 42.1094,-19.0976 65.5109,-58.1313 60.6328,-94.7168 -3.4322,-25.7407 -16.3117,-42.1516 -28.3223,-52.1425 0.8779,-1.6046 1.6927,-3.1971 2.3555,-4.75 2.0893,-4.895 3.3406,-9.6987 1.3691,-14.209 -0.9857,-2.2552 -2.9524,-4.1564 -5.3398,-5.1836 -1.6075,-0.6917 -3.4463,-0.9725 -5.4004,-1.0957 -1.1581,-2.9756 -4.1903,-10.5104 -9.6699,-19.8945 -5.8226,-9.9717 -13.502,-20.8637 -23.7891,-25.0625 -3.2546,-8.1652 -5.2954,-17.3028 -3.914,-25.4961 1.0766,-6.3884 1.2139,-11.0396 0.3789,-14.7578 -0.835,-3.7184 -3.2023,-6.7975 -6.3047,-7.8106 -0.7756,-0.2533 -1.5374,-0.397 -2.2852,-0.4531 -0.2804,-0.021 -0.5579,-0.03 -0.834,-0.027 z"
       id="path2392-3" /><path
       style="color:#000000;clip-rule:nonzero;fill:#005dc7;fill-rule:nonzero;stroke-width:1.20267;stroke-linecap:butt;stroke-linejoin:miter;-inkscape-stroke:none"
       d="m -5095.1113,3098.8555 c -2.7065,5.8684 -4.7486,12.9646 -6.1407,21.4199 -4.3867,0 -8.1553,0 -11.873,-0.01 1.1955,-8.381 4.6465,-12.5161 10.3301,-16.6563 2.2002,-1.6027 4.8037,-3.1407 7.6836,-4.7558 z"
       id="path111916" /><path
       style="color:#000000;clip-rule:nonzero;fill:#005dc7;fill-rule:nonzero;stroke-width:1.20267;stroke-linecap:butt;stroke-linejoin:miter;-inkscape-stroke:none"
       d="m -5203.75,3095.6309 c -4.1599,7.0296 -6.7511,16.7994 -8.4453,30.2558 -8.0799,0.2671 -13.1897,0.4354 -19.9785,0.6582 1.9658,-8.1793 7.822,-24.7708 23.582,-28.9746 1.8342,-0.4892 3.3333,-1.2198 4.8418,-1.9394 z"
       id="path111914" /><path
       style="color:#000000;clip-rule:nonzero;fill:#ffffff;fill-rule:nonzero;stroke-width:1.20267;stroke-linecap:butt;stroke-linejoin:miter;-inkscape-stroke:none"
       d="m -5172.7207,3088.498 v 0 c 9.0304,-0.1668 14.6626,4.9597 18.9356,12.1816 4.2665,7.2111 6.5208,16.2726 7.5293,21.8985 0.046,0.2862 -0.029,0.5694 -0.211,0.7929 -0.1836,0.2235 -0.451,0.356 -0.7382,0.3653 -10.6046,0.3535 -33.3772,1.0991 -56.8614,1.8769 2.0589,-15.1886 5.2638,-24.5611 9.5977,-29.5976 4.7842,-5.5596 11.1863,-7.3246 21.75,-7.5196 z"
       id="path111912" /><path
       style="color:#000000;clip-rule:nonzero;fill:#ffffff;fill-rule:nonzero;stroke-width:1.20267;stroke-linecap:butt;stroke-linejoin:miter;-inkscape-stroke:none"
       d="m -5055.4395,3083.7676 v 0 c 3.0751,-0.019 6.3431,0.1358 9.8066,0.4317 9.3075,0.7951 15.8944,6.3286 20.8692,13.4804 4.9676,7.1416 7.9841,15.7445 9.5273,21.3496 0.079,0.3025 0.019,0.6137 -0.1719,0.8614 -0.19,0.2473 -0.4779,0.3906 -0.7929,0.3906 -14.1056,0 -49.4651,3e-4 -76.918,-0.012 2.889,-16.3692 8.109,-25.7641 15.168,-30.7383 5.8018,-4.0883 13.2884,-5.7096 22.5136,-5.7656 z"
       id="path111910" /><path
       style="color:#000000;clip-rule:nonzero;fill:#ffffff;fill-rule:nonzero;stroke-width:1.20267;stroke-linecap:butt;stroke-linejoin:miter;-inkscape-stroke:none"
       d="m -5247.123,3066.0547 v 0 c 0.085,1.8182 0.3534,3.6353 0.9648,5.3496 1.8752,5.2576 6.1381,10.1681 12.4141,11.8516 14.0775,3.7769 26.2905,-4.0075 32.8711,-9.5489 0.5031,2.5272 0.7784,4.9988 0.4375,7.0957 -0.6337,3.8977 -2.3528,6.9401 -10.2227,9.0391 -22.6264,6.0354 -28.3869,29.1925 -29.7539,36.9766 -5.3491,0.1745 -15.2263,0.5062 -18.123,0.5976 a 4.0004,4.0004 0 0 0 -0.01,0 c -0.4911,0.016 -0.8709,-0.2798 -0.9766,-0.7598 a 4.0004,4.0004 0 0 0 -0.01,-0.033 c -3.0389,-13.2595 -0.1922,-20.1036 2.9199,-24.0234 3.1121,-3.9197 6.5097,-4.8496 6.5097,-4.8496 a 4.0004,4.0004 0 0 0 1.9747,-6.4043 c -5.1214,-6.1566 -6.6787,-10.7916 -6.711,-14.123 -0.032,-3.3315 1.3338,-5.7788 3.5039,-7.9844 1.2411,-1.2614 2.7156,-2.2877 4.2071,-3.1836 z"
       id="path111908" /><path
       style="color:#000000;clip-rule:nonzero;fill:#ffffff;fill-rule:nonzero;stroke-width:1.20267;stroke-linecap:butt;stroke-linejoin:miter;-inkscape-stroke:none"
       d="m -5119.7305,3058.9883 c -0.1467,0.3316 -0.3084,0.5329 -0.4472,0.875 -0.9717,2.3939 -1.7914,5.0577 -1.7246,7.9707 0.067,2.913 1.4433,6.3392 4.416,8.2676 5.4059,3.5059 13.8898,4.3368 23.1582,2.6836 8.0125,-1.4292 16.5562,-5.214 22.334,-12.6114 0.6149,0.5926 1.1901,1.2355 1.4882,1.9317 0.4488,1.0483 0.6444,1.9774 -0.33,3.9375 -0.9744,1.96 -3.4503,4.8827 -8.6016,8.3554 -10.6514,7.181 -20.2857,11.0784 -28.0664,16.7461 -6.9972,5.0971 -12.1866,12.1715 -13.6465,23.1172 -1.4062,0 -3.0745,-0.01 -4.1406,-0.01 -0.5087,0 -0.8754,-0.323 -0.959,-0.8184 -0.8774,-9.0968 0.097,-20.916 1.3164,-30.418 0.4365,0.2138 0.8745,0.422 1.3106,0.6211 7.738,3.5343 15.5449,4.8535 15.5449,4.8535 a 4,4 0 0 0 4.625,-3.2597 4,4 0 0 0 -3.2578,-4.6231 c 0,0 -7.0326,-1.2531 -13.5899,-4.248 -3.2786,-1.4975 -6.3541,-3.4389 -8.2656,-5.5293 -1.9115,-2.0905 -2.7421,-3.998 -2.3691,-6.711 0.8576,-6.2298 4.9775,-9.0042 9.6347,-10.748 0.5763,-0.2158 1.0061,-0.2189 1.5703,-0.3867 z"
       id="path111906" /><path
       style="color:#000000;clip-rule:nonzero;fill:#ffffff;fill-rule:nonzero;stroke-width:1.20267;stroke-linecap:butt;stroke-linejoin:miter;-inkscape-stroke:none"
       d="m -5321.6094,3024.9023 c 0.2417,0.013 0.4699,0.1144 0.6465,0.2911 5.1624,5.3541 12.9514,13.4378 17.9727,16.7871 3.5336,2.3551 7.8617,3.2246 11.8867,2.0468 0.5811,1.4629 0.3818,2.3701 0.029,3.0938 -0.4261,0.8746 -1.606,1.9091 -3.4785,2.6328 -6.7202,-4.6953 -17.9258,-13.6934 -17.9258,-13.6934 a 4,4 0 0 0 -2.9375,-0.8632 4,4 0 0 0 -2.6875,1.4687 4,4 0 0 0 0.6055,5.6231 c 0,0 12.7415,10.3042 19.9511,15.1113 1.594,1.0625 2.0825,1.9928 2.2266,2.5332 0.1441,0.5404 0.062,0.8265 -0.2051,1.2051 -0.5341,0.7571 -2.2251,1.8759 -5.5019,0.2871 -2.3211,-1.1253 -9.4174,-4.6368 -15.6856,-7.7442 -1.5672,-2.3905 -3.0878,-4.9491 -4.3418,-7.6289 -3.1476,-6.7265 -4.5605,-13.6809 -1.5293,-20.5527 0.1341,-0.3043 0.4012,-0.5176 0.7305,-0.5801 0.082,-0.015 0.1636,-0.022 0.2441,-0.018 z"
       id="path111904" /><path
       style="color:#000000;clip-rule:nonzero;fill:#ffffff;fill-rule:nonzero;stroke-width:1.20267;stroke-linecap:butt;stroke-linejoin:miter;-inkscape-stroke:none"
       d="m -5316.3262,3002.0508 c 1.7226,-0.026 3.1005,0.1715 4.1094,0.5195 0.7038,4.4703 3.1977,8.5567 6.127,12.668 3.453,4.8464 7.7395,9.7547 11.6015,14.6894 2.162,2.7624 2.6661,4.6193 2.6797,5.2539 0.01,0.2774 0.013,0.3489 -0.01,0.4063 a 4,4 0 0 0 -0.07,0.043 4,4 0 0 0 -0.1406,0.1308 c -0.056,0.025 -0.057,0.024 -0.1563,0.084 -0.9342,0.5605 -4.8914,0.4647 -6.3711,-0.5215 -2.8441,-1.8971 -11.635,-10.48 -16.7051,-15.7383 a 4.0004,4.0004 0 0 0 -0.053,-0.053 c -2.0985,-2.0968 -5.1074,-3.0246 -8.0195,-2.4785 -2.912,0.5479 -5.3786,2.5036 -6.5742,5.2168 -4.2248,9.5796 -2.0827,19.2922 1.6035,27.1699 3.6864,7.8781 8.9854,14.4053 11.7695,18.3027 2.4795,3.4717 1.5761,5.4243 0.9375,6.0801 -0.3192,0.3279 -0.5802,0.4381 -1.0488,0.3985 -0.4685,-0.04 -1.3032,-0.2916 -2.416,-1.5469 -6.0793,-6.857 -16.0626,-22.3084 -22.3028,-33.7129 -5.0537,-9.2354 -6.2759,-20.589 -6.1777,-29.4082 4.3598,-0.8486 9.057,-2.3056 13.7461,-3.7051 5.2002,-1.5521 10.3767,-3.0228 14.5761,-3.5762 1.0499,-0.1383 2.0154,-0.2093 2.8926,-0.2226 z"
       id="path111902" /><path
       style="color:#000000;clip-rule:nonzero;fill:#ffffff;fill-rule:nonzero;stroke-width:1.20267;stroke-linecap:butt;stroke-linejoin:miter;-inkscape-stroke:none"
       d="m -5325.9863,2979.9785 c 0.2811,0 0.5538,2e-4 0.8203,0.01 2.1316,0.077 3.8028,0.5331 5.1445,1.1758 2.6835,1.2853 4.3888,3.4838 5.5879,6.2246 0.9813,2.2429 1.431,4.6529 1.6992,6.8105 -2.4255,-0.3343 -4.9832,-0.1929 -7.5293,0.1426 -5.1296,0.6759 -10.5747,2.2761 -15.8203,3.8418 -5.2456,1.5656 -10.3021,3.0993 -14.1758,3.7383 -3.8736,0.639 -5.9439,0.042 -6.2461,-0.2598 -1.4178,-1.4178 -2.0003,-2.7079 -2.0996,-3.9238 -0.099,-1.2159 0.2235,-2.5996 1.6367,-4.4356 2.8264,-3.672 10.3276,-8.4769 23.8946,-12.2109 2.786,-0.7668 5.1201,-1.0944 7.0879,-1.1133 z"
       id="path111900" /><path
       style="color:#000000;clip-rule:nonzero;fill:#005dc7;fill-rule:nonzero;stroke-width:1.20267;stroke-linecap:butt;stroke-linejoin:miter;-inkscape-stroke:none"
       d="m -5282.7812,2889.7188 c 17.495,15.1185 97.5625,84.3096 110.7226,95.6816 1.8636,1.6106 4.3088,2.3857 6.7578,2.1465 23.3993,-2.2886 226.9232,-22.1928 235.3574,-23.0176 -0.1622,0.3348 -0.248,0.6304 -0.5078,1.0098 -1.9901,2.9059 -7.7191,7.4447 -23.3203,9.9648 -11.3958,1.8409 -59.8502,7.9927 -107.8457,13.959 -47.9954,5.9663 -95.7711,11.789 -106.6348,13.1113 -0.2939,0.036 -0.58,-0.058 -0.7968,-0.2578 -13.7615,-12.6744 -96.3895,-88.7697 -116.961,-107.7148 1.3086,-1.6748 2.3676,-3.302 3.2286,-4.8828 z"
       id="path111880" /><path
       style="color:#000000;clip-rule:nonzero;fill:#005dc7;fill-rule:nonzero;stroke-width:1.20267;stroke-linecap:butt;stroke-linejoin:miter;-inkscape-stroke:none"
       d="m -5051.5234,2863.7324 115.9257,93.3086 c -16.2023,1.5846 -207.5657,20.3018 -230.4804,22.543 -0.2741,0.027 -0.5439,-0.06 -0.75,-0.2383 -13.444,-11.6173 -98.4755,-85.097 -113.1133,-97.7461 0.1225,-0.7669 0.2061,-1.5155 0.2461,-2.2461 z"
       id="path111866" /><path
       style="color:#000000;clip-rule:nonzero;fill:#000000;fill-rule:nonzero;stroke-width:1.20267;stroke-linecap:butt;stroke-linejoin:miter;-inkscape-stroke:none"
       d="m -5063.0742,2867.2676 a 3.7820019,8.0303045 84.389511 0 0 -2.082,0.074 3.7820019,8.0303045 84.389511 0 0 -7.6211,4.5488 3.7820019,8.0303045 84.389511 0 0 8.3613,2.9805 3.7820019,8.0303045 84.389511 0 0 7.6211,-4.5508 3.7820019,8.0303045 84.389511 0 0 -6.2793,-3.0527 z"
       id="path111868" /><path
       style="color:#000000;clip-rule:nonzero;fill:#ffffff;fill-rule:nonzero;stroke-width:1.20267;stroke-linecap:butt;stroke-linejoin:miter;-inkscape-stroke:none"
       d="m -5233.5508,2697.5762 c 0.1458,2.1146 0.4051,4.1837 0.7676,6.1933 5.581,-1.513 11.1631,-0.733 16.7441,2.42 -5.467,2.194 -9.7052,5.6075 -12.7832,10.1855 4.682,9.9725 12.3383,16.898 21.1661,18.2305 -0.6256,1.5338 -1.282,3.0265 -1.9981,4.4238 -5.6294,10.9846 -13.5562,17.1602 -21.7344,17.1602 -7.3351,0 -14.4162,-4.9073 -19.9179,-13.9102 -5.4552,-8.9267 -9.0162,-21.6347 -9.0762,-35.7305 8.8489,-4.1617 17.7685,-7.2349 26.832,-8.9726 z"
       id="path111856" /><path
       style="color:#000000;clip-rule:nonzero;fill:#ffffff;fill-rule:nonzero;stroke-width:1.20267;stroke-linecap:butt;stroke-linejoin:miter;-inkscape-stroke:none"
       d="m -5180.4668,2696.1992 c 0.104,2.1959 0.3235,4.3482 0.6602,6.4375 4.6141,-0.5916 9.2277,0.3914 13.8418,2.9981 -4.448,1.7845 -8.0815,4.3779 -10.9395,7.748 3.269,8.3678 8.5259,14.9608 14.8652,18.4942 -0.7309,1.51 -1.5033,2.9523 -2.3261,4.2988 -5.489,8.9821 -12.5851,13.9336 -20.0254,13.9336 -6.1657,0 -12.0579,-3.3869 -17.0528,-9.6797 4.4754,-9.6575 7.0547,-21.4716 7.0547,-34.2402 0,-2.3384 -0.094,-4.6409 -0.2617,-6.9083 4.9064,-1.2787 9.637,-2.3057 14.1836,-3.082 z"
       id="path111854" /><path
       style="color:#000000;clip-rule:nonzero;fill:#01b83f;fill-opacity:1;fill-rule:nonzero;stroke-width:1.20267;stroke-linecap:butt;stroke-linejoin:miter;-inkscape-stroke:none"
       d="m -5322.207,2687.4277 c 15.5052,0.029 49.4528,0.092 55.748,0.1035 -1.2524,5.866 -1.9297,12.135 -1.9297,18.6583 0,15.5629 3.8109,29.7153 10.2559,40.2617 6.445,10.5463 15.8662,17.7383 26.7441,17.7383 10.3827,0 19.3769,-6.5064 25.8203,-16.3125 5.8483,6.3951 13.1443,10.3906 21.1778,10.3906 10.7733,0 20.1792,-7.1459 26.6367,-17.7129 6.4576,-10.567 10.2812,-24.7611 10.2812,-40.3652 0,-2.9258 -0.1334,-5.8032 -0.3945,-8.6153 a 4,4 0 0 0 -0.1719,-1.5879 c -0.083,-0.7492 -0.1744,-1.4931 -0.2754,-2.2324 5.1139,0.01 20.9296,0.039 29.1387,0.055 a 4.0004,4.0004 0 0 0 0.01,0 c 0.4536,0 0.8242,0.2789 0.9512,0.7246 6.6872,23.4337 42.3538,148.4137 44.5839,156.2285 l -205.0722,8.8809 c -1.3109,-4.8628 -36.1959,-134.2627 -44.4707,-164.9571 -0.082,-0.3026 -0.019,-0.6153 0.1738,-0.8671 0.1934,-0.2494 0.4789,-0.3913 0.793,-0.3907 z"
       id="path111852" /><path
       style="color:#000000;clip-rule:nonzero;fill:#005dc7;fill-rule:nonzero;stroke-width:1.20267;stroke-linecap:butt;stroke-linejoin:miter;-inkscape-stroke:none"
       d="m -5344.6016,2680.1289 43.9883,179.0039 c -1.2284,0.1617 -2.5063,0.4167 -3.8398,0.7793 l -36.8867,-146.9805 c -2.1927,-9.9987 -3.8569,-18.9426 -3.8946,-25.8828 -0.014,-2.6585 0.1919,-4.9466 0.6328,-6.9199 z"
       id="path111850" /><path
       style="color:#000000;clip-rule:nonzero;fill:#005dc7;fill-rule:nonzero;stroke-width:1.20267;stroke-linecap:butt;stroke-linejoin:miter;-inkscape-stroke:none"
       d="m -5337.9199,2673.8008 h 75.7597 c -0.7869,1.8433 -1.5084,3.7549 -2.1562,5.7344 -3.9281,-0.01 -41.7785,-0.077 -57.875,-0.1075 h -0.01 c -2.8003,-0.01 -5.4497,1.2993 -7.1543,3.5176 -1.7026,2.2198 -2.2789,5.1195 -1.5488,7.8242 8.4305,31.2718 45.3047,168.0508 45.3047,168.0508 a 4.0004,4.0004 0 0 0 4.0352,2.9551 l 213.3378,-9.2402 a 4.0004,4.0004 0 0 0 3.6739,-5.0938 c 0,0 -39.078,-136.9344 -45.9746,-161.1016 -1.0956,-3.8413 -4.6408,-6.5312 -8.6446,-6.5312 -8.6351,-0.016 -26.8437,-0.05 -30.6289,-0.057 -0.4817,-2.0384 -1.0341,-4.0235 -1.6543,-5.9493 h 42.3399 c 0.4626,0 0.8302,0.2754 0.959,0.7188 7.4111,25.5221 50.4274,173.6641 52.6914,181.4609 l -225.2481,15.4219 c -0.5503,-1.77 -1.2345,-3.3382 -1.8945,-4.6582 -1.5153,-3.031 -4.8371,-5.9509 -9.6719,-7.2031 z"
       id="path111848" /><path
       style="color:#000000;clip-rule:nonzero;fill:#ffffff;fill-rule:nonzero;stroke-width:1.20267;stroke-linecap:butt;stroke-linejoin:miter;-inkscape-stroke:none"
       d="m -5043.2031,2663.5117 c 1.1978,0.016 2.299,0.1086 3.2754,0.2852 7.8622,1.4219 16.8467,11.8863 23.1308,22.6484 5.4628,9.3553 8.8955,17.9887 9.7442,20.1973 -1.2888,8.1036 -4.4762,15.2785 -9.5411,21.8008 a 4,4 0 0 0 0.7051,5.6113 4,4 0 0 0 5.6133,-0.7051 c 5.3161,-6.8457 8.9499,-14.5543 10.6856,-23.0156 0.6877,0.1083 1.2369,0.2549 1.6113,0.416 0.8235,0.3543 0.9716,0.579 1.1719,1.0371 0.4005,0.9163 0.2986,3.8893 -1.3985,7.8652 -3.3941,7.9519 -11.8577,18.9415 -19.9043,26.8829 -3.7901,3.7401 -6.4303,4.7707 -7.7656,4.8769 -1.3353,0.1062 -1.98,-0.3023 -2.9707,-1.4433 -0.7636,-0.8796 -1.4023,-2.1496 -1.9023,-3.3809 3.2,-0.2274 5.416,-0.7774 5.416,-0.7774 a 4,4 0 0 0 2.9492,-4.8281 4,4 0 0 0 -4.8281,-2.9492 c 0,0 -5.4252,1.2072 -10.334,0.2969 -2.4544,-0.4552 -4.5889,-1.3804 -6.0645,-2.9239 -1.4756,-1.5435 -2.6033,-3.815 -2.5781,-8.1621 a 4.0004,4.0004 0 0 0 -3.832,-4.0195 c -10.6606,-0.4463 -16.7203,-2.5054 -18.9336,-4.209 -1.1067,-0.8518 -1.3032,-1.3785 -1.3848,-1.9062 -0.081,-0.5277 0.021,-1.3436 0.6719,-2.5293 1.3009,-2.3714 4.8095,-5.6536 9.3926,-8.2637 4.583,-2.6101 10.1923,-4.6543 15.4843,-5.416 a 4,4 0 0 0 3.3887,-4.5293 4,4 0 0 0 -4.5293,-3.3887 c -6.4669,0.9308 -12.8674,3.2873 -18.3027,6.3828 -3.0301,1.7257 -5.7571,3.6561 -8.0254,5.8067 -3.7733,-2.1041 -5.1257,-4.1299 -5.4902,-5.7324 -0.4362,-1.917 0.3314,-4.392 2.7109,-7.3282 4.7824,-5.9 15.5224,-11.9212 23.1055,-13.6504 a 4,4 0 0 0 3.0117,-4.789 4,4 0 0 0 -4.7891,-3.0098 c -8.5496,1.9496 -18.4602,7.0065 -25.166,13.7813 -1.0086,-0.7556 -1.6803,-1.4515 -2.0156,-1.9883 -0.562,-0.8996 -0.5911,-1.3411 -0.3477,-2.2383 0.4868,-1.7944 3.449,-5.1915 8.2031,-8.084 8.3198,-5.0618 21.4473,-8.7299 29.8321,-8.6211 z"
       id="path111846" /><path
       style="color:#000000;clip-rule:nonzero;fill:#ffffff;fill-rule:nonzero;stroke-width:1.20267;stroke-linecap:butt;stroke-linejoin:miter;-inkscape-stroke:none"
       d="m -5231.3887,2656.1895 c 6.6914,0 13.1247,4.0449 18.4239,11.6269 3.8054,5.444 6.8532,12.6364 8.6836,20.8731 -3.9756,-0.4985 -7.9197,-0.7496 -11.8301,-0.7559 -15.1021,-0.024 -29.7139,3.5026 -43.8242,9.623 1.1185,-10.7538 4.2652,-20.3165 8.6289,-27.457 5.5017,-9.0029 12.5828,-13.9101 19.9179,-13.9101 z"
       id="path111844" /><path
       style="color:#000000;clip-rule:nonzero;fill:#ffffff;fill-rule:nonzero;stroke-width:1.20267;stroke-linecap:butt;stroke-linejoin:miter;-inkscape-stroke:none"
       d="m -5184.3906,2650.2695 c 7.4403,0 14.5364,4.9514 20.0254,13.9336 3.6823,6.0257 6.4929,13.7764 7.9492,22.5098 -1.9357,-0.1392 -3.9069,-0.2133 -5.916,-0.2149 -10.2082,-0.01 -21.3513,1.7241 -33.2715,4.7715 -1.6489,-9.9196 -4.9187,-18.8253 -9.4453,-25.9902 5.5172,-9.603 12.9283,-15.0098 20.6582,-15.0098 z"
       id="path111842" /><path
       style="color:#000000;clip-rule:nonzero;fill:#ffffff;fill-rule:nonzero;stroke-width:1.20267;stroke-linecap:butt;stroke-linejoin:miter;-inkscape-stroke:none"
       d="m -5046.3574,2616.8516 c 0.1722,0 0.295,0.016 0.3594,0.037 0.2574,0.084 0.5317,-0.048 0.9824,1.959 0.4507,2.007 0.5174,5.8571 -0.4629,11.6738 -1.4402,8.5425 0.025,17.1403 2.5996,24.9336 -0.051,0 -0.099,-0.01 -0.1504,-0.01 -7.3595,-0.2828 -15.8081,1.5963 -23.5508,4.6543 -1.4965,-8.7658 -0.015,-17.2177 2.5821,-24.1797 3.037,-8.1417 8.1299,-14.3573 9.6816,-15.4492 1.6992,-1.1957 3.6262,-2.3514 5.2539,-3.0078 1.2208,-0.4923 2.1885,-0.6155 2.7051,-0.6113 z"
       id="path111840" /><path
       style="color:#000000;clip-rule:nonzero;fill:#000000;fill-rule:nonzero;stroke-width:1.20267;stroke-linecap:butt;stroke-linejoin:miter;-inkscape-stroke:none"
       d="m -5047.3672,2877.3086 c -17.7686,1.4423 -148.711,12.0744 -188.6621,15.3184 -3.567,0.2905 -6.6439,2.6919 -7.793,6.082 -1.1488,3.3907 -0.1662,7.1684 2.4922,9.5683 11.834,10.682 32.3504,29.1999 38.2207,34.4981 1.848,1.6689 4.3111,2.4973 6.791,2.2871 18.4938,-1.57 150.3835,-12.7655 191.6954,-16.2715 3.6434,-0.3102 6.7597,-2.8199 7.8378,-6.3144 1.0763,-3.4947 -0.085,-7.3251 -2.9238,-9.6328 -12.9839,-10.559 -35.2064,-28.6314 -41.2539,-33.5489 -1.7982,-1.4619 -4.093,-2.1722 -6.4004,-1.9863 z"
       id="path111872" /><path
       style="color:#000000;clip-rule:nonzero;fill:#000000;fill-rule:nonzero;stroke-width:1.20267;stroke-linecap:butt;stroke-linejoin:miter;-inkscape-stroke:none"
       d="m -5156.8965,2874.1094 -99.5605,8.2031 a 4,4 0 0 0 -3.6582,4.3145 4,4 0 0 0 4.3144,3.6582 l 99.5606,-8.2032 a 4,4 0 0 0 3.6582,-4.3144 4,4 0 0 0 -4.3145,-3.6582 z"
       id="path111870" /><path
       style="color:#000000;clip-rule:nonzero;fill:#000000;fill-rule:nonzero;stroke-width:1.20267;stroke-linecap:butt;stroke-linejoin:miter;-inkscape-stroke:none"
       d="m -5231.6953,2819.8691 a 4,4 0 0 0 -3.6035,2.6016 4,4 0 0 0 2.3535,5.1445 c 23.5222,8.7613 47.1692,10.0114 70.334,2.3106 a 4,4 0 0 0 2.5351,-5.0586 4,4 0 0 0 -5.0586,-2.5332 c -21.391,7.1112 -42.8897,6.0278 -65.0195,-2.2149 a 4,4 0 0 0 -1.541,-0.25 z"
       id="path111864" /><path
       style="color:#000000;clip-rule:nonzero;fill:#000000;fill-rule:nonzero;stroke-width:1.20267;stroke-linecap:butt;stroke-linejoin:miter;-inkscape-stroke:none"
       d="m -5132.8984,2747.4531 a 4,4 0 0 0 -4.1368,2.7871 4,4 0 0 0 1.8848,4.6914 c -5.1013,3.812 -10.2524,7.163 -15.4551,10.0469 a 4.0004,4.0004 0 0 0 -0.1133,0.035 c -31.9852,17.6096 -65.9633,18.3053 -101.9316,7.5781 -0.496,-0.1483 -0.9915,-0.2946 -1.4883,-0.4473 -0.809,-0.2479 -1.6186,-0.5043 -2.4297,-0.7636 -0.6533,-0.2094 -1.3082,-0.4221 -1.9628,-0.6387 -0.7331,-0.2422 -1.4665,-0.487 -2.2012,-0.7383 -0.4264,-0.146 -0.8543,-0.2982 -1.2813,-0.4473 -1.0643,-0.3711 -2.1353,-0.782 -3.2031,-1.1718 0.4329,-0.6212 0.8963,-1.1805 1.3691,-1.6856 2.1403,-2.2862 4.2286,-3.1445 4.2286,-3.1445 a 4,4 0 0 0 2.1757,-5.2207 4,4 0 0 0 -5.2226,-2.1758 c 0,0 -3.6978,1.5237 -7.0215,5.0742 -1.8057,1.929 -3.5568,4.5746 -4.6621,7.8789 a 4,4 0 0 0 -0.07,0.096 4,4 0 0 0 -0.018,0.168 c -0.8715,2.7186 -1.3041,5.873 -0.9727,9.4355 a 4,4 0 0 0 4.3536,3.6133 4,4 0 0 0 0.9433,-0.205 c 6.4877,11.9626 16.9425,21.2577 28.9961,27.8417 15.3486,8.384 33.342,12.5381 49.9082,12.4864 16.5662,-0.052 31.8678,-4.2109 41.5039,-13.625 9.0287,-8.8207 12.0883,-22.4257 5.9375,-38.709 5.4887,-3.2011 10.9096,-6.8801 16.2539,-11.0606 2.0027,2.1247 3.1312,5.0855 3.4844,9.4434 a 4,4 0 0 0 4.3105,3.6641 4,4 0 0 0 3.6622,-4.3106 c -0.5868,-7.2394 -3.803,-12.8453 -8.5977,-16.5312 a 4,4 0 0 0 -1.293,-0.9239 c -1.8434,-1.2186 -3.8849,-2.1802 -6.0722,-2.8691 a 4,4 0 0 0 -0.8789,-0.1719 z"
       id="path111860" /><path
       style="color:#000000;clip-rule:nonzero;fill:#ff9cae;fill-rule:nonzero;stroke-width:1.20267;stroke-linecap:butt;stroke-linejoin:miter;-inkscape-stroke:none"
       d="m -5200.3965,2791.0215 c 13.3546,0 21.2208,7.3715 14.5567,23.332 -1.7679,0.1213 -3.5668,0.1877 -5.3946,0.1934 -14.9352,0.046 -31.4657,-3.7349 -45.3222,-11.127 12.523,-8.067 25.9377,-12.3951 36.1601,-12.3984 z"
       id="path111862" /><path
       style="color:#000000;clip-rule:nonzero;fill:#000000;fill-rule:nonzero;stroke-width:1.20267;stroke-linecap:butt;stroke-linejoin:miter;-inkscape-stroke:none"
       d="m -5263.8652,2743.6113 a 4,4 0 0 0 -1.252,0.041 c -9.2873,1.7828 -16.5141,7.1327 -21.0078,15.002 -4.4937,7.8692 -6.5114,18.0524 -6.7617,30.2266 a 4,4 0 0 0 3.9179,4.082 4,4 0 0 0 4.0821,-3.918 c 0.2336,-11.3608 2.2007,-20.2803 5.709,-26.4238 3.5082,-6.1435 8.2997,-9.7161 15.5683,-11.1113 a 4,4 0 0 0 3.1758,-4.6836 4,4 0 0 0 -3.4316,-3.2149 z"
       id="path111858" /><path
       style="color:#000000;clip-rule:nonzero;fill:#000000;fill-rule:nonzero;stroke-width:1.20267;stroke-linecap:butt;stroke-linejoin:miter;-inkscape-stroke:none"
       d="m -5051.7441,2934.7363 c -0.1814,-8e-4 -0.3629,0.01 -0.545,0.027 l -0.014,-0.014 c -5.0162,0.5302 -49.5835,5.2395 -60.1602,6.3574 -1.9508,0.2085 -3.6236,1.5644 -4.2285,3.4336 a 4.0004,4.0004 0 0 0 0,0.01 c -0.6027,1.8729 -0.04,3.947 1.4297,5.2597 4.6731,4.174 17.6106,15.7327 19.8828,17.7618 1.0834,0.9685 2.548,1.4222 3.998,1.2265 4.9001,-0.648 47.6255,-6.3005 57.6036,-7.6211 1.8997,-0.2486 3.5126,-1.5876 4.1054,-3.4101 0.5921,-1.8237 0.076,-3.8457 -1.3066,-5.1641 -4.1043,-3.9043 -15.2668,-14.52 -17.3418,-16.4941 -0.9226,-0.8749 -2.1544,-1.367 -3.4238,-1.3731 z"
       id="path111894" /><path
       style="color:#000000;clip-rule:nonzero;fill:#ffb900;fill-rule:nonzero;stroke-width:1.20267;stroke-linecap:butt;stroke-linejoin:miter;-inkscape-stroke:none"
       d="m -5225.3809,2899.791 38.2286,36.4668 c -1.5201,0.1291 -8.8941,0.7553 -9.8438,0.836 -0.2792,0.024 -0.5462,-0.068 -0.7519,-0.254 -5.8698,-5.2978 -26.3869,-23.816 -38.2208,-34.498 -0.3035,-0.274 -0.4086,-0.6752 -0.2773,-1.0625 0.1314,-0.3881 0.4559,-0.6418 0.8652,-0.6758 2.1176,-0.1719 7.4015,-0.6015 10,-0.8125 z"
       id="path111892" /><path
       style="color:#000000;clip-rule:nonzero;fill:#ffb900;fill-rule:nonzero;stroke-width:1.20267;stroke-linecap:butt;stroke-linejoin:miter;-inkscape-stroke:none"
       d="m -5202.416,2897.9258 37.7773,36.4219 c -3.1555,0.2678 -9.3675,0.7954 -11.8691,1.0078 l -38.1934,-36.4317 c 3.7408,-0.3037 8.0189,-0.6516 12.2852,-0.998 z"
       id="path111890" /><path
       style="color:#000000;clip-rule:nonzero;fill:#ffb900;fill-rule:nonzero;stroke-width:1.20267;stroke-linecap:butt;stroke-linejoin:miter;-inkscape-stroke:none"
       d="m -5176.7637,2895.8438 37.1328,36.3808 c -5.1202,0.4346 -9.9725,0.8476 -14.414,1.2246 l -37.7383,-36.3867 c 5.6606,-0.4596 8.9066,-0.7224 15.0195,-1.2187 z"
       id="path111888" /><path
       style="color:#000000;clip-rule:nonzero;fill:#ffb900;fill-rule:nonzero;stroke-width:1.20267;stroke-linecap:butt;stroke-linejoin:miter;-inkscape-stroke:none"
       d="m -5151.6895,2893.8086 36.2481,36.3633 c -5.5665,0.4725 -8.4481,0.7169 -13.6699,1.1601 l -37.0957,-36.3457 c 6.0967,-0.495 8.3228,-0.6747 14.5175,-1.1777 z"
       id="path111886" /><path
       style="color:#000000;clip-rule:nonzero;fill:#ffb900;fill-rule:nonzero;stroke-width:1.20267;stroke-linecap:butt;stroke-linejoin:miter;-inkscape-stroke:none"
       d="m -5132.1113,2892.2188 36.4531,36.2753 c -3.9767,0.3376 -5.4409,0.4617 -9.3672,0.795 l -36.2129,-36.3301 c 3.8665,-0.3139 5.3345,-0.4323 9.127,-0.7402 z"
       id="path111884" /><path
       style="color:#000000;clip-rule:nonzero;fill:#ffb900;fill-rule:nonzero;stroke-width:1.20267;stroke-linecap:butt;stroke-linejoin:miter;-inkscape-stroke:none"
       d="m -5110.1523,2890.4355 36.8691,36.1583 c -4.9701,0.4218 -6.8617,0.582 -11.9238,1.0117 l -36.42,-36.2383 c 4.5893,-0.3726 7.1689,-0.5821 11.4747,-0.9317 z"
       id="path111882" /><path
       style="color:#000000;clip-rule:nonzero;fill:#ffb900;fill-rule:nonzero;stroke-width:1.20267;stroke-linecap:butt;stroke-linejoin:miter;-inkscape-stroke:none"
       d="m -5085.6562,2888.4473 37.2617,36.0332 c -5.3774,0.4564 -8.577,0.7289 -14.3711,1.2207 l -36.834,-36.1211 c 4.8167,-0.3911 9.8202,-0.7981 13.9434,-1.1328 z"
       id="path111878" /><path
       style="color:#000000;clip-rule:nonzero;fill:#ffb900;fill-rule:nonzero;stroke-width:1.20267;stroke-linecap:butt;stroke-linejoin:miter;-inkscape-stroke:none"
       d="m -5063.1953,2886.623 37.6933,35.9141 c -3.7347,0.317 -8.0636,0.6841 -12.3144,1.0449 l -37.2227,-35.998 c 2.9597,-0.2403 9.5851,-0.7776 11.8438,-0.961 z"
       id="path111876" /><path
       style="color:#000000;clip-rule:nonzero;fill:#ffb900;fill-rule:nonzero;stroke-width:1.20267;stroke-linecap:butt;stroke-linejoin:miter;-inkscape-stroke:none"
       d="m -5046.7168,2885.2812 c 0.2593,-0.021 0.5102,0.057 0.7109,0.2208 6.0465,4.9164 28.27,22.9898 41.2539,33.5488 0.3245,0.2637 0.4469,0.6676 0.3243,1.0683 -0.1239,0.4016 -0.4525,0.6674 -0.8731,0.7032 -2.0583,0.1746 -7.068,0.5998 -9.5508,0.8105 l -37.6562,-35.8769 c 0.7529,-0.061 5.2475,-0.4265 5.793,-0.4707 z"
       id="path111874" /><path
       style="color:#000000;clip-rule:nonzero;fill:#ffb900;fill-rule:nonzero;stroke-width:1.20267;stroke-linecap:butt;stroke-linejoin:miter;-inkscape-stroke:none"
       d="m -5052.8359,2942.8516 c 2.0913,1.9894 7.2381,6.884 11.789,11.2129 -14.0935,1.8648 -44.2739,5.8588 -50.0371,6.621 -2.3074,-2.0606 -8.4944,-7.5871 -13.8066,-12.332 14.937,-1.5788 46.1829,-4.8813 52.0547,-5.5019 z"
       id="path111898" /><path
       style="color:#000000;clip-rule:nonzero;fill:#ff9cae;fill-rule:nonzero;stroke-width:1.20267;stroke-linecap:butt;stroke-linejoin:miter;-inkscape-stroke:none"
       d="m -5053.8418,2941.8945 0.01,0.01 h -0.01 z"
       id="path111896" /></g><path
     style="color:#000000;clip-rule:evenodd;fill:#000000;fill-rule:evenodd;stroke-width:3.77953;stroke-linecap:round;stroke-linejoin:round;stroke-miterlimit:1.5;-inkscape-stroke:none"
     d="m 4608.1985,2135.0938 -201.304,15.096 a 4.000006,4.000006 0 0 0 -3.6907,4.2888 4.000006,4.000006 0 0 0 4.2886,3.691 l 201.3116,-15.1034 a 4.000006,4.000006 0 0 0 3.6836,-4.2889 4.000006,4.000006 0 0 0 -4.2891,-3.6835 z"
     id="path40490-3-7" /><path
     style="color:#000000;clip-rule:evenodd;fill:#000000;fill-rule:evenodd;stroke-width:3.77953;stroke-linecap:round;stroke-linejoin:round;stroke-miterlimit:1.5;-inkscape-stroke:none"
     d="m 4626.262,2149.8945 -201.304,15.1033 a 4.000006,4.000006 0 0 0 -3.6907,4.2815 4.000006,4.000006 0 0 0 4.2886,3.691 l 201.3116,-15.096 a 4.000006,4.000006 0 0 0 3.6836,-4.2889 4.000006,4.000006 0 0 0 -4.2891,-3.6909 z"
     id="path40496-5" /></g></svg>
