<?xml version="1.0" encoding="UTF-8" standalone="no"?>
<svg
   width="4568.1357"
   height="5770.521"
   viewBox="0 0 4568.1358 5770.521"
   version="1.1"
   xml:space="preserve"
   style="clip-rule:evenodd;fill-rule:evenodd;stroke-linecap:round;stroke-linejoin:round;stroke-miterlimit:1.5"
   id="svg2157"
   xmlns="http://www.w3.org/2000/svg"
   xmlns:svg="http://www.w3.org/2000/svg"><defs
   id="defs2161" />
    
    
<g
   id="fullcolor-retro-dudes-lock"
   transform="matrix(9.9999994,0,0,9.9999994,34496.077,-32186.735)"><path
     id="path156724"
     style="color:#000000;fill:#000000;-inkscape-stroke:none"
     d="m -3047.9902,3263.8828 a 4.0004,4.0004 0 0 0 -3.4551,1.961 l -9.4688,15.9804 a 4.0004,4.0004 0 0 0 -0.5586,2.0391 v 12.3906 a 4.0004,4.0004 0 0 0 0.6348,2.1621 l 3.125,4.8594 -2.9961,4.1269 a 4.0004,4.0004 0 0 0 -0.7637,2.3516 v 9.0899 a 4.0004,4.0004 0 0 0 1.1485,2.8046 l 1.8437,1.875 -1.8437,1.875 a 4.0004,4.0004 0 0 0 -1.1485,2.8047 v 9.3594 a 4.0004,4.0004 0 0 0 0.8125,2.418 l 2.7247,3.5918 -2.6661,3.3476 a 4.0004,4.0004 0 0 0 -0.1543,4.7793 l 2.9414,4.2227 -2.8437,3.7402 a 4.0004,4.0004 0 0 0 -0.8145,2.4219 v 66.5215 c -0.8628,0.4305 -1.6621,0.9925 -2.3554,1.6855 -1.4972,1.4874 -2.4082,3.4507 -2.6016,5.5313 -0.9516,-0.1277 -1.9031,-0.1601 -2.8379,-0.098 -3.7007,0.2484 -7.0746,1.7699 -10.084,3.8106 -6.0188,4.0812 -10.8378,10.3357 -13.8672,15.9062 -3.3011,6.0773 -4.1231,13.3754 -4.3457,19.2656 -0.1032,2.7309 -0.043,5.1235 0.045,6.9707 -0.554,0.2369 -1.0828,0.5227 -1.5782,0.8594 -3.835,2.6065 -5.6187,7.8521 -3.7832,12.7012 0.1984,0.5242 0.4341,1.021 0.6914,1.5058 -7.6952,8.4865 -15.6413,12.5749 -24.0878,13.7891 -8.6373,1.2416 -18.027,-0.6201 -28.0489,-4.832 -6.1951,-28.0475 -11.968,-54.1931 -13.7441,-62.2305 -0.6987,-3.1612 -3.0604,-5.7109 -6.1465,-6.6602 a 4.0004,4.0004 0 0 0 -0.012,0 c -10.5285,-3.2024 -21.0377,-5.6596 -31.5254,-7.4628 -0.9793,-4.4871 -11.5578,-52.9486 -14.5469,-65.9024 -3.2741,-14.1937 -12.3396,-35.2757 -30.9199,-47.8613 -11.5851,-7.8479 -26.2949,-10.9504 -40.3184,-10.543 -14.0232,0.4073 -27.4378,4.2614 -36.6679,11.377 -19.3539,14.9152 -27.8626,43.2484 -25.9844,62.7715 0.9186,9.5542 4.6349,26.5152 8.1309,41.414 2.7676,11.7953 4.9322,20.3222 5.9082,24.1367 -9.9249,4.0385 -19.8161,8.7143 -29.668,14.0352 a 4.0004,4.0004 0 0 0 -0.016,0.01 c -3.467,1.8933 -5.3185,5.8749 -4.5098,9.748 l 8.873,42.5606 c -53.1731,27.0663 -62.6475,63.8348 -71.2421,98.6171 -1.4898,0.3501 -2.833,0.9212 -3.9981,1.7168 -2.3084,1.5762 -3.772,4.0673 -4.0332,6.6094 -0.2873,2.7964 0.8489,5.5247 2.8926,7.5156 -0.7944,2.2737 -1.8719,5.4656 -3.1524,9.7911 -2.1106,7.1301 -4.3304,15.7768 -4.5781,22.83 -0.222,6.3242 1.1366,14.8881 4.6582,22.2715 1.7608,3.6916 4.0859,7.1108 7.3223,9.5899 2.5234,1.933 5.6927,3.1938 9.1465,3.3496 0.8434,1.5269 1.8322,2.9942 3.0371,4.3105 2.2984,2.5108 5.854,4.5426 9.8535,4.0391 5.4179,-0.6822 10.0363,-2.7739 13.1387,-6.168 0.8274,0.3924 1.7257,0.699 2.705,0.8984 4.5447,0.925 10.1633,0.1322 14.3692,-3.8847 3.6144,-3.4521 5.577,-9.0398 4.9551,-16.4219 1.7208,-0.8859 3.1727,-2.2814 4.0996,-4.0312 2.1601,-4.0866 2.2642,-9.2161 2.08,-14.8497 -0.184,-5.6335 -0.6489,-11.0239 -3.3906,-15.1386 -2.5339,-3.795 -8.2149,-11.2886 -11.4062,-15.461 1.1799,-1.6279 1.8043,-3.637 1.6484,-5.6152 -0.2354,-2.987 -1.942,-5.5448 -4.6387,-7.3496 10.0438,-22.9229 21.0134,-43.319 36.8633,-53.0664 l 19.7598,94.7949 a 4,4 0 0 0 1.9707,2.5762 c 0.7754,1.9306 1.8701,3.462 2.9902,4.5683 1.6399,1.62 3.5329,2.7779 5.7871,3.8086 3.5194,1.6092 7.9503,2.8216 13.1739,3.7285 -0.091,1.8159 -0.1805,3.7676 -0.2754,5.9336 -0.3429,7.8248 -0.6525,17.4391 -0.9121,26.7891 -0.4559,16.4139 -0.7196,30.0481 -0.7871,33.6172 -0.8067,0.4367 -1.5396,0.9678 -2.1583,1.5957 -1.8237,1.8514 -2.679,4.2707 -2.7363,6.6074 -0.055,2.2359 0.7337,4.5602 2.1817,6.4317 -2.7402,6.0082 -8.1597,21.0004 -3.2422,37.7793 a 4.0004,4.0004 0 0 0 0.01,0.029 c 1.136,3.7687 4.6424,6.3821 8.584,6.3848 12.7882,0.02 56.4093,0.019 70.2813,0.019 4.4993,0 8.3716,-3.4107 8.9297,-7.8867 0.2506,-2.1087 0.4754,-4.7899 0.498,-7.7636 a 4,4 0 0 0 0.01,-0.043 4,4 0 0 0 -0.01,-0.1348 c 0.012,-2.5973 -0.127,-5.4083 -0.5586,-8.2793 -0.9379,-6.2353 -3.2423,-12.922 -8.7422,-17.4863 -6.319,-5.253 -13.7438,-8.1383 -21.6523,-7.9063 0.2861,-3.1921 -1.1206,-6.4676 -3.7012,-8.4218 0.2724,-3.3927 1.203,-15.0888 2.1758,-29.8321 0.8827,-13.3753 1.7181,-27.3125 1.7363,-36.3105 10.8398,-0.7979 22.4093,-2.1357 34.4297,-4.0918 3.0637,-0.4986 6.0752,-1.0315 9.0586,-1.582 -0.9799,11.1716 -1.6644,25.6166 -2.1621,39.0058 -0.5998,16.1398 -0.8459,28.306 -0.9238,32.3711 -1.4541,0.4648 -2.7493,1.1867 -3.795,2.1797 -1.9487,1.8504 -2.8375,4.4993 -2.6328,6.9414 0.1711,2.0418 1.0795,3.9539 2.502,5.4902 -1.3404,4.8101 -4.0463,16.0454 -3.9356,27.9629 a 4,4 0 0 0 0,0.016 4,4 0 0 0 0,0.016 c 0.028,2.8565 0.1996,5.7377 0.6172,8.5683 a 4.0004,4.0004 0 0 0 0.01,0.068 c 0.7126,4.3077 4.4967,7.5078 8.8594,7.5078 13.1581,0.03 54.2631,0.027 68.6211,0.027 2.4144,0 4.7193,-0.9709 6.4062,-2.6758 a 4.0004,4.0004 0 0 0 0.014,-0.018 c 1.6803,-1.716 2.6142,-4.0404 2.5801,-6.4453 -0.062,-3.894 -0.2603,-9.3948 -0.8789,-14.6133 -0.6186,-5.2175 -1.1745,-9.942 -3.9864,-13.6484 -3.5838,-4.7265 -7.5996,-8.1374 -12.3789,-9.9356 -4.7503,-1.7873 -9.9994,-1.9125 -15.8808,-0.9355 0.086,-0.6416 0.1057,-1.2836 0.043,-1.9082 -0.1995,-1.9814 -1.0946,-3.8269 -2.4765,-5.2891 0.9387,-6.1157 8.2094,-53.8097 9.9316,-76.6992 0.3015,-4.0109 0.2353,-7.7076 -0.168,-11.0938 11.0786,-3.9389 20.2876,-8.1249 26.793,-12.3945 3.6088,-2.3686 6.4171,-4.7203 8.4199,-7.3281 1.0014,-1.3038 1.8177,-2.6674 2.3926,-4.3867 0.3213,-0.9608 0.5445,-2.1157 0.625,-3.3711 a 4,4 0 0 0 0.9766,-3.541 c 0,0 -8.7483,-39.6131 -15.5215,-70.2793 15.0656,3.272 29.3655,4.4767 42.0644,1.1543 13.6459,-3.5703 25.1377,-12.7691 32.3692,-29.0762 0.195,0 0.3918,3e-4 0.584,-0.016 2.7873,-0.2255 5.2149,-1.4666 7.0839,-3.1914 1.869,-1.7248 3.2726,-3.9924 3.6329,-6.7012 0.068,-0.5092 0.086,-1.0351 0.057,-1.5664 5.3756,-1.2182 10.8144,-3.7654 15.1738,-9.0938 h 10.1797 c 2.3918,0 4.6831,-0.957 6.3672,-2.6465 1.68,-1.6847 2.6328,-3.9698 2.6328,-6.3535 v -4.6894 c 0.6528,-0.764 1.25,-1.5841 1.7813,-2.4571 2.9429,-4.8357 4.28,-11.0375 4.5722,-18.3418 0.2885,-7.2083 -0.2223,-13.3561 -3.1191,-18.3476 -0.8578,-1.478 -1.9484,-2.7803 -3.2324,-3.9043 v -9.2481 c 0,-2.3837 -0.9514,-4.6773 -2.6465,-6.3613 -0.6934,-0.693 -1.4911,-1.255 -2.3535,-1.6855 v -38.4317 a 4.0004,4.0004 0 0 0 -0.4512,-1.8437 l -5.4141,-10.4238 v -94.6036 a 4.0004,4.0004 0 0 0 -0.5449,-2.0156 l -8.9941,-15.4199 a 4.0004,4.0004 0 0 0 -3.4414,-1.9844 z m -239.4649,79.2617 c 5.9289,-0.077 10.5293,1.271 14.2578,3.6817 5.4233,3.5064 9.3723,9.6138 12.1289,18.3691 4.7813,15.1948 12.568,49.6466 15.0196,60.6406 -0.7745,0 -1.5501,-0.032 -2.3242,-0.025 -18.2829,0.1533 -36.483,2.4545 -54.5821,6.8575 -4.0496,-16.3617 -10.4305,-42.9406 -12.666,-56.5782 -1.6156,-9.8541 -0.3368,-17.0122 2.8672,-22.0312 3.204,-5.0191 8.4947,-8.3194 16.3477,-9.8887 3.2862,-0.6579 6.2562,-0.9866 8.9511,-1.0215 z" /><path
     style="color:#000000;fill:#ffffff;-inkscape-stroke:none"
     d="m -3312.4668,3783.5938 h 73.2148 c -0.075,1.0292 -0.1691,1.993 -0.2695,2.8398 -0.068,0.544 -0.4474,0.875 -0.9922,0.875 -13.872,0 -57.5098,-10e-5 -70.2695,-0.019 a 4.0004,4.0004 0 0 0 -0.01,0 c -0.4399,0 -0.7949,-0.2637 -0.9258,-0.6895 -0.2949,-1.0089 -0.5391,-2.0108 -0.748,-3.0058 z"
     id="path156792" /><path
     style="color:#000000;fill:#ffffff;-inkscape-stroke:none"
     d="m -3221.1172,3783.5137 h 70.8555 c 0.038,1.1331 0.063,2.2026 0.078,3.164 0,0.2707 -0.097,0.5205 -0.291,0.7227 -0.1923,0.1902 -0.449,0.2988 -0.709,0.2988 -14.36,0 -55.4994,0 -68.6133,-0.027 a 4.0004,4.0004 0 0 0 -0.01,0 c -0.5061,0 -0.8763,-0.3237 -0.961,-0.8106 -0.1599,-1.0956 -0.2674,-2.2164 -0.3496,-3.3476 z"
     id="path156790" /><path
     style="color:#000000;fill:#ffffff;-inkscape-stroke:none"
     d="m -3168.9297,3754.8105 c 2.5898,-0.044 4.7542,0.3093 6.6836,1.0352 3.0869,1.1614 5.8335,3.339 8.8223,7.2813 0.4427,0.5832 1.8522,4.9994 2.416,9.7558 0.1019,0.8599 0.1802,1.7476 0.2598,2.6309 h -70.4161 c 0.4285,-8.2289 2.106,-16.0881 3.2051,-20.4961 0.3313,0.025 0.6672,0.038 1.0078,0.035 1.7471,-0.013 7.9987,0.1715 14.6074,0.2696 4.9283,0.073 10.0798,0.1082 14.2286,-0.051 -0.3679,0.3937 -0.7331,0.7873 -1.0801,1.1797 -3.4437,3.8938 -5.6029,7.2656 -6.5899,9.5117 a 4,4 0 0 0 2.0528,5.2695 4,4 0 0 0 5.2715,-2.0527 c 0.072,-0.1638 2.3868,-4.1815 5.2578,-7.4277 2.8711,-3.2462 6.5773,-6.0016 9.1113,-6.4258 1.9015,-0.3199 3.6083,-0.4891 5.1621,-0.5157 z"
     id="path156788" /><path
     style="color:#000000;fill:#ffffff;-inkscape-stroke:none"
     d="m -3260.4902,3753.6621 c 5.3657,0.064 10.1881,2.1904 14.9941,6.1856 3.3335,2.7656 5.1719,7.3926 5.9434,12.5214 0.1608,1.0696 0.265,2.1501 0.3398,3.2247 h -74.1348 c -0.1395,-9.194 2.5879,-16.8727 4.2696,-20.7129 2.9703,0.2137 8.8465,0.1891 15.5586,0.1621 3.9754,-0.016 8.1045,-0.039 11.8574,-0.045 -0.7329,0.7824 -1.4406,1.5683 -2.1035,2.3321 -3.387,3.9026 -5.7129,7.4765 -5.7129,7.4765 a 4,4 0 0 0 1.168,5.5352 4,4 0 0 0 5.5351,-1.168 c 0,0 2.0588,-3.154 5.0508,-6.6015 2.9921,-3.4474 7.1055,-6.9469 9.5312,-7.7012 2.7132,-0.8406 5.2642,-1.2381 7.7032,-1.209 z"
     id="path156786" /><path
     style="color:#000000;fill:#ffffff;-inkscape-stroke:none"
     d="m -3217.3438,3744.3125 v 0 a 4.0004,4.0004 0 0 0 0.01,0 c 4.4032,-0.01 27.8186,0.4887 32.2246,0.7344 0.3979,0.022 0.7133,0.093 0.9629,0.1933 a 4,4 0 0 0 0.1426,0.072 c 0.6104,0.3062 0.7616,0.7879 0.7832,1.002 0.015,0.1543 0.036,0.1038 -0.049,0.1953 -0.085,0.091 -0.4553,0.4433 -1.7325,0.5605 a 4.0004,4.0004 0 0 0 -0.01,0 c -3.5772,0.3342 -10.683,0.3508 -17.2129,0.2539 -6.5299,-0.097 -12.4343,-0.2887 -14.7852,-0.2715 -0.6661,0.01 -1.1745,-0.077 -1.5683,-0.2089 a 4,4 0 0 0 -0.6641,-0.3477 c -0.492,-0.3748 -0.6159,-0.8459 -0.6387,-1.1172 -0.021,-0.2504 -0.017,-0.2975 0.168,-0.4727 0.1843,-0.1751 0.7627,-0.5913 2.3691,-0.5937 z"
     id="path156784" /><path
     style="color:#000000;fill:#ffffff;-inkscape-stroke:none"
     d="m -3289.9219,3743.1387 v 0 c 7.7462,0 15.8759,0.1182 18.9141,0.4395 0.8123,0.085 1.0916,0.7535 0.9941,1.5273 -0.097,0.7737 -0.1526,1.9673 -4.332,1.9141 -4.9825,-0.066 -12.4174,-0.01 -19.2207,0.02 -6.8022,0.027 -13.199,10e-5 -15.0703,-0.1484 -0.2386,-0.019 -0.435,-0.061 -0.6133,-0.1133 a 4,4 0 0 0 -0.025,-0.018 4,4 0 0 0 -0.2871,-0.098 c -0.686,-0.3408 -0.8009,-1.0084 -0.7812,-1.8067 0.013,-0.5371 0.199,-0.9473 0.4375,-1.1894 0.238,-0.2416 0.56,-0.517 1.7324,-0.4981 3.0259,0.054 10.5018,-0.031 18.248,-0.031 z"
     id="path156782" /><path
     style="color:#000000;fill:#000000;-inkscape-stroke:none"
     d="m -3284.9941,3647.1797 c 0.6145,-0.01 1.2402,0 1.875,0.039 5.0851,0.2837 7.5029,1.827 9.4472,4.7031 1.9444,2.8762 3.1671,7.5967 3.6934,13.7441 0.4511,5.2669 -0.4523,24.3674 -1.5723,41.3399 -0.8919,13.5166 -1.7028,23.835 -2.0644,28.373 -4.3366,-0.2109 -10.3086,-0.2383 -16.2969,-0.2383 h -0.01 c -6.0039,0 -11.8809,0.044 -15.4902,0.045 0.094,-4.8729 0.3363,-16.9431 0.7578,-32.121 0.259,-9.3263 0.5667,-18.9103 0.9063,-26.6583 0.3394,-7.747 0.8192,-14.1006 1.041,-15.2851 1.6421,-8.7537 8.4911,-13.8056 17.709,-13.9414 z"
     id="path156780" /><path
     style="color:#000000;fill:#000000;-inkscape-stroke:none"
     d="m -3189.6328,3636.9434 c 4.4739,0.1503 7.8231,1.9823 10.3945,6.0625 2.5714,4.0802 4.1464,10.6975 3.4531,19.9199 -1.5577,20.7045 -7.9966,63.7491 -9.5664,74.1035 -5.1644,-0.2484 -20.3104,-0.5772 -28.0625,-0.6738 0.091,-4.6626 0.3294,-16.0883 0.9024,-31.5039 0.7067,-19.0155 1.8955,-40.7578 3.4805,-50.1836 1.3234,-7.8595 4.9357,-12.0169 8.871,-14.5567 3.9332,-2.5385 8.4736,-3.233 10.5274,-3.1679 z"
     id="path156772" /><path
     style="color:#000000;fill:#ffffff;-inkscape-stroke:none"
     d="m -3434.4648,3628.6562 c 6.8391,0.6564 25.5302,1.8809 35.5566,2.1563 0.9869,0.026 1.9352,-0.041 2.8457,-0.1797 3.0205,3.9568 9.5089,12.5089 11.8008,15.9414 0.5637,0.8494 1.8886,6.0596 2.0488,10.961 0.1603,4.9015 -0.8368,10.2379 -1.1562,10.8457 -0.077,0.1422 -1.3908,1.0546 -2.1973,0.5703 -0.4036,-0.2424 -1.1455,-0.8955 -1.7031,-3.0293 -0.5576,-2.1339 -0.7972,-5.6524 -0.1035,-10.7598 a 4,4 0 0 0 -3.4258,-4.5019 4,4 0 0 0 -4.502,3.4238 c -0.7888,5.8076 -0.643,10.2848 0.291,13.8594 0.9341,3.5745 2.7911,6.3438 5.3243,7.8652 0.4279,0.257 0.8632,0.4643 1.3007,0.6484 0.639,5.8331 -0.8167,8.734 -2.4941,10.336 -1.9089,1.8231 -4.9147,2.305 -7.2481,1.83 -1.407,-0.2864 -3.8542,-3.1054 -5.4218,-6.664 -1.5677,-3.5587 -2.3223,-7.0293 -2.3223,-7.0293 a 4,4 0 0 0 -4.7461,-3.0781 4,4 0 0 0 -3.0781,4.7441 c 0,0 0.8666,4.144 2.8242,8.5879 0.7083,1.6078 1.5539,3.3622 2.6348,5.0078 -1.5482,1.9034 -4.0143,3.0603 -8.3282,3.6035 -1.0445,0.1315 -1.7287,-0.1663 -2.9531,-1.5039 -1.2244,-1.3376 -2.5044,-3.6505 -3.4883,-6.1152 -1.9677,-4.9295 -2.8554,-10.2168 -2.8554,-10.2168 a 4,4 0 0 0 -4.5918,-3.3047 4,4 0 0 0 -3.3047,4.5918 c 0,0 0.4859,2.9974 1.6094,6.8574 -0.1965,-0.132 -0.393,-0.2691 -0.5899,-0.4199 -1.8309,-1.4025 -3.5766,-3.769 -4.9668,-6.6836 -2.7803,-5.8292 -4.0508,-13.7611 -3.8828,-18.5469 0.1934,-5.5068 2.2229,-13.985 4.252,-20.8398 1.1038,-3.7291 2.1096,-6.7508 2.8711,-8.9571 z"
     id="path156770" /><path
     style="color:#000000;fill:#ffffff;-inkscape-stroke:none"
     d="m -3433.0977,3617.2969 c 0.2414,0 0.4977,5e-4 0.7696,0.014 h 0.01 c 7.0348,0.3434 22.8639,0.9394 31.2578,1.6406 4.9241,0.4144 5.7014,2.4444 5.7247,2.7403 0.012,0.1479 0.078,0.148 -0.2637,0.4257 -0.3416,0.2775 -1.2665,0.7466 -3.086,0.6993 -9.9885,-0.2745 -30.3054,-1.6241 -35.7832,-2.1895 a 4.0004,4.0004 0 0 0 -0.01,0 c -0.3532,-0.036 -0.6372,-0.097 -0.8926,-0.168 a 4,4 0 0 0 -0.3184,-0.1425 4,4 0 0 0 -0.1718,-0.027 c -0.9073,-0.4166 -0.9648,-1.0711 -0.9278,-1.4316 0.025,-0.2467 0.057,-0.4594 0.586,-0.8203 0.4623,-0.3157 1.4202,-0.7142 3.1093,-0.7383 z"
     id="path156768" /><path
     style="color:#000000;fill:#ff5312;-inkscape-stroke:none"
     d="m -3230.2793,3518.459 c 4.4018,0.1662 9.767,1.7839 16.3418,5.9922 15.4371,9.8807 19.597,19.5254 20.2383,21.9609 0.9543,3.6362 -0.024,7.5326 -1.9258,10.0859 -1.9013,2.5525 -4.1345,3.6101 -6.7012,2.9082 -3.3361,-0.9186 -6.1889,-3.091 -8.3554,-5.5117 -2.1666,-2.4207 -3.6178,-5.1609 -4.0235,-6.2441 a 4.0004,4.0004 0 0 0 -7.7304,1.748 c 0,0 0.3214,3.8321 0.041,8.0704 -0.1403,2.119 -0.4438,4.3122 -0.9278,5.9941 -0.4839,1.6819 -1.2066,2.7052 -1.4433,2.8906 -1.934,1.5171 -3.6534,1.6116 -5.4532,0.9375 -1.7997,-0.6741 -3.5787,-2.3493 -4.498,-4.7969 -2.366,-6.3009 -3.2148,-13.2558 -3.2148,-13.2558 a 4.0004,4.0004 0 0 0 -7.627,-1.166 c 0,0 -1.8867,4.215 -4.7324,8.5527 -2.8457,4.3376 -6.9814,8.181 -8.7676,8.4961 a 4.0004,4.0004 0 0 0 -0.01,0 c -2.9129,0.5174 -6.5317,-0.5441 -8.7773,-2.5918 -2.2455,-2.0477 -3.3894,-4.5706 -2.0996,-8.6016 1.2783,-3.9947 6.5646,-11.2807 12.293,-17.5312 5.7275,-6.2495 12.0374,-11.9066 14.6464,-13.7969 1.7202,-1.2456 3.7997,-2.4896 6.3223,-3.2891 a 4,4 0 0 0 1.6133,-0.4277 c 0.9325,-0.2046 1.9111,-0.355 2.959,-0.4121 v 0 c 0.5902,-0.032 1.1993,-0.037 1.8281,-0.014 z"
     id="path156766" /><path
     style="color:#000000;fill:#ffffff;-inkscape-stroke:none"
     d="m -3285.2832,3505.7793 c 0.7314,3.7501 1.8089,7.5691 3.3906,11.0234 4.533,-3.79 9.6487,-6.8487 15.8906,-8.4687 -4.4089,5.05 -7.7712,10.5696 -10.5312,16.3496 3.146,3.04 7.2459,4.959 12.5859,4.959 0.6012,0 1.1802,-0.037 1.75,-0.092 -0.4507,0.48 -0.901,0.9537 -1.3515,1.4453 -1.6533,1.804 -3.28,3.6476 -4.8262,5.5117 -15.1324,-3.3484 -27.2825,-9.1229 -35.4707,-18.3672 -2.4276,-2.7407 -4.5264,-5.8183 -6.2813,-9.2617 z"
     id="path156764" /><path
     style="color:#000000;fill:#005dc7;-inkscape-stroke:none"
     d="m -3097.1309,3503.043 c 1.8396,1.8652 3.9156,3.7591 6.0723,5.6328 5.1163,4.4448 10.6726,8.8318 13.4941,11.5019 0.074,0.07 0.151,0.1355 0.2266,0.2032 -6.3657,14.2629 -15.4383,21.1615 -26.9141,24.164 -8.8672,2.3201 -19.3522,2.0763 -30.8164,0.1914 -2.5972,-8.0919 -3.0898,-16.7842 -1.5312,-26.0683 3.8501,0.3695 7.6737,0.3292 11.459,-0.2149 9.9778,-1.4343 19.4844,-6.3996 28.0097,-15.4101 z"
     id="path156762" /><path
     style="color:#000000;fill:#000000;-inkscape-stroke:none"
     d="m -3241.668,3500.3379 c 1.0955,3.9116 1.4275,7.9229 1.0899,12.1035 -2.55,0.8932 -4.7531,2.0634 -6.5762,3.3164 1.4987,-4.557 2.0862,-9.7828 1.8652,-14.9687 z"
     id="path156760" /><path
     style="color:#000000;fill:#000000;-inkscape-stroke:none"
     d="m -3032.6348,3494.4746 c -0.1561,0.097 -0.3264,0.1641 -0.5097,0.1641 h -0.1016 c 0.2051,-0.052 0.4094,-0.1052 0.6113,-0.1641 z"
     id="path156758" /><path
     style="color:#000000;fill:#ffffff;-inkscape-stroke:none"
     d="m -3183.5625,3490.1895 c 0.3914,3.4049 0.3105,6.6508 -0.2227,9.7421 -1.5465,8.968 -6.8865,17.0835 -16.6328,24.5645 -2.6132,-2.224 -5.6404,-4.4989 -9.2031,-6.7793 -8.6249,-5.5204 -16.3565,-7.2139 -22.8242,-6.8789 v 0 c -0.013,7e-4 -0.026,0 -0.039,0 0.1137,-3.9598 -0.2935,-7.8868 -1.2657,-11.7304 l 19.3887,-3.4453 c 0.4305,2.499 1.0433,5.0611 1.9219,7.4297 4.466,-1.78 9.1974,-3.0302 14.4844,-3.1602 -4.108,2.9 -7.5997,6.2094 -10.5977,9.8594 1.956,2.08 4.4721,3.4097 7.7051,3.4297 9.5979,0.08 14.3759,-11.972 14.6016,-22.5567 z"
     id="path156756" /><path
     style="color:#000000;fill:#ffffff;-inkscape-stroke:none"
     d="m -3093.4805,3488.6914 c 0.028,0 0.061,0 0.09,0 a 4,4 0 0 0 0.5273,0.045 4,4 0 0 0 0.053,-0.01 c 0.6517,0.1162 1.4536,0.5051 2.5019,1.416 6.0001,5.2124 20.3468,18.3342 23.377,21.0898 0.5798,0.5272 0.5035,0.5805 0.4453,1.0176 -0.058,0.4371 -0.4419,1.243 -1.1289,1.877 -0.6869,0.6339 -1.5867,1.0377 -2.3028,1.0957 -0.2939,0.024 -0.5618,0.02 -0.8359,-0.047 a 4,4 0 0 0 -0.1387,-0.066 4,4 0 0 0 -0.1406,-0.025 c -0.31,-0.1265 -0.6399,-0.3439 -1.0352,-0.7168 -3.4025,-3.2196 -8.8384,-7.4665 -13.7441,-11.7285 -2.4532,-2.1313 -4.7567,-4.2505 -6.502,-6.1094 -1.7452,-1.8588 -2.8838,-3.5872 -3.0859,-4.1211 -0.6325,-1.671 -0.038,-2.6835 0.7988,-3.252 0.3138,-0.2132 0.6734,-0.4092 1.1211,-0.4648 z"
     id="path156754" /><path
     style="color:#000000;fill:#005dc7;-inkscape-stroke:none"
     d="m -3058.4707,3484.2656 c 1.6118,4.2496 4.1814,7.225 7.334,8.9239 1.2006,0.6469 2.4237,1.1118 3.6465,1.4492 h -9.9825 c -0.2601,0 -0.5132,-0.1025 -0.7031,-0.293 -0.1947,-0.1952 -0.2949,-0.4498 -0.2949,-0.7051 z"
     id="path156752" /><path
     style="color:#000000;fill:#ff5312;-inkscape-stroke:none"
     d="m -3316.0547,3478.7871 70.4922,13.9746 -67.668,8.4414 c -1.9713,-6.3389 -2.9708,-13.7336 -2.8242,-22.416 z"
     id="path156750" /><path
     style="color:#000000;fill:#ff5312;-inkscape-stroke:none"
     d="m -3191.0781,3469.0684 c 2.6318,4.6628 4.5716,9.0908 5.8496,13.2929 l -51.2695,9.1094 c -0.055,-0.1154 -0.1123,-0.2305 -0.168,-0.3457 z"
     id="path156748" /><path
     style="color:#000000;fill:#ffffff;-inkscape-stroke:none"
     d="m -3037.9785,3449.0684 c 0.3158,0 0.6373,0.02 0.9629,0.049 5.3767,0.4771 7.6084,1.9821 9.1875,4.7031 1.5792,2.721 2.3075,7.4523 2.0449,14.0137 -0.2587,6.4657 -1.5371,11.4176 -3.4141,14.5019 -0.5128,0.8427 -1.0455,1.5572 -1.6191,2.1621 a 4,4 0 0 0 -0.2793,0.2852 c -1.4691,1.4219 -3.2259,2.1511 -5.6426,2.3652 -4.0322,0.3554 -8.0759,0.3601 -10.6035,-1.0019 -2.0112,-1.0838 -3.7964,-2.9467 -4.5703,-7.7852 4.984,-0.3454 9.1627,-2.5261 11.5449,-6.0996 1.8422,-2.7636 1.4123,-5.8194 0.5606,-8.4961 -0.8517,-2.6767 -2.3191,-5.3741 -4.17,-8.1621 -0.7588,-1.143 -1.5976,-2.2974 -2.4765,-3.4512 2.2877,-1.7866 5.1029,-3.1272 8.4746,-3.0839 z"
     id="path156746" /><path
     style="color:#000000;fill:#ffffff;-inkscape-stroke:none"
     d="m -3068.0742,3443.6875 c 1.5099,0.016 2.8682,0.4873 4.4922,1.8867 4.8226,4.1607 9.7669,9.6747 12.9394,14.4531 1.5864,2.3896 2.7186,4.6164 3.211,6.1641 0.3581,1.1258 0.2762,1.6671 0.3027,1.7383 0.031,-0.033 0.086,-0.079 0.1035,-0.1055 -0.07,0.1046 -0.094,0.1322 -0.1035,0.1055 -0.618,0.6729 -3.7888,2.6536 -6.9922,2.4609 -1.7274,-0.1039 -3.5235,-0.5706 -5.2539,-1.9023 a 4,4 0 0 0 -0.9941,-0.8731 c -1.2806,-1.2709 -2.5099,-3.0867 -3.6289,-5.6777 a 4,4 0 0 0 -5.2579,-2.0859 4,4 0 0 0 -2.0859,5.2578 c 1.3161,3.047 2.9917,5.5163 4.8691,7.4746 v 21.0586 c 0,2.3837 0.9508,4.6688 2.6309,6.3535 1.6839,1.6883 3.9763,2.6445 6.3672,2.6445 h 1.6426 c -2.0608,0.9281 -4.2901,1.4178 -6.7422,1.7383 -3.8324,-3.4919 -16.5442,-15.1155 -22.4883,-20.2793 -1.385,-1.2034 -2.9093,-2.0609 -4.4668,-2.5918 -0.083,-1.6591 -0.1404,-3.9201 -0.043,-6.498 0.1994,-5.2791 1.1747,-11.6854 3.3809,-15.7481 2.4798,-4.5592 6.9156,-10.1121 11.3301,-13.1055 2.2075,-1.4968 4.3442,-2.3294 6.1289,-2.4492 0.2231,-0.015 0.4425,-0.022 0.6582,-0.019 z"
     id="path156744" /><path
     style="color:#000000;fill:#005dc7;-inkscape-stroke:none"
     d="m -3057.4727,3435.6523 h 24.3282 c 0.2601,0 0.5112,0.1045 0.7011,0.295 a 4.0004,4.0004 0 0 0 0.018,0.016 c 0.177,0.1755 0.2813,0.4161 0.2813,0.6894 v 5.2012 c -1.3164,-0.3344 -2.7037,-0.5754 -4.1621,-0.7051 -6.3695,-0.5675 -11.5445,1.9313 -15.3008,4.9043 -2.1554,-2.3196 -4.4377,-4.5426 -6.752,-6.539 -0.037,-0.032 -0.076,-0.057 -0.1133,-0.088 v -2.7735 c 0,-0.2733 0.1043,-0.5139 0.2813,-0.6894 a 4.0004,4.0004 0 0 0 0.016,-0.016 c 0.1899,-0.1905 0.443,-0.295 0.7031,-0.295 z"
     id="path156742" /><path
     style="color:#000000;fill:#005dc7;-inkscape-stroke:none"
     d="m -3248.3281,3433.748 c 23.7483,-0.185 47.6512,3.3776 71.7578,10.709 0.36,0.1108 0.6082,0.3814 0.6875,0.7403 0.309,1.3984 1.882,8.5168 2.3926,10.8281 a 4,4 0 0 0 -2.2364,-1.9707 4,4 0 0 0 -3.0566,0.1777 l -63.9375,30.9356 -76.2715,-15.1192 a 4,4 0 0 0 -0.1816,-0.037 l -19.7383,-3.9121 a 4,4 0 0 0 -4.7012,3.1465 4,4 0 0 0 3.1445,4.7012 l 16.4493,3.2617 c -0.5807,20.1332 4.5416,35.3508 14.1836,46.2363 8.9846,10.1435 21.5707,16.3533 36.2519,20.0547 -1.7387,2.6852 -3.1377,5.3665 -3.9785,7.9941 -2.1532,6.7291 0.1447,13.1364 4.3281,16.9512 4.182,3.8135 9.9763,5.547 15.5625,4.5567 6.7158,-1.1849 10.8096,-7.019 14.0684,-11.9864 0.01,-0.012 0.01,-0.02 0.018,-0.031 0.4089,1.4191 0.8283,2.8579 1.3789,4.3242 1.6797,4.4723 5.0254,7.9187 9.1797,9.4746 4.1534,1.5556 9.2146,0.9905 13.1953,-2.1309 2.3917,-1.8744 3.4651,-4.4367 4.1953,-6.9746 0.4629,-1.6087 0.5749,-3.2357 0.7754,-4.8652 2.7217,2.6278 6.0405,5.106 10.4082,6.3086 a 4.0004,4.0004 0 0 0 0.01,0 c 6.0397,1.6559 11.8687,-1.3226 15.2364,-5.8438 3.3677,-4.5211 4.8649,-10.7372 3.2461,-16.9003 -0.8212,-3.1186 -3.1727,-8.2971 -8.6329,-14.2891 10.3349,-8.2287 16.8108,-17.8807 18.6934,-28.7969 0.9088,-5.2694 0.7451,-10.7386 -0.4297,-16.3867 a 4,4 0 0 0 -0.01,-0.061 4,4 0 0 0 -0.01,-0.022 c -1.3012,-6.2057 -3.8395,-12.6299 -7.5215,-19.2422 l 8.5684,-4.1465 a 4,4 0 0 0 2.2363,-3.4707 c 7.6626,34.6862 29.838,135.092 33.709,152.6191 -0.7999,-0.3688 -1.6295,-0.7226 -2.5215,-1.0527 -5.8096,-2.1498 -13.6157,-3.5257 -23.0625,-4.2285 -18.8935,-1.4052 -44.2666,-0.022 -71.8008,4.459 -27.5342,4.4808 -52.0348,11.2137 -69.5078,18.5371 -8.7365,3.6618 -15.703,7.4432 -20.5312,11.3242 -1.1714,0.9415 -2.213,1.8809 -3.1368,2.8555 l -18.5214,-88.8594 a 4.0004,4.0004 0 0 0 -5.5821,-2.8203 c -22.0243,10.081 -34.4189,34.5977 -45.5722,60.2715 -0.2679,-0.033 -0.533,-0.069 -0.8067,-0.092 -7.8097,-0.6525 -20.2895,-1.153 -28.0254,-1.5 8.4869,-34.5657 16.8264,-67.0853 69.2344,-92.6582 a 4.0004,4.0004 0 0 0 2.1621,-4.4122 l -9.4883,-45.5097 c -0.093,-0.4469 0.097,-0.8652 0.5117,-1.0918 38.9427,-21.0296 78.0933,-31.7482 117.6739,-32.0567 z"
     id="path156740" /><path
     style="color:#000000;fill:#000000;-inkscape-stroke:none"
     d="m -3087.6719,3349.3574 a 4,4 0 0 0 -2.9199,0.9219 l -16.5254,13.8809 a 4,4 0 0 0 -0.4902,5.6347 4,4 0 0 0 5.6347,0.4903 l 16.5274,-13.879 a 4,4 0 0 0 0.4902,-5.6347 4,4 0 0 0 -2.7168,-1.4141 z"
     id="path156738" /><path
     style="color:#000000;fill:#000000;-inkscape-stroke:none"
     d="m -3021.4238,3340.9629 a 4,4 0 0 0 -2.8418,1.1367 4,4 0 0 0 -0.072,5.6563 l 17.4082,17.8496 a 4,4 0 0 0 5.6563,0.072 4,4 0 0 0 0.072,-5.6582 l -17.4082,-17.8496 a 4,4 0 0 0 -2.8144,-1.207 z"
     id="path156734" /><path
     style="color:#000000;fill:#00b1cd;-inkscape-stroke:none"
     d="m -3291.3086,3313.0391 c 12.659,-0.3677 25.8387,2.5558 35.5996,9.1679 16.0837,10.8944 24.6876,30.3708 27.6094,43.0371 2.7749,12.0251 11.9535,54.0292 13.8672,62.7911 -7.8746,-1.0729 -15.7369,-1.7684 -23.584,-2.0547 -1.6882,-7.6661 -10.1822,-45.9033 -15.6211,-63.1875 -3.0965,-9.8347 -7.9283,-17.8425 -15.416,-22.6836 -5.6157,-3.6308 -12.5169,-5.2806 -20.6211,-4.877 v 0 c -2.7013,0.1345 -5.5363,0.4961 -8.5019,1.0898 -9.3611,1.871 -16.9813,6.3142 -21.5234,13.4297 -4.5426,7.1159 -5.845,16.4852 -4.0176,27.6309 2.3627,14.414 8.7597,40.9245 12.8183,57.3007 -7.332,2.0315 -14.6467,4.4011 -21.9433,7.127 -1.1148,-4.3737 -3.0854,-12.1786 -5.6328,-23.0352 -3.4719,-14.796 -7.1527,-32.0058 -7.9551,-40.3515 -1.5659,-16.2768 6.7042,-43.1833 22.9043,-55.668 7.2959,-5.6244 19.3566,-9.3471 32.0156,-9.7148 z"
     id="path156732" /><path
     style="color:#000000;fill:#000000;-inkscape-stroke:none"
     d="m -3112.0371,3305.0527 a 4,4 0 0 0 -4,4 4,4 0 0 0 4,4 h 24.0195 a 4,4 0 0 0 4,-4 4,4 0 0 0 -4,-4 z"
     id="path156730" /><path
     style="color:#000000;fill:#000000;-inkscape-stroke:none"
     d="m -3021.4023,3294.0332 a 4,4 0 0 0 -4.0704,3.9277 4,4 0 0 0 3.9278,4.0723 l 24.6797,0.4395 a 4,4 0 0 0 4.0703,-3.9278 4,4 0 0 0 -3.9278,-4.0703 z"
     id="path156728" /><path
     style="color:#000000;fill:#00b1cd;-inkscape-stroke:none"
     d="m -3048.0312,3275.7754 5.0214,8.6094 v 94.498 a 4.0004,4.0004 0 0 0 0.4512,1.8438 l 5.4141,10.4238 v 36.5019 h -16.3282 v -64.2226 l 3.7891,-4.9863 a 4.0004,4.0004 0 0 0 0.098,-4.7071 l -2.9004,-4.1621 2.7461,-3.4492 a 4.0004,4.0004 0 0 0 0.059,-4.9102 l -3.7911,-4.998 v -6.375 l 3.4551,-3.5137 a 4.0004,4.0004 0 0 0 0,-5.6113 l -3.4551,-3.5117 v -6.1524 l 3.8399,-5.289 a 4.0004,4.0004 0 0 0 0.1289,-4.5137 l -3.9688,-6.1719 v -10.1191 z"
     id="path156726" /><path
     style="color:#000000;fill:#000000;-inkscape-stroke:none"
     d="m -3007.7402,3243.8086 a 4,4 0 0 0 -1.9414,0.7187 l -19.6114,13.8809 a 4,4 0 0 0 -0.955,5.5762 4,4 0 0 0 5.5761,0.9531 l 19.6114,-13.8789 a 4,4 0 0 0 0.955,-5.5762 4,4 0 0 0 -2.5918,-1.6328 4,4 0 0 0 -1.0429,-0.041 z"
     id="path156722" /><path
     style="color:#000000;fill:#000000;-inkscape-stroke:none"
     d="m -3096.2949,3241.8125 a 4,4 0 0 0 -2.8242,1.1816 4,4 0 0 0 0.019,5.6582 l 15.9746,15.8594 a 4,4 0 0 0 5.6582,-0.019 4,4 0 0 0 -0.021,-5.6582 l -15.9746,-15.8594 a 4,4 0 0 0 -2.832,-1.1621 z"
     id="path156720" /><path
     style="color:#000000;fill:#000000;-inkscape-stroke:none"
     d="m -3050.084,3218.6738 a 4,4 0 0 0 -4.0332,3.9649 l -0.2207,25.1191 a 4,4 0 0 0 3.9649,4.0352 4,4 0 0 0 4.0351,-3.9649 l 0.2188,-25.1191 a 4,4 0 0 0 -3.9649,-4.0352 z"
     id="path121972-6" /><path
     style="color:#000000;fill:#000000;-inkscape-stroke:none"
     d="m -3404.666,3646.334 a 4,4 0 0 0 -2.8438,1.1328 c -3.8429,3.7432 -5.1966,9.3133 -3.6191,14.5078 a 4,4 0 0 0 4.9902,2.666 4,4 0 0 0 2.6641,-4.9902 c -0.9127,-3.0055 -0.5442,-4.4144 1.5469,-6.4512 a 4,4 0 0 0 0.074,-5.6562 4,4 0 0 0 -2.8125,-1.209 z"
     id="path156778" /><path
     style="color:#000000;fill:#000000;-inkscape-stroke:none"
     d="m -3416.168,3645.6875 a 4.4200001,3.5284993 0 0 0 -0.8672,0 4.4200001,3.5284993 0 0 0 -2.9785,1.2812 c -4.7145,4.6189 -4.5239,10.4558 -1.957,15.2285 a 4.4200001,3.5284993 0 0 0 5.8047,1.8496 4.4200001,3.5284993 0 0 0 2.3183,-4.6328 c -1.8211,-3.3861 -1.964,-5.3885 0.6875,-7.9863 a 4.4200001,3.5284993 0 0 0 -0.6347,-4.9649 4.4200001,3.5284993 0 0 0 -2.3731,-0.7773 z"
     id="path156776" /><path
     style="color:#000000;fill:#000000;-inkscape-stroke:none"
     d="m -3429.9219,3645.6738 a 4.4200001,3.5284993 0 0 0 -0.8593,0.084 4.4200001,3.5284993 0 0 0 -2.7637,1.5567 c -3.521,4.4491 -3.2827,9.9753 -0.2481,15.0195 a 4.4200001,3.5284993 0 0 0 5.8985,1.6543 4.4200001,3.5284993 0 0 0 2.0703,-4.709 c -2.1714,-3.6093 -2.097,-5.8589 -0.2481,-8.1953 a 4.4200001,3.5284993 0 0 0 -1.375,-4.8672 4.4200001,3.5284993 0 0 0 -2.4746,-0.543 z"
     id="path156774" /></g></svg>
