<?xml version="1.0" encoding="UTF-8" standalone="no"?>
<svg
   width="4045.6313"
   height="4111.6924"
   viewBox="0 0 4045.6314 4111.6924"
   version="1.1"
   xml:space="preserve"
   style="clip-rule:evenodd;fill-rule:evenodd;stroke-linecap:round;stroke-linejoin:round;stroke-miterlimit:1.5"
   id="svg2157"
   xmlns="http://www.w3.org/2000/svg"
   xmlns:svg="http://www.w3.org/2000/svg"><defs
   id="defs2161" />
    
    
<g
   id="fullcolor-retro-dudes-printer"
   transform="matrix(9.9999994,0,0,9.9999994,33948.177,-20502.498)"><path
     id="ellipse3222"
     style="color:#000000;clip-rule:nonzero;fill:#000000;fill-rule:nonzero;stroke-linecap:butt;stroke-linejoin:miter;-inkscape-stroke:none"
     d="m -3361.8064,1751.778 c -0.6344,-0.057 -1.2752,-0.085 -1.9222,-0.083 -8.6085,0 -16.0868,5.1332 -21.7895,13.0138 -5.8997,-10.2041 -14.3347,-17.2255 -24.3096,-17.2255 -10.3983,0 -19.1316,7.6201 -25.0548,18.5326 -4.6041,8.4822 -7.7288,19.2081 -8.8965,31.1226 a 4,4 0 0 0 -0.041,0.4316 c -0.225,2.3989 -0.3778,4.8406 -0.4396,7.3264 l -42.0294,-5.2209 a 4,4 0 0 0 -0.063,2e-4 c -3.2133,-0.4318 -6.2052,-0.1981 -8.9355,0.8589 -5.4305,2.0948 -8.7465,7.1361 -10.2229,13.411 l -25.6863,-2.3653 a 4.0004,4.0004 0 0 0 -0.1455,0.048 4,4 0 0 0 -1.1758,0.053 4,4 0 0 0 -1.5596,0.8205 4.0004,4.0004 0 0 0 -0.1742,0.19 4,4 0 0 0 -0.7342,0.8018 l -46.1157,76.1431 a 4.0004,4.0004 0 0 0 0.4543,4.7544 l 18.3054,20.2408 c -6.7136,9.2136 -12.4087,20.3745 -15.4574,33.7478 -5.6067,24.5942 -2.8518,43.8028 1.4515,56.954 a 4.0004,4.0004 0 0 0 -4.0024,3.5805 c -0.7377,7.7369 0.5193,13.4471 3.5993,17.3484 2.2131,2.8032 5.2018,4.3128 8.213,5.0334 1.6515,20.663 12.4626,37.9775 18.705,48.1016 3.9973,6.4807 8.9077,11.7865 13.3399,15.6628 2.216,1.9382 4.3101,3.5169 6.1629,4.7168 1.8529,1.1999 3.3007,2.0325 5.0598,2.4939 4.5457,1.1908 9.4717,-0.9098 11.2344,-5.1148 1.7627,-4.2049 0.047,-9.4241 -4.4557,-13.4904 -1.3052,-1.179 -2.4715,-2.298 -3.57,-3.3875 3.6857,0.5429 7.3469,0.6987 10.6291,0.053 4.6742,-0.9212 8.7589,-2.8559 10.9126,-6.6602 1.4259,-2.5186 1.5695,-5.5096 0.7129,-8.4938 1.0935,-0.6276 2.0501,-1.4163 2.82,-2.3588 1.776,-2.1742 2.4009,-4.9087 2.2675,-7.4339 -0.2135,-4.0421 -2.0422,-7.886 -4.8958,-10.9908 0.4795,-2.0727 0.1421,-4.123 -0.4819,-5.9984 -1.5439,-4.6408 -5.0287,-9.0248 -9.3968,-12.3432 -3.0894,-2.3481 -9.0601,-6.2958 -14.2109,-10.5274 -2.5755,-2.1158 -4.9112,-4.2934 -6.4056,-6.1196 -1.4944,-1.8263 -1.7889,-3.2405 -1.8032,-3.083 0.4721,-5.1705 -0.2038,-9.2292 -1.9088,-12.3439 -1.705,-3.1148 -4.4501,-5.0261 -7.0131,-5.9103 -1.2814,-0.4423 -2.5392,-0.6805 -3.7052,-0.7895 -0.7013,-0.066 -1.357,-0.077 -1.9769,-0.065 -4.4732,-21.8896 -1.0049,-36.4764 6.6427,-47.699 0.01,-0.01 0.012,-0.016 0.018,-0.024 l 52.2406,57.7637 a 4.0004,4.0004 0 0 0 0.3635,0.2293 4,4 0 0 0 0.9458,0.5963 4.0004,4.0004 0 0 0 0.9089,0.334 4,4 0 0 0 0.3852,0.1411 l 13.2243,1.2077 c 3.1261,37.3459 -6.8545,64.7285 -19.8159,90.7536 -1.5238,0.6866 -3.8814,1.9249 -6.0511,3.9799 -1.7178,1.6271 -3.4229,3.924 -3.7852,6.9796 -0.2807,2.3701 0.4234,4.9005 1.9351,7.2666 -0.9155,2.3823 -2.7568,7.4191 -4.0535,14.2981 -0.8317,4.412 -1.3247,9.1537 -0.7153,13.6752 0.3622,2.6882 1.1963,5.3974 2.6809,7.7329 a 4,4 0 0 0 0.1532,0.2552 c 0.9903,1.491 2.255,2.8198 3.8654,3.8676 2.6931,1.749 6.04,2.7204 10.1354,3.634 a 4.0004,4.0004 0 0 0 0.01,9e-4 c 0.068,0.016 0.1673,0.023 0.2361,0.035 a 4,4 0 0 0 0.017,0.011 4,4 0 0 0 0.021,-0.01 c 17.6788,3.8421 48.7487,4.495 60.6413,4.6455 4.8606,0.064 8.9614,-3.8596 9.1061,-8.7197 a 4.0004,4.0004 0 0 0 0,10e-5 c 0.1268,-5.3041 -0.3409,-13.6373 -4.8882,-20.8022 -6.8861,-10.8617 -19.4587,-18.6474 -31.6258,-19.5156 a 4.0004,4.0004 0 0 0 -0.01,-9e-4 c -2.8977,-0.2013 -6.0371,0.5778 -9.2313,1.7792 -0.4478,-2.3954 -0.6789,-4.9837 -0.2021,-7.8164 14.7292,-30.7315 23.7462,-63.4081 20.5785,-99.3822 l 37.8503,3.4566 c 1.9545,2.1711 3.9143,4.3178 5.8387,6.4424 12.4141,13.7062 23.3601,27.0526 22.4309,51.9074 -0.1453,3.7548 2.1164,7.0986 5.4083,8.5566 -2.0088,8.786 -5.2367,16.1594 -9.6583,22.198 -1.7353,0.3401 -4.4726,1.0473 -7.1702,2.6401 -2.126,1.2553 -4.4062,3.2335 -5.3223,6.3293 -0.7255,2.4523 -0.3232,5.2182 0.9772,7.9617 -1.236,2.2857 -3.9341,7.4786 -6.1999,14.8454 -1.4256,4.6353 -2.5081,9.7253 -2.3655,14.7561 0.1426,5.0303 1.6319,10.2194 5.6045,13.9896 2.6031,2.4719 6.0567,3.8174 10.199,4.9774 4.1424,1.1601 9.0081,2.0033 14.3122,2.6524 l 0.1829,0.017 a 4,4 0 0 0 0.01,9e-4 4,4 0 0 0 0.018,-3e-4 c 21.4476,2.5805 50.0412,1.8879 60.671,1.5278 a 4.0004,4.0004 0 0 0 0.017,0 c 4.4496,-0.1696 8.1374,-3.6327 8.6037,-8.0498 a 4.0004,4.0004 0 0 0 9e-4,-0.01 4.0004,4.0004 0 0 0 0,-0.012 4.0004,4.0004 0 0 0 9e-4,-0.01 4.0004,4.0004 0 0 0 9e-4,-0.01 4.0004,4.0004 0 0 0 0,-0.01 c 0.741,-7.6418 0.7328,-23.2992 -10.3193,-35.682 -5.0212,-5.6259 -12.6534,-8.7498 -20.5502,-9.555 -7.2439,-0.7388 -14.8012,0.6243 -20.9787,4.5662 -0.9235,-4.269 -1.5535,-8.8493 -0.8365,-12.854 6.0513,-9.0828 9.2636,-18.1623 9.6448,-26.9886 19.3032,2.0384 36.5308,3.8561 60.5137,6.3871 2.2535,6.3071 8.4128,10.2954 14.9964,11.1385 3.8985,0.4981 7.4288,-0.9022 10.7025,-2.6411 2.7221,-1.446 5.2805,-3.2446 7.5125,-4.9918 3.3364,0.3519 11.1567,1.1777 13.2422,1.3976 a 4.0004,4.0004 0 0 0 0.012,0 c 4.4938,0.4636 8.7119,-2.5471 9.7052,-6.9685 1.3624,-6.0969 1.8743,-11.7337 1.7442,-17.0173 4.7971,-4.8553 9.7402,-9.9703 12.6249,-13.2761 1.3775,-0.1772 3.2295,-0.5644 5.3846,-1.7284 1.7925,-0.9681 3.709,-2.5514 4.8899,-4.9449 1.1809,-2.3935 1.4881,-5.4207 0.7763,-8.7155 -0.2262,-1.0462 -0.516,-2.0717 -0.8321,-3.0865 23.1663,-25.0011 24.3127,-61.0312 8.7803,-91.6379 -15.7398,-31.0156 -48.5855,-56.9165 -93.0754,-61.8713 l -44.2167,-45.7635 c 1.56,-6.7684 2.4057,-14.1366 2.4057,-21.8542 0,-9.0195 -1.155,-17.5621 -3.2566,-25.225 a 4,4 0 0 0 -0.22,-0.7692 c -1.5381,-5.4002 -3.5447,-10.3552 -5.963,-14.7029 -5.1957,-9.3409 -12.5422,-16.2009 -21.2317,-17.7701 -0.6207,-0.112 -1.2487,-0.1974 -1.8831,-0.2543 z m 126.0031,199.6614 c 9.8667,10.7763 12.0993,27.2448 6.3026,50.5012 -0.012,-8e-4 -0.023,7e-4 -0.035,7e-4 -1.1033,-0.069 -2.2064,0.029 -3.2941,0.313 -4.3504,1.1372 -7.4123,5.1686 -8.4048,10.1037 -0.3992,1.9873 -1.261,4.9574 -2.4249,8.2551 -10.3906,-13.6421 -21.8125,-25.6887 -26.2328,-42.2541 z"
     transform="rotate(-5.2178315)" /><path
     style="color:#000000;clip-rule:nonzero;fill:#b5b5b5;fill-rule:nonzero;stroke-linecap:butt;stroke-linejoin:miter;-inkscape-stroke:none"
     d="m -3497.4148,1821.9158 c 2.2751,0.2485 4.8034,1.151 7.7683,2.8157 4.7437,2.6636 10.3312,7.2562 16.7093,13.3856 12.7561,12.259 28.7181,30.5802 49.4928,51.6447 a 4,4 0 0 0 0.3122,0.2109 4.0004,4.0004 0 0 0 0.4191,0.2854 4,4 0 0 0 1.5646,0.5862 4.0004,4.0004 0 0 0 0.2616,0.098 l 107.7344,7.8301 a 4.0004,4.0004 0 0 0 4.1714,-4.9596 c -5.8157,-23.2698 -14.5103,-38.6666 -21.857,-48.2698 -1.19,-1.5555 -2.3342,-2.9132 -3.4484,-4.1825 0.018,-0.051 0.037,-0.1024 0.055,-0.1538 l 93.4116,96.675 -182.0265,-10.0213 -98.7451,-107.3605 18.9978,1.7486 a 4,4 0 0 0 0.111,-0.035 4,4 0 0 0 0.094,-0.015 4,4 0 0 0 1.1124,-0.047 c 1.2232,-0.2989 2.4966,-0.3849 3.8617,-0.2357 z"
     transform="rotate(-5.2178315)"
     id="path43499" /><path
     style="color:#000000;clip-rule:nonzero;fill:#000000;fill-rule:nonzero;stroke-linecap:butt;stroke-linejoin:miter;-inkscape-stroke:none"
     d="m -3416.5581,1894.2681 c -2.0617,-0.1938 -4.1695,0.1502 -6.0795,1.2413 -3.3955,1.9398 -5.0747,5.6174 -5.3542,9.2565 -0.2796,3.6392 0.664,7.5014 2.7221,11.1042 2.0582,3.6027 4.9058,6.3787 8.1827,7.9862 3.2767,1.6075 7.2971,2.0258 10.6927,0.086 3.3955,-1.9397 5.0764,-5.6152 5.356,-9.2543 0.2795,-3.6391 -0.6659,-7.5016 -2.7241,-11.1043 -2.0581,-3.6028 -4.9059,-6.3788 -8.1826,-7.9863 -1.4336,-0.7032 -3.0095,-1.1786 -4.6131,-1.3293 z"
     transform="rotate(-5.2178315)"
     id="path43507" /><path
     style="color:#000000;clip-rule:nonzero;fill:#000000;fill-rule:nonzero;stroke-linecap:butt;stroke-linejoin:miter;-inkscape-stroke:none"
     d="m -3342.5457,1909.1662 c -6.488,-0.467 -38.0595,-2.7387 -47.8208,-3.4413 -1.9585,-0.1397 -3.8761,0.6955 -5.1064,2.2264 -1.2304,1.5307 -1.6333,3.579 -1.0754,5.462 0.8657,2.9239 2.1942,7.4092 2.8573,9.6455 0.7204,2.4326 2.9362,4.168 5.4686,4.2885 7.0761,0.3359 38.5931,1.8277 48.9471,2.3184 2.0898,0.098 4.0994,-0.9104 5.2671,-2.655 1.1664,-1.7417 1.3368,-3.9813 0.4505,-5.8779 -1.2834,-2.747 -3.1098,-6.6597 -3.9779,-8.5202 -0.9178,-1.9595 -2.8424,-3.2858 -5.0027,-3.4418 z"
     transform="rotate(-5.2178315)"
     id="path43511" /><path
     style="color:#000000;clip-rule:nonzero;fill:#ffffff;fill-rule:nonzero;stroke-linecap:butt;stroke-linejoin:miter;-inkscape-stroke:none"
     d="m -3280.7175,1965.2225 c 0.5589,0.024 0.9388,0.407 0.9571,0.966 a 4.0004,4.0004 0 0 0 -8e-4,0.01 c 0.1397,3.9572 0.6369,7.6717 1.389,11.206 a 4,4 0 0 0 0,0.012 c 4.7116,22.1194 20.1591,36.6401 31.1972,51.8705 -2.5226,5.4413 -5.575,10.5186 -7.8783,12.7563 -3.2045,3.1126 -5.4812,6.8144 -6.5681,10.544 -0.5435,1.8648 -0.8012,3.7582 -0.5316,5.692 0.2697,1.9339 1.1954,4.0044 2.9306,5.4062 1.9255,1.554 4.2299,2.5121 6.5345,2.5599 2.3047,0.048 4.3872,-0.7415 6.1618,-1.7986 3.5484,-2.1141 6.3702,-5.3297 9.4813,-8.6404 0.5772,-0.6134 1.2522,-1.2847 1.8971,-1.939 0.5767,2.5852 0.977,5.2727 1.1332,8.123 0.273,5.0218 -0.1568,10.5124 -1.5316,16.6642 -0.1174,0.5152 -0.5353,0.8147 -1.0774,0.7586 -2.3451,-0.2472 -10.9817,-1.1593 -14.8856,-1.5711 -7.5179,-0.7931 -17.5149,-1.849 -28.6659,-3.0258 a 4,4 0 0 0 -0.025,0 c -34.0754,-3.5961 -73.1332,-7.7181 -87.5826,-9.2455 -0.5636,-0.062 -0.9179,-0.4679 -0.8959,-1.035 a 4.0004,4.0004 0 0 0 1e-4,0 4.0004,4.0004 0 0 0 2e-4,0 4.0004,4.0004 0 0 0 2e-4,0 4.0004,4.0004 0 0 0 2e-4,0 4.0004,4.0004 0 0 0 10e-5,0 c 1.0265,-27.3997 -11.8698,-43.6437 -24.4955,-57.5835 -12.6258,-13.9397 -24.7075,-25.71 -26.0327,-46.4859 -0.017,-0.2828 0.084,-0.5505 0.2804,-0.751 0.1971,-0.2013 0.463,-0.3067 0.7447,-0.2948 23.1534,0.966 115.3726,4.8776 137.4608,5.8142 z"
     transform="rotate(-5.2178315)"
     id="path43529" /><path
     style="color:#000000;clip-rule:nonzero;fill:#ffffff;fill-rule:nonzero;stroke-linecap:butt;stroke-linejoin:miter;-inkscape-stroke:none"
     d="m -3454.4886,2115.8187 c 8.9535,0.6413 20.0791,7.3694 25.4344,15.8181 3.0946,4.875 3.7507,11.8162 3.645,16.3112 -0.021,0.5803 -0.4176,0.9599 -1.0028,0.9518 -10.9761,-0.1384 -38.7921,-0.993 -55.3815,-3.9121 3.1888,-13.9519 10.8518,-22.4153 17.8321,-26.3999 3.7672,-2.1472 7.3441,-2.9167 9.4728,-2.7691 z"
     transform="rotate(-5.2178315)"
     id="path43567" /><path
     style="color:#000000;clip-rule:nonzero;fill:#005dc7;fill-rule:nonzero;stroke-linecap:butt;stroke-linejoin:miter;-inkscape-stroke:none"
     d="m -3470.8329,2111.7726 c 0.1207,0.5124 0.2423,1.0225 0.373,1.5207 -8.1332,5.5597 -15.8362,15.4808 -19.1433,30.0182 -1.6601,-0.5349 -3.0123,-1.0557 -3.6102,-1.4437 -0.074,-0.048 -0.1395,-0.107 -0.2111,-0.1585 7.198,-16.6677 14.6771,-26.3594 22.5916,-29.9367 z"
     transform="rotate(-5.2178315)"
     id="path43565" /><path
     style="color:#000000;clip-rule:nonzero;fill:#005dc7;fill-rule:nonzero;stroke-linecap:butt;stroke-linejoin:miter;-inkscape-stroke:none"
     d="m -3361.2329,2117.5352 c 0.3213,1.4926 0.6722,2.9374 1.0603,4.2606 -8.78,9.4772 -12.3474,21.9747 -13.6569,32.8021 -2.8069,-0.428 -5.4435,-0.901 -7.7204,-1.4503 2.4475,-16.0738 8.8217,-27.9155 20.317,-35.6124 z"
     transform="rotate(-5.2178315)"
     id="path43563" /><path
     style="color:#000000;clip-rule:nonzero;fill:#ffffff;fill-rule:nonzero;stroke-linecap:butt;stroke-linejoin:miter;-inkscape-stroke:none"
     d="m -3333.0526,2119.3065 v 2e-4 c 6.2625,0.6386 12.1578,3.2997 15.3913,6.9226 8.765,9.8203 8.9561,23.0132 8.3253,29.5534 -0.057,0.511 -0.4351,0.8697 -0.9464,0.8922 -9.8717,0.3344 -35.5648,0.8188 -55.599,-1.1646 1.3043,-10.3377 4.8912,-22.1077 12.9266,-29.7877 a 4.0004,4.0004 0 0 0 0.011,-0.01 c 0.8852,-0.851 1.8267,-1.6522 2.8302,-2.4069 4.3567,-3.2753 10.797,-4.6383 17.0595,-4.0003 z"
     transform="rotate(-5.2178315)"
     id="path43561" /><path
     style="color:#000000;clip-rule:nonzero;fill:#ffffff;fill-rule:nonzero;stroke-linecap:butt;stroke-linejoin:miter;-inkscape-stroke:none"
     d="m -3489.6829,2098.6328 c 3.8379,3.9978 9.0875,5.6204 13.4005,6.1072 0.4559,0.051 0.8854,0.083 1.2969,0.1028 -8.2875,4.006 -15.1657,12.3197 -21.343,24.2317 0.1445,-1.502 0.347,-3.0311 0.6332,-4.5492 1.4737,-7.8172 4.3765,-14.8942 4.3765,-14.8942 a 4.0004,4.0004 0 0 0 -0.701,-4.1787 c -1.5251,-1.7232 -1.5367,-2.507 -1.4745,-3.0314 0.062,-0.5244 0.4541,-1.272 1.3422,-2.1133 0.7101,-0.6726 1.6245,-1.1937 2.4692,-1.6749 z"
     transform="rotate(-5.2178315)"
     id="path43559" /><path
     style="color:#000000;clip-rule:nonzero;fill:#ffffff;fill-rule:nonzero;stroke-linecap:butt;stroke-linejoin:miter;-inkscape-stroke:none"
     d="m -3380.2356,2103.0616 c 2.1345,2.7678 4.4648,4.9265 7.0233,5.9701 3.303,1.3474 6.6308,1.1929 9.309,0.4617 0.4325,-0.118 0.8029,-0.2869 1.1844,-0.4488 -14.7822,8.6481 -23.2663,23.0781 -26.4479,41.1756 -0.2831,-0.1862 -0.558,-0.3718 -0.719,-0.5246 -2.0687,-1.963 -3.0105,-4.731 -3.1149,-8.4139 -0.1044,-3.6828 0.7483,-8.0617 2.0143,-12.1778 2.5319,-8.2323 6.5393,-15.2537 6.5393,-15.2537 a 4.0004,4.0004 0 0 0 -0.1272,-4.191 c -1.4281,-2.1701 -1.2913,-3.0149 -1.1642,-3.4444 0.1275,-0.4295 0.6159,-1.0586 1.7192,-1.7101 1.1244,-0.6638 2.5897,-1.1318 3.7835,-1.4412 z"
     transform="rotate(-5.2178315)"
     id="path43557" /><path
     style="color:#000000;clip-rule:nonzero;fill:#000000;fill-rule:nonzero;stroke-linecap:butt;stroke-linejoin:miter;-inkscape-stroke:none"
     d="m -3273.6112,2083.5505 c 3.7051,0.3909 6.856,0.7228 10.1304,1.0682 -1.9168,0.8173 -3.5681,1.1543 -4.4103,1.0467 -2.2919,-0.2936 -4.2341,-1.0147 -5.7201,-2.1149 z"
     transform="rotate(-5.2178315)"
     id="path43555" /><path
     style="color:#000000;clip-rule:nonzero;fill:#000000;fill-rule:nonzero;stroke-linecap:butt;stroke-linejoin:miter;-inkscape-stroke:none"
     d="m -3363.3558,2074.0762 c 2.245,0.2372 7.9477,0.8393 10.9791,1.1595 -0.1946,7.3977 -2.8481,15.2436 -8.5282,23.6741 -0.551,0.477 -2.6464,2.1987 -5.1104,2.8713 -1.4252,0.3891 -2.7518,0.4321 -4.1795,-0.1502 -1.0478,-0.4275 -2.2666,-1.2502 -3.5832,-2.8984 4.8743,-6.9627 8.3189,-15.2281 10.4222,-24.6563 z"
     transform="rotate(-5.2178315)"
     id="path43553" /><path
     style="color:#000000;clip-rule:nonzero;fill:#ffffff;fill-rule:nonzero;stroke-linecap:butt;stroke-linejoin:miter;-inkscape-stroke:none"
     d="m -3528.8643,2038.7511 c 1.4005,1.3586 2.9764,2.8729 4.9405,4.4874 2.3622,1.9417 5.0116,3.8815 7.818,5.3425 2.8064,1.461 5.8266,2.6051 9.2236,2.0857 0.571,-0.087 1.1318,-0.2404 1.6805,-0.427 1.4783,1.8647 2.4115,4.0759 2.4903,5.5679 0.053,1.0113 -0.1556,1.5616 -0.4743,1.9513 -0.3183,0.3897 -0.9094,0.8712 -2.5933,1.1007 -8.5056,1.1644 -12.5178,-0.9687 -14.787,-2.9939 -2.2693,-2.0251 -2.6852,-3.8853 -2.6852,-3.8853 a 4,4 0 0 0 -4.8509,-2.9122 4,4 0 0 0 -2.9103,4.8511 c 0,0 1.1374,4.3624 5.1196,7.9164 3.6058,3.2178 9.6419,5.8099 18.382,5.2285 0.5352,1.3645 0.348,2.0977 0.027,2.664 -0.4557,0.8049 -2.1277,2.0899 -5.4959,2.7537 -3.2609,0.6419 -11.0584,-0.6106 -17.4437,-2.2519 -1.1388,-1.7987 -1.9953,-3.4555 -2.604,-4.9664 -1.8661,-4.6314 -1.8208,-8.2702 -2.1596,-12.712 -0.1846,-2.4202 1.7214,-7.1023 4.0787,-10.7948 1.1041,-1.7293 1.3643,-1.8808 2.2436,-3.0057 z"
     transform="rotate(-5.2178315)"
     id="path43551" /><path
     style="color:#000000;clip-rule:nonzero;fill:#000000;fill-rule:nonzero;stroke-linecap:butt;stroke-linejoin:miter;-inkscape-stroke:none"
     d="m -3278.4852,2056.5794 -77.7677,-6.0976 a 4,4 0 0 0 -4.3013,3.6748 4,4 0 0 0 3.6749,4.3012 l 77.7677,6.0977 a 4,4 0 0 0 4.3012,-3.6748 4,4 0 0 0 -3.6748,-4.3013 z"
     transform="rotate(-5.2178315)"
     id="path43549" /><path
     style="color:#000000;clip-rule:nonzero;fill:#000000;fill-rule:nonzero;stroke-linecap:butt;stroke-linejoin:miter;-inkscape-stroke:none"
     d="m -3299.9188,2036.5531 -55.0449,-2.0143 a 4,4 0 0 0 -4.1448,3.8519 4,4 0 0 0 3.8521,4.1429 l 55.0449,2.0143 a 4,4 0 0 0 4.1428,-3.8521 4,4 0 0 0 -3.8501,-4.1427 z"
     transform="rotate(-5.2178315)"
     id="path43547" /><path
     style="color:#000000;clip-rule:nonzero;fill:#000000;fill-rule:nonzero;stroke-linecap:butt;stroke-linejoin:miter;-inkscape-stroke:none"
     d="m -3264.5901,2022.7145 -95.2429,-1.6686 a 4,4 0 0 0 -4.0695,3.9294 4,4 0 0 0 3.9296,4.0676 l 95.2429,1.6685 a 4,4 0 0 0 4.0693,-3.9274 4,4 0 0 0 -3.9294,-4.0695 z"
     transform="rotate(-5.2178315)"
     id="path43545" /><path
     style="color:#000000;clip-rule:nonzero;fill:#ffffff;fill-rule:nonzero;stroke-linecap:butt;stroke-linejoin:miter;-inkscape-stroke:none"
     d="m -3544.0985,1995.5322 c 0.2218,0.01 0.4402,0.027 0.6536,0.1009 1.0876,0.3753 1.8894,0.8826 2.6047,2.1893 0.7154,1.3069 1.3336,3.6729 0.9591,7.7738 -0.3326,3.6429 1.5114,6.3493 3.5788,8.8759 2.0674,2.5266 4.7179,4.9351 7.5177,7.2351 5.5992,4.6001 11.9372,8.805 14.4488,10.7139 3.1439,2.3884 5.8605,6.132 6.6473,8.4972 0.3792,1.1398 0.2482,1.7372 0.2646,1.7206 -0.061,0.014 -0.1856,0.044 -0.6678,0.1175 -0.5915,0.091 -2.2903,-0.2192 -4.322,-1.2733 -2.0315,-1.0576 -4.3387,-2.7045 -6.4328,-4.4257 -4.1881,-3.4425 -7.491,-7.0758 -7.491,-7.0758 a 4.0004,4.0004 0 0 0 -5.9445,0.02 c 0,0 -2.8279,3.1538 -5.5695,7.4481 -2.7416,4.2944 -5.7719,9.7056 -5.3139,15.7088 0.3037,3.9816 0.2775,9.0384 2.7168,15.0928 0.9434,2.3416 2.2512,4.8042 4.0267,7.4283 a 4,4 0 0 0 0.019,0.027 c 2.8143,4.1536 6.8179,8.7173 12.5465,13.8919 2.919,2.6364 2.6034,4.0722 2.4403,4.4612 -0.163,0.3888 -0.4891,0.8211 -1.8277,0.4705 1e-4,-5e-4 -1.274,-0.5223 -2.7407,-1.4722 -1.4669,-0.9499 -3.2918,-2.3155 -5.2438,-4.0228 -3.9042,-3.4145 -8.3198,-8.1998 -11.7981,-13.8393 -6.1657,-9.9996 -15.7493,-25.8083 -17.4675,-43.6562 6.3851,-0.7523 11.5471,-3.2347 11.5471,-3.2347 a 4,4 0 0 0 1.895,-5.3303 4,4 0 0 0 -5.3283,-1.8947 c 0,0 -6.8946,3.0219 -12.26,2.7519 -2.6049,-0.1279 -4.4731,-0.8086 -5.8313,-2.5291 -0.8931,-1.1312 -1.6542,-3.0987 -1.9308,-6.0895 0.7565,0.1836 1.5173,0.3194 2.2781,0.4179 a 4,4 0 0 0 0.1683,0.025 c 5.8375,0.709 11.7016,-1.0077 16.253,-4.1034 3.4061,-2.3166 6.1974,-5.4326 7.763,-9.1738 0.8886,-2.1232 1.2752,-4.4839 1.1658,-6.8815 0.2294,0.028 0.4542,0.026 0.6755,0.034 z"
     transform="rotate(-5.2178315)"
     id="path43543" /><path
     style="color:#000000;clip-rule:nonzero;fill:#000000;fill-rule:nonzero;stroke-linecap:butt;stroke-linejoin:miter;-inkscape-stroke:none"
     d="m -3463.7115,2000.5021 12.8274,1.1714 c 3.34,34.2589 -4.9043,65.3335 -19.0052,95.1915 -1.3855,0.1052 -3.3301,0.1642 -5.4959,-0.08 -3.306,-0.373 -6.5167,-1.3831 -8.6241,-3.5824 12.8738,-26.0363 23.1537,-54.7418 20.2978,-92.7003 z"
     transform="rotate(-5.2178315)"
     id="path43541" /><path
     style="color:#000000;clip-rule:nonzero;fill:#000000;fill-rule:nonzero;stroke-linecap:butt;stroke-linejoin:miter;-inkscape-stroke:none"
     d="m -3345.7182,2009.2808 -26.0742,-0.3728 a 4,4 0 0 0 -4.0569,3.9423 4,4 0 0 0 3.9423,4.057 l 26.0741,0.3728 a 4,4 0 0 0 4.057,-3.9423 4,4 0 0 0 -3.9423,-4.057 z"
     transform="rotate(-5.2178315)"
     id="path43539" /><path
     style="color:#000000;clip-rule:nonzero;fill:#ffffff;fill-rule:nonzero;stroke-linecap:butt;stroke-linejoin:miter;-inkscape-stroke:none"
     d="m -3229.9572,2009.9243 c 1.0049,0.073 2.4589,0.6401 4.2523,2.381 5.8572,5.686 13.6211,15.0863 15.5699,24.1018 0.4215,1.95 0.1663,2.8861 -0.1302,3.487 -0.2963,0.6007 -0.7725,1.0423 -1.5165,1.4442 -1.488,0.8036 -3.5405,0.9495 -3.5405,0.9495 a 4.0004,4.0004 0 0 0 -2.989,1.4393 c -1.4353,1.7228 -4.9803,5.4445 -8.8072,9.3765 -0.3937,-1.9215 -0.8987,-3.7736 -1.4627,-5.5878 4.1572,-3.8675 7.7329,-6.9976 7.7329,-6.9976 a 4,4 0 0 0 0.3917,-5.6421 4,4 0 0 0 -5.6421,-0.3916 c 0,0 -4.7607,4.1407 -9.8155,8.9275 -2.3986,2.2702 -4.8634,4.6888 -6.9564,6.9136 -3.1367,3.338 -5.884,6.1401 -7.746,7.2494 -0.931,0.5547 -1.5149,0.6797 -1.901,0.6717 -0.3817,-0.01 -0.7918,-0.085 -1.6518,-0.7686 -0.01,-0.029 -0.032,-0.1012 -0.061,-0.3036 -0.06,-0.4317 -0.017,-1.2962 0.289,-2.3487 0.6134,-2.105 2.233,-4.8804 4.4619,-7.0453 4.2855,-4.1633 7.7013,-10.7266 10.5747,-17.3917 2.649,-6.1321 4.653,-12.1948 5.51,-16.4596 0.5841,-2.9019 1.6621,-3.6961 2.5855,-3.9375 0.231,-0.06 0.5165,-0.092 0.8515,-0.067 z"
     transform="rotate(-5.2178315)"
     id="path43537" /><path
     style="color:#000000;clip-rule:nonzero;fill:#000000;fill-rule:nonzero;stroke-linecap:butt;stroke-linejoin:miter;-inkscape-stroke:none"
     d="m -3295.3917,1997.8042 -86.0984,-2.8418 a 4,4 0 0 0 -4.1285,3.8672 4,4 0 0 0 3.865,4.1303 l 86.0983,2.8418 a 4,4 0 0 0 4.1305,-3.867 4,4 0 0 0 -3.8669,-4.1305 z"
     transform="rotate(-5.2178315)"
     id="path43535" /><path
     style="color:#000000;clip-rule:nonzero;fill:#000000;fill-rule:nonzero;stroke-linecap:butt;stroke-linejoin:miter;-inkscape-stroke:none"
     d="m -3323.9122,1982.1476 -65.2792,-1.9448 a 4,4 0 0 0 -4.1178,3.878 4,4 0 0 0 3.8798,4.1179 l 65.2792,1.9447 a 4,4 0 0 0 4.1159,-3.8781 4,4 0 0 0 -3.8779,-4.1177 z"
     transform="rotate(-5.2178315)"
     id="path43533" /><path
     style="color:#000000;clip-rule:nonzero;fill:#000000;fill-rule:nonzero;stroke-linecap:butt;stroke-linejoin:miter;-inkscape-stroke:none"
     d="m -3292.9146,1971.1299 -104.0236,-4.4807 a 4,4 0 0 0 -4.1698,3.8241 4,4 0 0 0 3.8244,4.1678 l 104.0235,4.4807 a 4,4 0 0 0 4.1698,-3.8241 4,4 0 0 0 -3.8243,-4.1678 z"
     transform="rotate(-5.2178315)"
     id="path43531" /><path
     style="color:#000000;clip-rule:nonzero;fill:#808080;fill-rule:nonzero;stroke-linecap:butt;stroke-linejoin:miter;-inkscape-stroke:none"
     d="m -3355.9957,1949.1948 c 1.9701,0.1363 3.8309,0.5258 5.4383,1.1419 2.6385,1.0115 4.4962,2.3363 5.5038,4.1603 -11.8803,-0.5032 -17.4808,-0.7392 -28.5183,-1.2059 2.856,-0.8853 5.5107,-1.7637 7.4862,-2.5563 3.2198,-1.292 6.8066,-1.767 10.09,-1.54 z"
     transform="rotate(-5.2178315)"
     id="path43527" /><path
     style="color:#000000;clip-rule:nonzero;fill:#808080;fill-rule:nonzero;stroke-linecap:butt;stroke-linejoin:miter;-inkscape-stroke:none"
     d="m -3320.3989,1951.106 c 0.5486,0.056 1.1005,0.1593 1.6543,0.3119 3.7486,1.0332 7.4565,2.769 11.0615,4.66 -7.5871,-0.3217 -14.0905,-0.596 -23.4601,-0.9931 0.03,-0.023 0.055,-0.047 0.085,-0.071 3.1326,-2.4524 6.8189,-4.3021 10.6594,-3.9081 z"
     transform="rotate(-5.2178315)"
     id="path43525" /><path
     style="color:#000000;clip-rule:nonzero;fill:#b5b5b5;fill-rule:nonzero;stroke-linecap:butt;stroke-linejoin:miter;-inkscape-stroke:none"
     d="m -3527.18,1926.2192 c -0.782,4.3825 -1.4428,8.866 -1.9995,13.1539 l -5.6043,-6.1955 c 2.3057,-2.4733 4.8612,-4.7768 7.6038,-6.9584 z"
     transform="rotate(-5.2178315)"
     id="path43523" /><path
     style="color:#000000;clip-rule:nonzero;fill:#b5b5b5;fill-rule:nonzero;stroke-linecap:butt;stroke-linejoin:miter;-inkscape-stroke:none"
     d="m -3241.6337,1945.8509 -29.8638,23.579 c -0.1116,-1.1535 -0.2258,-2.304 -0.2684,-3.5037 l 9e-4,-0.01 c -0.1582,-4.6637 -3.9497,-8.4882 -8.6129,-8.6864 h 0.01 c -1.0745,-0.046 -5.2972,-0.2243 -6.6875,-0.2832 -2.3136,-0.211 -6.6909,-2.3487 -11.7713,-5.1779 -5.0945,-2.8372 -11.0383,-6.2066 -17.7893,-8.0673 -1.9534,-0.5383 -3.8529,-0.7187 -5.675,-0.632 h -2e-4 c -5.4664,0.2601 -10.2374,2.9363 -13.6949,5.6431 -0.9835,0.77 -1.5173,1.4458 -2.3301,2.2133 -2.0808,-3.6715 -5.4266,-6.5484 -9.3741,-8.0617 -6.4622,-2.4771 -14.2908,-2.3978 -21.371,0.4431 -7.2662,2.9155 -29.4925,8.4985 -30.9359,8.86 -5.0272,-0.2116 -14.8311,-0.6287 -17.8374,-0.7542 -2.5425,-0.1068 -5.0178,0.8731 -6.7983,2.6918 -1.7812,1.8195 -2.7062,4.3152 -2.5459,6.8535 0.9746,15.2811 7.2222,26.4812 14.8516,36.1979 l -63.7037,-5.8175 52.9663,-55.4814 z"
     transform="rotate(-5.2178315)"
     id="path43519" /><path
     style="color:#000000;clip-rule:nonzero;fill:#01b89e;fill-rule:nonzero;stroke-linecap:butt;stroke-linejoin:miter;-inkscape-stroke:none"
     d="m -3381.5233,1914.3813 1.819,5.3596 c -1.8492,-0.088 -5.5608,-0.2627 -6.7217,-0.3177 -0.4731,-1.5967 -1.0409,-3.5071 -1.6344,-5.5113 1.6702,0.1202 4.3354,0.311 6.5371,0.4694 z"
     transform="rotate(-5.2178315)"
     id="path43517" /><path
     style="color:#000000;clip-rule:nonzero;fill:#ffb900;fill-rule:nonzero;stroke-linecap:butt;stroke-linejoin:miter;-inkscape-stroke:none"
     d="m -3361.5109,1915.8225 1.7426,4.8642 c -4.458,-0.2111 -7.2664,-0.345 -11.3516,-0.5385 l -1.7446,-5.1428 c 4.4606,0.321 7.0697,0.5089 11.3536,0.8171 z"
     transform="rotate(-5.2178315)"
     id="path43515" /><path
     style="color:#000000;clip-rule:nonzero;fill:#005dc7;fill-rule:nonzero;stroke-linecap:butt;stroke-linejoin:miter;-inkscape-stroke:none"
     d="m -3344.2886,1917.0619 c 0.5679,1.2166 1.3081,2.7992 2.0819,4.4558 -2.3692,-0.1122 -5.7316,-0.2712 -8.9165,-0.422 l -1.6645,-4.6452 c 2.5215,0.1814 7.1333,0.5131 8.4991,0.6114 z"
     transform="rotate(-5.2178315)"
     id="path43513" /><path
     style="color:#000000;clip-rule:nonzero;fill:#ff5345;fill-rule:nonzero;stroke-linecap:butt;stroke-linejoin:miter;-inkscape-stroke:none"
     d="m -3417.4251,1902.1948 c 0.5239,0.029 1.1668,0.1991 1.9567,0.5866 1.5799,0.775 3.4286,2.4388 4.7598,4.769 1.3312,2.3303 1.8278,4.7702 1.693,6.5248 -0.1348,1.7545 -0.7213,2.5612 -1.3472,2.9188 -0.6261,0.3577 -1.621,0.4534 -3.2008,-0.3217 -1.5799,-0.775 -3.4285,-2.4407 -4.7597,-4.771 -1.3312,-2.3302 -1.8279,-4.7682 -1.6931,-6.5228 0.1347,-1.7545 0.7233,-2.563 1.3493,-2.9206 0.313,-0.1788 0.718,-0.2917 1.242,-0.2631 z"
     transform="rotate(-5.2178315)"
     id="path43509" /><path
     style="color:#000000;clip-rule:nonzero;fill:#b5b5b5;fill-rule:nonzero;stroke-linecap:butt;stroke-linejoin:miter;-inkscape-stroke:none"
     d="m -3257.3723,1893.6799 c 26.0077,10.2914 45.2185,28.9393 55.8722,49.9326 13.7697,27.1335 13.2707,57.7451 -5.1518,79.9095 -3.8621,-6.9808 -9.2158,-12.8179 -13.4787,-16.9562 -0.6037,-0.586 -1.2361,-1.1144 -1.8817,-1.6016 6.3914,-24.9789 4.357,-45.0831 -7.5072,-58.4856 l 1.1415,-0.9019 a 4,4 0 0 0 0.652,-0.6543 4.0004,4.0004 0 0 0 0.021,-0.034 4,4 0 0 0 0.7551,-1.653 4.0004,4.0004 0 0 0 0.017,-0.1377 4,4 0 0 0 -0.086,-1.7259 4.0004,4.0004 0 0 0 -0.061,-0.1723 4,4 0 0 0 -0.6378,-1.2408 4,4 0 0 0 -0.1729,-0.1472 4.0004,4.0004 0 0 0 -0.09,-0.1534 l -7.0817,-7.3287 c -4.4125,-12.3202 -13.1933,-26.2223 -22.3099,-38.65 z"
     transform="rotate(-5.2178315)"
     id="path43505" /><path
     style="color:#000000;clip-rule:nonzero;fill:#ffb900;fill-rule:nonzero;stroke-linecap:butt;stroke-linejoin:miter;-inkscape-stroke:none"
     d="m -3337.8393,1849.5973 c 0.22,0.2803 0.4236,0.5152 0.6479,0.8084 6.1029,7.9775 13.3586,20.9288 18.8243,39.9654 l -99.4384,-7.2274 c -1.2049,-3.1624 -5.2845,-13.503 -11.7666,-25.953 5.3849,6.4974 12.1128,10.611 19.7437,10.611 8.9737,0 16.7018,-5.6821 22.4594,-14.2509 5.9106,9.4631 14.0602,15.7621 23.6411,15.7622 10.3505,-1e-4 19.098,-7.4355 25.036,-18.1108 0.2916,-0.5242 0.5728,-1.0634 0.8526,-1.6049 z"
     transform="rotate(-5.2178315)"
     id="path43503" /><path
     style="color:#000000;clip-rule:nonzero;fill:#b5b5b5;fill-rule:nonzero;stroke-linecap:butt;stroke-linejoin:miter;-inkscape-stroke:none"
     d="m -3530.9031,1822.1937 100.7308,109.5208 -54.3978,56.9824 -29.66,-32.7942 c 6.8771,-15.4592 8.1247,-34.5251 8.3207,-43.0722 0.6254,-0.3314 1.2371,-0.6696 1.868,-0.9983 a 4,4 0 0 0 1.6989,-5.3952 4,4 0 0 0 -2.3464,-1.9676 4,4 0 0 0 -3.0486,0.2668 c -14.927,7.7762 -29.4065,16.5656 -38.7477,30.2735 -9.3412,13.7079 -13.0237,32.1727 -7.0623,57.5552 a 4,4 0 0 0 0.1666,0.3663 4.0004,4.0004 0 0 0 0.068,0.3318 c 0.9298,2.1083 0.8386,4.0036 -0.01,6.03 -0.848,2.0262 -2.5833,4.0846 -4.8815,5.6478 -2.5404,1.7278 -5.6171,2.7986 -8.7239,2.8806 -4.788,-11.7052 -9.1457,-31.0177 -3.0715,-57.6628 10.5281,-46.1814 55.8947,-64.1396 55.8947,-64.1396 a 4,4 0 0 0 2.2602,-5.185 4,4 0 0 0 -2.1247,-2.2044 4,4 0 0 0 -3.0604,-0.056 c 0,0 -22.1975,8.689 -40.2761,29.7004 l -15.4106,-17.0404 z"
     transform="rotate(-5.2178315)"
     id="path43501" /><path
     style="color:#000000;clip-rule:nonzero;fill:#ffb900;fill-rule:nonzero;stroke-linecap:butt;stroke-linejoin:miter;-inkscape-stroke:none"
     d="m -3464.4192,1810.4529 20.2574,2.5168 c 0.5193,10.6721 2.5912,20.5433 5.8815,28.9321 -4.785,-7.6846 -10.2914,-15.4144 -16.4766,-22.2272 -3.0585,-3.3693 -6.2791,-6.482 -9.6623,-9.2217 z"
     transform="rotate(-5.2178315)"
     id="path43497" /><path
     style="color:#000000;clip-rule:nonzero;fill:#ffb900;fill-rule:nonzero;stroke-linecap:butt;stroke-linejoin:miter;-inkscape-stroke:none"
     d="m -3487.9412,1807.5616 c 3.0723,0.3135 7.132,1.6751 12.1916,4.6769 5.1913,3.0799 10.2824,7.5394 15.0709,12.8143 11.4794,12.6442 20.9516,29.6853 27.3849,42.9536 -13.3065,-14.075 -24.4322,-26.3662 -34.0998,-35.657 -6.608,-6.3505 -12.5484,-11.3433 -18.3367,-14.5933 -3.8207,-2.1452 -7.6959,-3.5377 -11.5408,-3.835 1.051,-3.2554 2.7215,-5.094 4.8632,-5.9202 1.1352,-0.4379 2.6232,-0.6274 4.4667,-0.4393 z"
     transform="rotate(-5.2178315)"
     id="path43495" /><path
     style="color:#000000;clip-rule:nonzero;fill:#ffffff;fill-rule:nonzero;stroke-linecap:butt;stroke-linejoin:miter;-inkscape-stroke:none"
     d="m -3354.262,1780.1755 c 4.4648,0.4702 9.0974,2.7852 14.2493,7.895 1.7817,6.7571 2.8095,14.3766 2.8095,22.4325 0,0.9249 -0.015,1.8447 -0.042,2.7576 -6.8031,-2.1529 -14.8329,1.0087 -22.0041,7.8478 3.0438,6.7508 4.8343,13.7171 6.0293,20.7848 -4.302,-4.491 -8.8094,-8.4834 -13.7233,-11.4851 -2.5184,3.8027 -4.7643,8.104 -6.5988,12.7908 -1.4752,3.7689 -2.5762,7.5325 -3.3355,11.2041 -2.1579,-2.4161 -4.1705,-5.4433 -5.9635,-9.0271 4.7403,-10.3886 7.4821,-23.4768 7.4821,-37.7337 0,-5.7215 -0.448,-11.2503 -1.2823,-16.4975 5.982,-6.1089 12.0561,-9.9475 17.7582,-10.8361 1.5308,-0.2386 3.0657,-0.2969 4.6211,-0.1331 z"
     transform="rotate(-5.2178315)"
     id="path43493" /><path
     style="color:#000000;clip-rule:nonzero;fill:#ffffff;fill-rule:nonzero;stroke-linecap:butt;stroke-linejoin:miter;-inkscape-stroke:none"
     d="m -3388.7943,1776.2297 c 1.6718,4.2752 3.022,9.0791 3.9675,14.2617 a 4,4 0 0 0 0.035,0.1796 c 0.9592,5.3198 1.4959,11.0275 1.4959,16.972 0,0.6225 -0.015,1.2377 -0.026,1.8549 -1.1629,-0.9531 -2.4418,-1.7275 -3.8459,-2.2771 -7.7402,-3.0297 -17.2465,1.1652 -25.2845,10.0076 5.6533,6.5643 9.5717,13.7642 12.3367,21.3864 -5.8203,-4.6891 -12.2823,-8.4359 -19.961,-10.7446 -1.5851,2.7956 -3.0231,5.8041 -4.2711,8.9926 -1.2628,3.226 -2.2574,6.4486 -2.9941,9.6132 -0.1888,-0.3295 -0.3791,-0.6516 -0.5644,-0.9929 -4.8764,-8.9841 -8.1292,-21.6585 -8.4234,-35.76 a 4,4 0 0 0 -0.011,-0.7403 c -0.01,-0.4469 -0.019,-0.8898 -0.019,-1.3393 0,-2.805 0.1179,-5.56 0.343,-8.2452 11.1685,-12.7379 27.2329,-24.9625 47.2226,-23.1686 z"
     transform="rotate(-5.2178315)"
     id="path43491" /><path
     style="color:#000000;clip-rule:nonzero;fill:#ffffff;fill-rule:nonzero;stroke-linecap:butt;stroke-linejoin:miter;-inkscape-stroke:none"
     d="m -3362.5123,1759.7017 c 6.0745,0.5664 12.089,5.3673 16.8737,13.9694 0.1906,0.3426 0.3731,0.7017 0.5587,1.0552 -2.7767,-1.2978 -5.5771,-2.1125 -8.3633,-2.4426 -2.2404,-0.2659 -4.4703,-0.2227 -6.6714,0.1203 -6.6835,1.0416 -12.8013,4.5627 -18.4621,9.5442 -0.825,-3.1023 -1.8004,-6.0603 -2.9099,-8.8541 5.0354,-8.7731 11.4154,-13.4484 17.7595,-13.4484 0.4051,0 0.8098,0.018 1.2148,0.056 z"
     transform="rotate(-5.2178315)"
     id="path43489" /><path
     style="color:#000000;clip-rule:nonzero;fill:#ffffff;fill-rule:nonzero;stroke-linecap:butt;stroke-linejoin:miter;-inkscape-stroke:none"
     d="m -3408.6182,1755.4795 c 5.6349,0.5396 11.2528,4.8411 15.8732,12.5757 -16.5736,0.01 -30.4474,8.067 -41.0841,17.6945 1.4612,-6.045 3.4866,-11.4603 5.9221,-15.9474 5.1157,-9.4246 11.6316,-14.3804 18.078,-14.3804 0.4029,0 0.8077,0.019 1.2108,0.058 z"
     transform="rotate(-5.2178315)"
     id="path43487" /></g></svg>
