<svg width="330" height="139" viewBox="0 0 330 139" fill="none" xmlns="http://www.w3.org/2000/svg">
<path d="M84.0555 0.00012946C83.548 0.00432618 83.0693 0.149792 82.6318 0.325949C81.9652 0.594409 81.3546 0.974635 80.8284 1.34439C79.6499 2.17249 78.4429 3.92315 77.5253 6.37923C76.6893 8.61724 76.2162 11.4176 76.8512 14.3526C76.5688 14.5031 76.2926 14.6577 76.0282 14.8183C74.5545 15.7136 73.3297 16.7393 72.9376 18.1825C72.7415 18.9041 72.8452 19.7447 73.2747 20.431C73.5286 20.8369 73.8734 21.191 74.2997 21.5099C73.8432 22.3468 73.6143 23.2779 73.8334 24.2394C74.0765 25.3062 74.8402 26.2205 76.0493 26.9592C75.7931 27.5006 75.6558 28.1058 75.7522 28.7286C75.8621 29.4386 76.2937 30.0968 76.9112 30.5714C78.0061 31.4129 79.6918 31.8556 82.1449 32.0365C82.3007 33.1268 82.7192 34.0188 83.3311 34.6579C84.0853 35.4457 85.0444 35.8299 85.941 36.0125C86.0894 36.5968 86.4248 37.5784 87.1416 38.4028C87.6883 39.0316 88.5998 39.583 89.6756 39.4976C90.5076 39.4316 91.3422 39.0448 92.2301 38.3301C94.6378 42.1964 96.21 47.4234 92.7765 52.8081C90.0126 57.1426 86.5774 59.962 83.0346 61.7727C81.4345 56.2704 71.7598 22.9995 69.9141 16.6528C69.6221 15.6488 68.6906 14.951 67.6438 14.951H55.7029C55.4466 14.4006 55.1681 13.8756 54.8661 13.3823C53.1699 10.6106 50.6991 8.7363 47.8691 8.7363C45.157 8.7363 42.7896 10.4474 41.0936 13.0396C39.5605 11.3758 37.6435 10.3311 35.5233 10.3311C32.6776 10.3311 30.2121 12.2028 28.5196 14.9504H6.19902C6.175 14.9569 6.15121 14.9643 6.12771 14.9725C5.96604 14.984 5.80922 15.0328 5.66955 15.1149C5.63977 15.1289 5.61066 15.1443 5.58233 15.161C5.56585 15.1693 5.5496 15.1781 5.53359 15.1873C4.00111 16.439 3.50463 18.3992 3.51624 20.5356C3.5278 22.672 4.00557 25.1113 4.59007 27.7717C4.59228 27.782 4.59461 27.7923 4.59713 27.8025L14.3596 66.6458C14.1867 66.7342 14.0154 66.818 13.8378 66.9193C10.8545 68.6216 6.07015 73.3647 3.74853 80.6888C1.42723 88.0107 1.61166 94.2865 2.17806 98.3005C1.65082 98.7023 1.2147 99.1256 0.869763 99.5731C0.253161 100.373 -0.0627666 101.292 0.0103913 102.187C0.0835492 103.082 0.530185 103.89 1.17093 104.53C1.66874 105.027 2.26738 105.237 2.9066 105.295C2.89058 107.794 3.23549 110.998 4.79106 113.836C6.49482 116.945 9.05953 120.968 10.9211 123.064C11.4932 123.709 12.2099 124.106 12.9512 124.169C13.6927 124.231 14.4171 123.942 14.9096 123.437C15.6811 122.646 15.8763 121.394 15.4083 120.165C15.7184 120.317 16.145 120.528 16.3133 120.609C17.8874 121.371 19.5831 121.002 20.3926 119.856C20.7974 119.283 20.9538 118.515 20.76 117.789C20.7063 117.588 20.6273 117.393 20.5265 117.206C21.0331 116.883 21.4589 116.453 21.7343 115.888C22.1696 114.996 22.0762 113.894 21.5106 112.833C21.6669 112.516 21.7617 112.162 21.7538 111.792C21.7354 110.935 21.3337 110.097 20.603 109.165C19.5426 107.812 18.4285 106.532 17.6124 105.388C16.7975 104.246 16.3432 103.247 16.3395 102.64C16.3568 102.423 16.492 100.419 15.634 98.4603C15.1807 97.4256 14.4 96.3751 13.1483 95.7765C12.7124 95.568 12.2291 95.4214 11.7009 95.34C11.5594 86.8488 16.2045 79.9128 19.7503 76.5065C22.4507 78.9897 27.858 83.9622 35.1071 90.6284C35.6691 99.6664 35.415 108.408 33.332 117.029C33.1638 116.982 32.9868 116.979 32.8168 117.018C32.8168 117.018 30.4757 117.586 28.7878 119.299C27.9438 120.155 27.25 121.382 27.2645 122.885C27.2764 124.104 27.7603 125.437 28.755 126.884C28.276 127.192 27.7449 127.598 27.2538 128.216C26.0407 129.742 25.1827 132.352 26.0824 136.282C26.3252 137.383 27.3333 138.165 28.4615 138.127C33.1476 137.979 52.25 137.344 57.7043 137.162C58.3862 137.14 59.026 136.824 59.4574 136.297C59.8886 135.77 60.0708 135.081 59.9576 134.41C59.9567 134.407 59.9559 134.403 59.955 134.4C59.6664 132.789 59.0575 130.215 57.715 127.949C56.3725 125.683 54.1244 123.665 50.8934 123.725C48.7984 123.763 46.9737 124.11 45.456 124.974C45.5612 124.697 45.6819 124.423 45.7279 124.14C46.0055 122.435 45.4702 120.81 45.121 119.654C45.0544 119.456 44.9298 119.281 44.7633 119.154C44.5968 119.027 44.396 118.952 44.1867 118.94C46.3235 113.783 47.649 108.305 47.9228 102.414C48.4884 102.934 50.175 104.484 50.4753 104.761C50.9846 105.229 51.6756 105.451 52.3623 105.368C53.9935 105.169 62.2063 104.158 68.3717 103.402C68.5832 108.311 68.2368 112.464 67.1953 115.675C67.0808 115.631 66.9596 115.608 66.8372 115.607C66.8372 115.607 65.3272 115.612 63.705 116.219C62.0828 116.825 60.1761 118.2 59.8293 120.717C59.6415 122.081 60.1833 123.306 60.9822 124.179C61.1558 124.368 61.342 124.543 61.5353 124.709C61.1454 127.401 60.7497 131.118 61.052 134.179C61.0534 134.193 61.0552 134.207 61.0572 134.221C61.219 135.377 62.2248 136.25 63.3937 136.25C63.9062 136.25 64.5855 136.25 65.3772 136.253C65.3792 136.254 65.3812 136.255 65.3832 136.256C65.3868 136.255 65.3904 136.254 65.394 136.253C65.4095 136.253 65.4173 136.253 65.4329 136.253C65.4342 136.253 65.4354 136.253 65.4367 136.253C66.8286 136.253 68.5965 136.256 70.5647 136.256C70.5663 136.256 70.5679 136.257 70.5696 136.258C70.5719 136.257 70.5744 136.256 70.5767 136.255C77.9414 136.258 88.1112 136.258 92.0487 136.258C92.7816 136.258 93.4758 135.917 93.9229 135.337C94.3702 134.756 94.5223 133.998 94.3339 133.29C94.333 133.288 94.3321 133.285 94.3312 133.282C93.8888 131.676 93.0502 129.223 91.5248 127.033C89.9993 124.843 87.6973 122.878 84.4969 122.605C83.5389 122.523 82.6089 122.476 81.711 122.481C80.9411 122.485 80.1979 122.533 79.4782 122.624C79.5121 122.562 79.5493 122.501 79.5798 122.44C80.0744 121.447 80.0431 120.41 79.7162 119.648C79.0872 118.181 77.7269 117.585 77.6229 117.541C79.9123 112.875 80.3676 107.708 79.1293 102.081C79.6905 102.011 79.8162 101.998 80.3786 101.928C92.9896 100.362 105.598 98.7701 108.784 98.2562C113.193 97.5452 115.323 96.1937 116.309 94.7567C116.801 94.0383 116.972 93.3206 116.997 92.7854C117.021 92.2502 116.884 91.8049 116.884 91.8049C116.875 91.7948 116.867 91.7849 116.858 91.7752C116.796 91.598 116.688 91.4405 116.545 91.3192L89.6039 69.666C100.665 64.6568 106.813 54.4185 105.531 44.8223C104.63 38.0706 101.246 33.7661 98.0913 31.1455C98.3219 30.7246 98.536 30.3069 98.7101 29.8996C99.259 28.6157 99.5875 27.3557 99.0697 26.1727C98.8107 25.5811 98.2942 25.0825 97.6671 24.813C97.2448 24.6316 96.7618 24.5579 96.2485 24.5256C95.9443 23.7451 95.1477 21.7688 93.7083 19.3074C92.1788 16.6919 90.1614 13.8349 87.4592 12.7336C86.6042 10.5919 86.0682 8.19518 86.4311 6.04611C86.7139 4.37046 86.75 3.15047 86.5307 2.17521C86.3113 1.19989 85.6895 0.39227 84.8745 0.126538C84.6708 0.060099 84.4705 0.0224006 84.2741 0.00768582C84.2004 0.00217762 84.1281 -0.000657426 84.0555 0.00012946Z" fill="black"/>
<path d="M71.3213 128.539C70.6103 130.078 70.0739 131.939 69.7082 134.157C68.5559 134.157 67.5659 134.157 66.5893 134.154C66.9034 131.956 67.8099 130.871 69.3029 129.786C69.8809 129.365 70.5648 128.962 71.3213 128.539Z" fill="#005DC7"/>
<path d="M42.7835 127.693C41.6908 129.537 41.0101 132.099 40.5651 135.629C38.4426 135.699 37.1003 135.743 35.317 135.801C35.8334 133.656 37.3717 129.304 41.5117 128.202C41.9935 128.073 42.3873 127.882 42.7835 127.693Z" fill="#005DC7"/>
<path d="M50.9345 125.822C53.3066 125.778 54.7861 127.123 55.9086 129.017C57.0293 130.909 57.6215 133.285 57.8864 134.761C57.8985 134.836 57.8788 134.91 57.831 134.969C57.7827 135.028 57.7125 135.062 57.637 135.065C54.8514 135.158 48.8694 135.353 42.7004 135.557C43.2412 131.573 44.0831 129.115 45.2216 127.794C46.4783 126.336 48.1595 125.873 50.9345 125.822Z" fill="white"/>
<path d="M81.7426 124.581C82.5503 124.576 83.4088 124.617 84.3186 124.694C86.7636 124.903 88.4938 126.354 89.8006 128.23C91.1056 130.103 91.898 132.36 92.3033 133.83C92.3241 133.909 92.3083 133.991 92.2582 134.056C92.2083 134.121 92.1326 134.159 92.0499 134.159C88.3446 134.159 79.0561 134.159 71.8447 134.155C72.6035 129.862 73.9748 127.398 75.8291 126.093C77.3531 125.021 79.3192 124.596 81.7426 124.581Z" fill="white"/>
<path d="M31.39 119.935C31.4123 120.412 31.4829 120.889 31.6435 121.338C32.1361 122.717 33.2558 124.005 34.9045 124.447C38.6024 125.438 41.8106 123.396 43.5392 121.942C43.6714 122.605 43.7437 123.254 43.6541 123.804C43.4877 124.826 43.0361 125.624 40.9688 126.175C35.0252 127.758 33.512 133.832 33.1529 135.873C31.7478 135.919 29.1531 136.006 28.3922 136.03C28.3913 136.03 28.3905 136.03 28.3897 136.03C28.2606 136.034 28.1609 135.957 28.1331 135.831C28.1323 135.828 28.1313 135.825 28.1304 135.822C27.3322 132.344 28.0799 130.549 28.8975 129.521C29.715 128.493 30.6075 128.249 30.6075 128.249C30.7755 128.201 30.929 128.112 31.0538 127.99C31.1787 127.867 31.271 127.716 31.3225 127.549C31.3741 127.382 31.383 127.205 31.3487 127.034C31.3144 126.863 31.238 126.703 31.1262 126.569C29.7809 124.954 29.3718 123.738 29.3633 122.865C29.3549 121.991 29.7137 121.349 30.2837 120.77C30.6098 120.44 30.9971 120.17 31.3889 119.935L31.39 119.935Z" fill="white"/>
<path d="M64.8543 118.082C64.8158 118.169 64.7733 118.221 64.7368 118.311C64.4816 118.939 64.2663 119.638 64.2838 120.402C64.3014 121.166 64.6629 122.065 65.4438 122.57C66.8639 123.49 69.0925 123.708 71.5272 123.274C73.6319 122.899 75.8762 121.907 77.394 119.966C77.5555 120.122 77.7066 120.29 77.7849 120.473C77.9028 120.748 77.9542 120.992 77.6982 121.506C77.4423 122.02 76.7919 122.787 75.4387 123.697C72.6407 125.581 70.1099 126.603 68.0661 128.09C66.228 129.427 64.8648 131.282 64.4813 134.153C64.1119 134.153 63.6737 134.151 63.3936 134.151C63.26 134.151 63.1637 134.066 63.1417 133.936C62.9113 131.55 63.1672 128.45 63.4875 125.958C63.6022 126.014 63.7172 126.068 63.8318 126.121C65.8645 127.048 67.9152 127.394 67.9152 127.394C68.0512 127.417 68.1905 127.414 68.3252 127.383C68.4598 127.353 68.5872 127.297 68.7001 127.217C68.8129 127.138 68.909 127.037 68.9828 126.921C69.0566 126.804 69.1066 126.674 69.1301 126.539C69.1776 126.264 69.1141 125.983 68.9537 125.755C68.7932 125.528 68.5489 125.374 68.2744 125.326C68.2744 125.326 66.427 124.997 64.7045 124.212C63.8433 123.819 63.0354 123.31 62.5332 122.761C62.0311 122.213 61.8129 121.713 61.9109 121.001C62.1362 119.367 63.2184 118.639 64.4418 118.182C64.5932 118.125 64.7061 118.125 64.8543 118.081V118.082Z" fill="white"/>
<path d="M11.8235 109.141C11.887 109.144 11.9469 109.171 11.9933 109.217C13.3494 110.622 15.3954 112.742 16.7145 113.621C17.6427 114.238 18.7796 114.466 19.8369 114.157C19.9896 114.541 19.9372 114.779 19.8445 114.969C19.7326 115.198 19.4226 115.47 18.9307 115.659C17.1654 114.428 14.2219 112.068 14.2219 112.068C14.1145 111.981 13.9911 111.917 13.8587 111.878C13.7263 111.839 13.5875 111.827 13.4503 111.841C13.313 111.856 13.1801 111.898 13.0589 111.964C12.9378 112.03 12.8309 112.119 12.7443 112.227C12.5696 112.443 12.4882 112.72 12.518 112.997C12.5479 113.274 12.6864 113.527 12.9033 113.701C12.9033 113.701 16.2504 116.404 18.1442 117.665C18.563 117.944 18.6913 118.188 18.7291 118.33C18.767 118.471 18.7454 118.546 18.6752 118.646C18.5349 118.844 18.0907 119.138 17.23 118.721C16.6202 118.426 14.7562 117.505 13.1096 116.69C12.6979 116.063 12.2985 115.392 11.9691 114.689C11.1422 112.924 10.7711 111.1 11.5673 109.298C11.6026 109.218 11.6727 109.162 11.7592 109.146C11.7808 109.142 11.8023 109.14 11.8235 109.141Z" fill="white"/>
<path d="M13.2114 103.147C13.6639 103.14 14.0258 103.192 14.2909 103.284C14.4757 104.456 15.1308 105.528 15.9003 106.606C16.8074 107.877 17.9334 109.165 18.9479 110.459C19.5158 111.184 19.6482 111.671 19.6518 111.837C19.6544 111.91 19.6553 111.929 19.6492 111.944C19.6431 111.948 19.6369 111.951 19.6308 111.955C19.6182 111.966 19.6059 111.978 19.5938 111.989C19.5791 111.996 19.5789 111.996 19.5528 112.011C19.3074 112.159 18.2679 112.133 17.8792 111.875C17.1321 111.377 14.8229 109.126 13.491 107.747C13.4864 107.742 13.4817 107.737 13.477 107.733C12.9258 107.183 12.1355 106.939 11.3705 107.083C10.6056 107.226 9.95766 107.739 9.64359 108.451C8.5338 110.964 9.0965 113.511 10.0648 115.578C11.0332 117.644 12.4252 119.356 13.1565 120.378C13.8078 121.289 13.5705 121.801 13.4028 121.973C13.3189 122.059 13.2503 122.088 13.1273 122.078C13.0042 122.067 12.7849 122.001 12.4926 121.672C10.8957 119.873 8.27308 115.82 6.63386 112.829C5.30633 110.407 4.9854 107.429 5.01119 105.115C6.15645 104.893 7.39033 104.511 8.62209 104.144C9.98811 103.736 11.3478 103.351 12.4509 103.206C12.7267 103.169 12.981 103.151 13.2114 103.147Z" fill="white"/>
<path d="M10.6738 97.3578C10.7476 97.3578 10.8193 97.3579 10.8893 97.3605C11.4492 97.3806 11.8882 97.5003 12.2407 97.6689C12.9456 98.006 13.3935 98.5826 13.7085 99.3015C13.9663 99.8898 14.0844 100.522 14.1549 101.088C13.5177 101 12.8459 101.037 12.177 101.125C10.8296 101.303 9.39921 101.722 8.02126 102.133C6.64332 102.544 5.31506 102.946 4.29749 103.114C3.27995 103.281 2.73612 103.125 2.65673 103.045C2.2843 102.674 2.13128 102.335 2.10519 102.016C2.07919 101.697 2.16391 101.334 2.53514 100.853C3.27759 99.8896 5.24803 98.6293 8.81189 97.6499C9.54373 97.4488 10.1569 97.3628 10.6738 97.3578Z" fill="white"/>
<path d="M22.0231 73.6831C26.6188 77.6486 47.6514 95.7971 51.1083 98.7799C51.5979 99.2024 52.2402 99.4057 52.8835 99.3429C59.0302 98.7427 112.493 93.5219 114.709 93.3055C114.666 93.3934 114.643 93.4709 114.575 93.5704C114.052 94.3326 112.547 95.5231 108.449 96.1841C105.456 96.667 92.7274 98.2806 80.1197 99.8455C67.512 101.41 54.962 102.938 52.1083 103.285C52.0311 103.294 51.9559 103.269 51.899 103.217C48.284 99.8925 26.5788 79.933 21.175 74.9638C21.5188 74.5245 21.7969 74.0977 22.0231 73.6831Z" fill="#005DC7"/>
<path d="M82.7712 66.867L113.223 91.3414C108.967 91.757 58.6987 96.6664 52.6793 97.2543C52.6073 97.2614 52.5364 97.2386 52.4823 97.1918C48.9507 94.1446 26.6142 74.8713 22.7691 71.5535C22.8012 71.3523 22.8232 71.156 22.8337 70.9643L82.7712 66.867Z" fill="#005DC7"/>
<path d="M79.737 67.7943C79.5575 67.7892 79.3736 67.7958 79.1901 67.8137C78.6333 67.8683 78.1097 68.0248 77.7343 68.2485C77.3588 68.4723 77.1624 68.745 77.1881 69.0068C77.2007 69.1365 77.2676 69.2596 77.3849 69.3691C77.5021 69.4786 77.6674 69.5723 77.8714 69.6449C78.0753 69.7175 78.3139 69.7676 78.5735 69.7922C78.8331 69.8169 79.1087 69.8156 79.3845 69.7886C79.6603 69.7615 79.9308 69.7092 80.1806 69.6346C80.4305 69.5599 80.6548 69.4644 80.8407 69.3536C81.0266 69.2427 81.1706 69.1187 81.2642 68.9885C81.3579 68.8583 81.3994 68.7246 81.3865 68.5949C81.365 68.3777 81.1916 68.1815 80.8934 68.0367C80.5952 67.892 80.1887 67.8068 79.737 67.7943Z" fill="black"/>
<path d="M34.9553 23.285C34.9936 23.8397 35.0617 24.3824 35.1569 24.9095C36.623 24.5127 38.0893 24.7172 39.5554 25.5442C38.1193 26.1197 37.0059 27.0151 36.1974 28.2159C37.4273 30.8316 39.4385 32.6481 41.7574 32.9976C41.5931 33.3999 41.4207 33.7915 41.2326 34.158C39.7538 37.0392 37.6715 38.659 35.5232 38.659C33.5964 38.659 31.7363 37.3719 30.2911 35.0104C28.8581 32.669 27.9227 29.3358 27.9069 25.6385C30.2314 24.5469 32.5744 23.7408 34.9553 23.285Z" fill="white"/>
<path d="M48.8997 22.9238C48.927 23.4998 48.9846 24.0643 49.0731 24.6123C50.2851 24.4572 51.4971 24.715 52.7091 25.3987C51.5407 25.8668 50.5862 26.547 49.8355 27.431C50.6942 29.6258 52.0751 31.3551 53.7404 32.2819C53.5484 32.678 53.3454 33.0563 53.1293 33.4095C51.6874 35.7654 49.8234 37.0642 47.8689 37.0642C46.2493 37.0642 44.7015 36.1758 43.3894 34.5253C44.565 31.9921 45.2426 28.8933 45.2426 25.5442C45.2426 24.9309 45.2179 24.3269 45.1738 23.7322C46.4627 23.3968 47.7053 23.1274 48.8997 22.9238Z" fill="white"/>
<path d="M11.6665 20.6231C15.7395 20.6307 24.657 20.6472 26.3107 20.6502C25.9817 22.1888 25.8038 23.8331 25.8038 25.5442C25.8038 29.6262 26.8048 33.3384 28.4979 36.1046C30.1909 38.8709 32.6657 40.7573 35.5232 40.7573C38.2505 40.7573 40.6132 39.0507 42.3058 36.4786C43.8421 38.156 45.7586 39.204 47.8689 39.204C50.6989 39.204 53.1697 37.3297 54.866 34.558C56.5623 31.7863 57.5667 28.0633 57.5667 23.9704C57.5667 23.203 57.5316 22.4483 57.4631 21.7107C57.4762 21.5702 57.4608 21.4286 57.4179 21.2942C57.3961 21.0977 57.3721 20.9025 57.3456 20.7086C58.6889 20.7112 62.8435 20.7188 64.9999 20.723C65.0007 20.723 65.0016 20.723 65.0024 20.723C65.1216 20.723 65.2189 20.7962 65.2523 20.9131C67.0089 27.0596 76.3781 59.8413 76.9639 61.8911L23.0943 64.2205C22.75 62.945 13.5862 29.004 11.4125 20.953C11.391 20.8737 11.4075 20.7916 11.4582 20.7256C11.509 20.6602 11.584 20.6229 11.6665 20.6231Z" fill="#01B83F"/>
<path d="M5.78384 18.7087L17.3389 65.6605C17.0162 65.703 16.6805 65.7698 16.3303 65.865L6.64065 27.3127C6.06466 24.6901 5.62752 22.3441 5.61761 20.5237C5.61394 19.8264 5.66803 19.2263 5.78384 18.7087Z" fill="#005DC7"/>
<path d="M7.53905 17.0488H27.44C27.2333 17.5323 27.0438 18.0337 26.8736 18.5529C25.8418 18.5503 15.899 18.5328 11.6707 18.5248H11.6681C10.9325 18.5221 10.2366 18.8656 9.78881 19.4474C9.34156 20.0297 9.19017 20.7902 9.38195 21.4997C11.5965 29.7021 21.2828 65.5786 21.2828 65.5786C21.345 65.8088 21.4838 66.011 21.6765 66.1519C21.8692 66.2928 22.1042 66.364 22.3428 66.3537L78.3836 63.93C78.5422 63.9232 78.6972 63.8805 78.8369 63.8053C78.9766 63.73 79.0975 63.6241 79.1904 63.4955C79.2833 63.367 79.3458 63.219 79.3732 63.0629C79.4006 62.9067 79.3922 62.7464 79.3487 62.594C79.3487 62.594 69.0834 26.6767 67.2718 20.3378C66.984 19.3302 66.0528 18.6247 65.001 18.6247C62.7327 18.6205 57.9496 18.6116 56.9552 18.6097C56.8287 18.0751 56.6836 17.5544 56.5207 17.0492H67.6427C67.7643 17.0492 67.8608 17.1215 67.8947 17.2378C69.8415 23.9321 81.1412 62.789 81.7359 64.8341L22.5665 68.8792C22.422 68.4149 22.2422 68.0036 22.0688 67.6574C21.6708 66.8623 20.7982 66.0965 19.5282 65.768L7.53905 17.0488Z" fill="#005DC7"/>
<path d="M84.957 14.3501C85.2716 14.3543 85.5609 14.3786 85.8174 14.4249C87.8826 14.7979 90.2428 17.5426 91.8935 20.3655C93.3285 22.8193 94.2302 25.0838 94.4531 25.6631C94.1146 27.7887 93.2773 29.6706 91.9469 31.3814C91.776 31.6011 91.6996 31.8796 91.7343 32.1556C91.7691 32.4316 91.9121 32.6825 92.1321 32.8532C92.241 32.9377 92.3656 33 92.4986 33.0365C92.6317 33.0729 92.7708 33.0828 92.9077 33.0657C93.0446 33.0485 93.1768 33.0046 93.2967 32.9364C93.4166 32.8682 93.5219 32.7771 93.6066 32.6683C95.0031 30.8727 95.9576 28.8507 96.4135 26.6314C96.5942 26.6598 96.7385 26.6982 96.8368 26.7405C97.0531 26.8334 97.092 26.8924 97.1446 27.0125C97.2498 27.2529 97.2231 28.0327 96.7773 29.0755C95.8857 31.1613 93.6624 34.0438 91.5487 36.1268C90.5531 37.1078 89.8596 37.3781 89.5088 37.406C89.158 37.4338 88.9887 37.3267 88.7284 37.0274C88.5279 36.7967 88.3601 36.4636 88.2287 36.1406C89.0693 36.0809 89.6514 35.9367 89.6514 35.9367C89.7856 35.9044 89.9121 35.8459 90.0237 35.7648C90.1352 35.6836 90.2295 35.5813 90.3015 35.4637C90.3734 35.3461 90.4214 35.2155 90.4428 35.0794C90.4642 34.9432 90.4586 34.8042 90.4261 34.6703C90.3938 34.5363 90.3353 34.4101 90.254 34.2987C90.1727 34.1873 90.0702 34.093 89.9525 34.0212C89.8347 33.9493 89.7039 33.9014 89.5676 33.88C89.4312 33.8587 89.292 33.8644 89.1579 33.8967C89.1579 33.8967 87.7328 34.2134 86.4433 33.9746C85.7985 33.8552 85.2379 33.6126 84.8502 33.2077C84.4626 32.8028 84.1664 32.207 84.173 31.0668C84.1745 30.7951 84.0705 30.5335 83.8827 30.3369C83.695 30.1402 83.4382 30.0239 83.1664 30.0125C80.366 29.8954 78.7742 29.3554 78.1928 28.9085C77.9021 28.6851 77.8505 28.5469 77.829 28.4085C77.8078 28.2701 77.8345 28.0561 78.0055 27.7451C78.3473 27.1231 79.2689 26.2622 80.4728 25.5776C81.6767 24.893 83.1502 24.3568 84.5404 24.157C84.8162 24.1173 85.0649 23.9699 85.2318 23.7471C85.3988 23.5243 85.4702 23.2444 85.4305 22.969C85.3908 22.6936 85.2431 22.4452 85.0199 22.2785C84.7968 22.1118 84.5165 22.0405 84.2407 22.0801C82.542 22.3243 80.8606 22.9424 79.4329 23.7543C78.6369 24.207 77.9206 24.7133 77.3247 25.2774C76.3335 24.7255 75.9782 24.1941 75.8825 23.7738C75.7679 23.271 75.9696 22.6218 76.5946 21.8516C77.8509 20.3041 80.6721 18.7248 82.6641 18.2712C82.7987 18.2406 82.9259 18.1838 83.0385 18.1041C83.1511 18.0244 83.2468 17.9234 83.3203 17.8068C83.3938 17.6901 83.4435 17.5602 83.4667 17.4243C83.4898 17.2885 83.4859 17.1494 83.4552 17.0151C83.3932 16.7438 83.2258 16.5083 82.9899 16.3602C82.754 16.2122 82.4689 16.1638 82.1972 16.2256C79.9514 16.737 77.348 18.0634 75.5865 19.8404C75.3215 19.6422 75.1451 19.4597 75.057 19.3189C74.9094 19.0829 74.9017 18.9671 74.9657 18.7318C75.0935 18.2611 75.8717 17.3701 77.1205 16.6114C79.306 15.2837 82.7544 14.3216 84.957 14.3501Z" fill="white"/>
<path d="M35.5232 12.4294C37.281 12.4294 38.9709 13.4904 40.3629 15.4791C41.3625 16.9071 42.1631 18.7936 42.644 20.954C41.5996 20.8233 40.5636 20.7574 39.5364 20.7558C35.5693 20.7495 31.731 21.6745 28.0244 23.2798C28.3182 20.4592 29.1448 17.9509 30.2911 16.078C31.7363 13.7166 33.5964 12.4294 35.5232 12.4294Z" fill="white"/>
<path d="M47.869 10.8766C49.8234 10.8766 51.6875 12.1754 53.1293 14.5313C54.0966 16.1119 54.8349 18.1448 55.2175 20.4355C54.709 20.399 54.1912 20.3796 53.6634 20.3792C50.9819 20.3766 48.0548 20.8314 44.9235 21.6307C44.4904 19.0289 43.6314 16.6929 42.4423 14.8136C43.8916 12.2948 45.8384 10.8766 47.869 10.8766Z" fill="white"/>
<path d="M84.1283 2.11134C84.1735 2.11134 84.2058 2.11556 84.2227 2.12107C84.2903 2.1431 84.3624 2.10848 84.4808 2.63491C84.5992 3.16134 84.6167 4.17121 84.3592 5.69691C83.9808 7.93758 84.3657 10.1928 85.0421 12.2369C85.0287 12.2369 85.0161 12.2343 85.0025 12.2343C83.0693 12.1601 80.85 12.653 78.8161 13.4551C78.423 11.1559 78.8121 8.93895 79.4944 7.11284C80.2921 4.9773 81.63 3.34696 82.0376 3.06056C82.4839 2.74693 82.9901 2.44379 83.4177 2.27162C83.7384 2.14249 83.9926 2.11024 84.1283 2.11134Z" fill="white"/>
<path d="M83.8631 70.4279C79.1955 70.8062 44.7989 73.595 34.3043 74.4459C33.3673 74.5221 32.559 75.1519 32.2572 76.0412C31.9554 76.9305 32.2135 77.9214 32.9118 78.5509C36.0205 81.3527 41.4098 86.2099 42.9519 87.5996C43.4373 88.0373 44.0843 88.2546 44.7358 88.1995C49.5938 87.7877 84.2393 84.8511 95.0914 83.9315C96.0484 83.8502 96.8671 83.1919 97.1503 82.2753C97.433 81.3586 97.1279 80.3539 96.3822 79.7486C92.9715 76.9791 87.134 72.2388 85.5454 70.9489C85.073 70.5655 84.4702 70.3792 83.8641 70.4279H83.8631Z" fill="black"/>
<path d="M55.0912 69.5888L28.9381 71.7405C28.6604 71.7633 28.4031 71.8954 28.2229 72.1076C28.0427 72.3198 27.9543 72.5948 27.9771 72.8721C28 73.1494 28.1322 73.4063 28.3447 73.5863C28.5573 73.7662 28.8327 73.8545 29.1105 73.8317L55.2636 71.68C55.5413 71.6572 55.7986 71.5251 55.9788 71.3129C56.159 71.1007 56.2474 70.8257 56.2245 70.5484C56.2017 70.2711 56.0695 70.0142 55.8569 69.8342C55.6444 69.6543 55.3689 69.566 55.0912 69.5888Z" fill="black"/>
<path d="M35.4427 55.362C35.235 55.3695 35.0343 55.4383 34.8658 55.5598C34.6973 55.6812 34.5686 55.8499 34.4961 56.0443C34.448 56.1735 34.4258 56.3108 34.4308 56.4485C34.4359 56.5862 34.468 56.7216 34.5254 56.8469C34.5828 56.9722 34.6643 57.085 34.7654 57.1788C34.8664 57.2726 34.985 57.3457 35.1144 57.3937C41.2933 59.6918 47.505 60.0196 53.5901 57.9998C53.7211 57.9563 53.8423 57.8875 53.9467 57.7973C54.051 57.7071 54.1365 57.5973 54.1983 57.4741C54.2602 57.3509 54.2972 57.2167 54.3071 57.0792C54.317 56.9418 54.2996 56.8037 54.256 56.6729C54.2125 56.5422 54.1436 56.4212 54.0532 56.3171C53.9629 56.2129 53.8529 56.1276 53.7295 56.0658C53.6061 56.0041 53.4717 55.9673 53.3341 55.9575C53.1964 55.9477 53.0582 55.965 52.9272 56.0085C47.3081 57.8737 41.6607 57.5895 35.8475 55.4275C35.7182 55.3793 35.5807 55.3571 35.4427 55.362Z" fill="black"/>
<path d="M61.3952 36.3675C61.158 36.3484 60.9212 36.4104 60.7238 36.5432C60.5263 36.676 60.38 36.8718 60.3086 37.0986C60.2366 37.3292 60.2465 37.5776 60.3367 37.8018C60.4269 38.026 60.5919 38.2123 60.8037 38.3291C59.4636 39.329 58.1105 40.2079 56.7439 40.9644C56.7339 40.9673 56.724 40.9703 56.7141 40.9735C48.312 45.5924 39.3865 45.7749 29.9381 42.9612C29.8078 42.9223 29.6777 42.884 29.5472 42.8439C29.3347 42.7789 29.122 42.7116 28.9089 42.6436C28.7373 42.5887 28.5653 42.5329 28.3933 42.4761C28.2007 42.4125 28.0081 42.3483 27.8151 42.2824C27.7031 42.2441 27.5907 42.2042 27.4785 42.1651C27.199 42.0678 26.9176 41.96 26.6371 41.8577C26.7508 41.6948 26.8726 41.5481 26.9968 41.4156C27.559 40.816 28.1075 40.5908 28.1075 40.5908C28.3652 40.4849 28.5701 40.2811 28.6773 40.0243C28.7845 39.7675 28.7851 39.4787 28.6791 39.2215C28.6266 39.094 28.5494 38.9782 28.4521 38.8805C28.3547 38.7829 28.2389 38.7054 28.1115 38.6524C27.9841 38.5994 27.8475 38.5719 27.7095 38.5717C27.5715 38.5714 27.4348 38.5983 27.3072 38.6508C27.3072 38.6508 26.3358 39.0504 25.4627 39.9817C24.9884 40.4877 24.5284 41.1816 24.2381 42.0483C24.2318 42.0566 24.2257 42.065 24.2197 42.0735C24.2178 42.0881 24.2162 42.1028 24.215 42.1175C23.986 42.8306 23.8724 43.658 23.9595 44.5924C23.9722 44.7296 24.0118 44.863 24.0762 44.9849C24.1406 45.1068 24.2284 45.2148 24.3346 45.3029C24.4408 45.3909 24.5633 45.4571 24.6952 45.4978C24.827 45.5386 24.9657 45.5529 25.1031 45.5402C25.1875 45.5323 25.2708 45.5143 25.3509 45.4865C27.0551 48.6242 29.8014 51.0622 32.9677 52.7892C36.9996 54.9882 41.7262 56.0779 46.0779 56.0643C50.4296 56.0507 54.4491 54.9598 56.9804 52.4906C59.3521 50.1769 60.1558 46.6083 58.5401 42.3373C59.9819 41.4977 61.4059 40.5327 62.8097 39.4362C63.3358 39.9935 63.6322 40.7701 63.725 41.9131C63.7362 42.0505 63.7742 42.1843 63.8371 42.307C63.9001 42.4296 63.9866 42.5387 64.0917 42.6279C64.1969 42.7172 64.3186 42.7848 64.45 42.8271C64.5813 42.8693 64.7198 42.8854 64.8573 42.8743C65.1351 42.8517 65.3924 42.7199 65.5728 42.5078C65.7532 42.2958 65.8419 42.0209 65.8193 41.7436C65.6652 39.8447 64.8204 38.3743 63.5609 37.4076C63.465 37.3049 63.3495 37.2225 63.2212 37.1652C62.737 36.8455 62.2007 36.5933 61.6261 36.4126C61.5511 36.389 61.4736 36.3739 61.3952 36.3675Z" fill="black"/>
<path d="M43.6644 47.7953C47.1725 47.7953 49.2388 49.7288 47.4882 53.9152C47.0238 53.947 46.5513 53.9644 46.0712 53.9659C42.1479 53.978 37.8056 52.9863 34.1657 51.0473C37.4553 48.9314 40.9791 47.7962 43.6644 47.7953Z" fill="#FF9CAE"/>
<path d="M26.9922 35.3598C26.8827 35.3461 26.7717 35.3498 26.6633 35.3706C24.2237 35.8382 22.3253 37.2414 21.1449 39.3055C19.9644 41.3696 19.4344 44.0406 19.3686 47.2338C19.3658 47.3716 19.3902 47.5086 19.4403 47.637C19.4905 47.7653 19.5655 47.8826 19.6611 47.9821C19.7567 48.0815 19.871 48.1611 19.9974 48.2164C20.1238 48.2718 20.2599 48.3017 20.3978 48.3045C20.5358 48.3073 20.673 48.283 20.8016 48.2329C20.9302 48.1828 21.0476 48.1079 21.1472 48.0125C21.2467 47.917 21.3266 47.803 21.382 47.6767C21.4374 47.5505 21.4673 47.4146 21.4701 47.2768C21.5315 44.2969 22.0482 41.9574 22.9698 40.346C23.8914 38.7346 25.15 37.7975 27.0594 37.4315C27.195 37.4056 27.3241 37.3532 27.4394 37.2775C27.5547 37.2017 27.6539 37.104 27.7314 36.9899C27.8088 36.8758 27.8631 36.7476 27.8909 36.6126C27.9188 36.4775 27.9197 36.3384 27.8936 36.203C27.8518 35.9854 27.7421 35.7866 27.5801 35.6352C27.4182 35.4837 27.2124 35.3873 26.9922 35.3598Z" fill="black"/>
<path d="M82.7134 85.4909C82.6657 85.4907 82.6181 85.4935 82.5702 85.498L82.5665 85.4943C81.2488 85.6334 69.5417 86.8686 66.7633 87.1619C66.2509 87.2166 65.8114 87.5722 65.6525 88.0625C65.6525 88.0634 65.6525 88.0643 65.6525 88.0651C65.4942 88.5564 65.642 89.1004 66.0281 89.4448C67.2556 90.5396 70.6541 93.5714 71.251 94.1036C71.5356 94.3577 71.9204 94.4767 72.3012 94.4254C73.5884 94.2554 84.8118 92.7727 87.4329 92.4264C87.9319 92.3611 88.3556 92.0099 88.5113 91.5319C88.6668 91.0535 88.5313 90.5232 88.1681 90.1773C87.0899 89.1533 84.1577 86.3688 83.6126 85.851C83.3703 85.6215 83.0468 85.4925 82.7134 85.4909Z" fill="black"/>
<path d="M37.1014 76.3251L47.1435 85.8901C46.7442 85.924 44.8072 86.0882 44.5577 86.1094C44.4844 86.1157 44.4142 86.0916 44.3602 86.0428C42.8183 84.6532 37.4287 79.796 34.3202 76.9941C34.2404 76.9222 34.2128 76.817 34.2473 76.7154C34.2818 76.6136 34.3671 76.5471 34.4746 76.5382C35.0308 76.4931 36.4189 76.3804 37.1014 76.3251Z" fill="#FFB900"/>
<path d="M43.1339 75.8358L53.0575 85.3891C52.2286 85.4593 50.5967 85.5977 49.9396 85.6534L39.9068 76.0976C40.8894 76.0179 42.0132 75.9267 43.1339 75.8358Z" fill="#FFB900"/>
<path d="M49.8725 75.2896L59.6267 84.8322C58.2817 84.9462 57.0071 85.0545 55.8404 85.1534L45.9271 75.6093C47.414 75.4888 48.2667 75.4198 49.8725 75.2896Z" fill="#FFB900"/>
<path d="M56.4591 74.7559L65.9809 84.2938C64.5187 84.4177 63.7617 84.4819 62.3901 84.5981L52.6455 75.0648C54.2471 74.935 54.8318 74.8878 56.4591 74.7559Z" fill="#FFB900"/>
<path d="M61.6019 74.3388L71.1776 83.8537C70.133 83.9423 69.7484 83.9748 68.717 84.0622L59.2044 74.533C60.2201 74.4507 60.6057 74.4196 61.6019 74.3388Z" fill="#FFB900"/>
<path d="M67.3702 73.8711L77.0552 83.3552C75.7497 83.4659 75.2528 83.5079 73.923 83.6206L64.356 74.1155C65.5616 74.0177 66.2392 73.9628 67.3702 73.8711Z" fill="#FFB900"/>
<path d="M73.805 73.3496L83.5931 82.8009C82.1805 82.9207 81.3401 82.9921 79.818 83.1211L70.1423 73.6467C71.4075 73.5442 72.7219 73.4374 73.805 73.3496Z" fill="#FFB900"/>
<path d="M79.7053 72.8712L89.6068 82.2913C88.6257 82.3744 87.4885 82.4707 86.3719 82.5653L76.5941 73.1232C77.3715 73.0602 79.1119 72.9193 79.7053 72.8712Z" fill="#FFB900"/>
<path d="M84.0338 72.5191C84.102 72.5136 84.1679 72.534 84.2206 72.577C85.8089 73.8665 91.6467 78.6071 95.0574 81.3767C95.1426 81.4458 95.1748 81.5518 95.1426 81.6569C95.11 81.7622 95.0237 81.8319 94.9132 81.8413C94.3725 81.8871 93.0566 81.9987 92.4044 82.0539L82.5126 72.6436C82.7104 72.6276 83.8911 72.5317 84.0344 72.5201L84.0338 72.5191Z" fill="#FFB900"/>
<path d="M82.4265 87.6196C82.9758 88.1415 84.3279 89.4253 85.5233 90.5607C81.8211 91.0499 73.8932 92.0975 72.3793 92.2974C71.7732 91.7569 70.1479 90.3073 68.7525 89.0628C72.6762 88.6487 80.8841 87.7824 82.4265 87.6196Z" fill="#FFB900"/>
<path d="M82.1622 87.3686L82.1651 87.3715H82.1622V87.3686Z" fill="#FF9CAE"/>
<path fill-rule="evenodd" clip-rule="evenodd" d="M88.7447 74.2714L35.865 78.231C35.7273 78.2413 35.593 78.2785 35.4698 78.3406C35.3466 78.4027 35.2369 78.4885 35.1468 78.5929C35.0568 78.6974 34.9882 78.8186 34.9451 78.9495C34.9019 79.0804 34.8851 79.2185 34.8954 79.3559C34.9057 79.4934 34.943 79.6275 35.0052 79.7505C35.0674 79.8736 35.1533 79.9832 35.2579 80.0731C35.3625 80.163 35.4839 80.2314 35.615 80.2745C35.7461 80.3176 35.8843 80.3344 36.022 80.3241L88.9037 76.3625C89.1814 76.3413 89.4392 76.2109 89.6206 76C89.802 75.7891 89.8923 75.5149 89.8714 75.2376C89.8501 74.9603 89.7195 74.7028 89.5082 74.5217C89.297 74.3405 89.0224 74.2505 88.7447 74.2714Z" fill="black"/>
<path fill-rule="evenodd" clip-rule="evenodd" d="M93.4896 78.1536L40.6099 82.1151C40.3322 82.1358 40.0742 82.2657 39.8925 82.4763C39.7107 82.6869 39.6199 82.9608 39.6403 83.2381C39.6506 83.3755 39.6879 83.5096 39.7501 83.6326C39.8123 83.7557 39.8982 83.8653 40.0028 83.9552C40.1074 84.0451 40.2288 84.1136 40.3599 84.1566C40.491 84.1997 40.6292 84.2165 40.7669 84.2062L93.6486 80.2466C93.9263 80.2254 94.184 80.095 94.3655 79.8841C94.5469 79.6732 94.6372 79.3989 94.6162 79.1217C94.606 78.9842 94.5686 78.8501 94.5064 78.7271C94.4443 78.604 94.3584 78.4944 94.2538 78.4045C94.1491 78.3146 94.0278 78.2462 93.8967 78.2031C93.7655 78.1601 93.6272 78.1432 93.4896 78.1536Z" fill="black"/>
<path d="M102.464 98.0001L98.216 86.3361H77.48L73.232 98.0001H62.72L82.304 46.9521H93.824L113.264 98.0001H102.464ZM87.848 57.9681L80.792 77.2641H94.904L87.848 57.9681Z" fill="white"/>
<path d="M140.921 98.0001C140.729 97.0401 140.633 95.7681 140.633 94.1841C139.721 95.7681 138.353 96.9681 136.529 97.7841C134.753 98.5521 132.857 98.9361 130.841 98.9361C126.665 98.9361 123.377 97.6161 120.977 94.9761C118.577 92.2881 117.377 88.9521 117.377 84.9681V62.5761H126.953V83.0241C126.953 85.1361 127.505 86.8641 128.609 88.2081C129.713 89.5041 131.321 90.1521 133.433 90.1521C135.497 90.1521 137.129 89.5281 138.329 88.2801C139.529 86.9841 140.129 85.2801 140.129 83.1681V62.5761H149.705V91.5921C149.705 93.8481 149.825 95.9841 150.065 98.0001H140.921Z" fill="white"/>
<path d="M171.732 51.9921V62.5761H178.861V71.0721H171.732V85.9041C171.732 87.3921 172.069 88.4481 172.741 89.0721C173.413 89.6961 174.469 90.0081 175.909 90.0081C177.205 90.0081 178.189 89.9121 178.861 89.7201V97.6401C177.469 98.2161 175.669 98.5041 173.461 98.5041C170.005 98.5041 167.269 97.5441 165.253 95.6241C163.237 93.6561 162.229 90.9681 162.229 87.5601V71.0721H155.821V62.5761H157.62C159.396 62.5761 160.741 62.0721 161.653 61.0641C162.613 60.0081 163.092 58.6401 163.092 56.9601V51.9921H171.732Z" fill="white"/>
<path d="M196.147 87.7041C197.923 89.4801 200.059 90.3681 202.555 90.3681C205.051 90.3681 207.163 89.4801 208.891 87.7041C210.667 85.9281 211.555 83.4561 211.555 80.2881C211.555 77.1201 210.667 74.6481 208.891 72.8721C207.163 71.0961 205.051 70.2081 202.555 70.2081C200.059 70.2081 197.923 71.0961 196.147 72.8721C194.419 74.6481 193.555 77.1201 193.555 80.2881C193.555 83.4561 194.419 85.9281 196.147 87.7041ZM189.235 66.8241C192.787 63.2721 197.227 61.4961 202.555 61.4961C207.883 61.4961 212.299 63.2721 215.803 66.8241C219.355 70.3761 221.131 74.8641 221.131 80.2881C221.131 85.7121 219.355 90.2001 215.803 93.7521C212.299 97.3041 207.883 99.0801 202.555 99.0801C197.227 99.0801 192.787 97.3041 189.235 93.7521C185.731 90.2001 183.979 85.7121 183.979 80.2881C183.979 74.8641 185.731 70.3761 189.235 66.8241Z" fill="white"/>
<path d="M226.17 99.9441L234.81 97.6401C235.146 99.6081 236.058 101.216 237.546 102.464C239.034 103.712 240.882 104.336 243.09 104.336C249.378 104.336 252.522 101.048 252.522 94.4721V91.8801C251.706 93.1761 250.458 94.2561 248.778 95.1201C247.098 95.9841 245.058 96.4161 242.658 96.4161C237.954 96.4161 234.018 94.7841 230.85 91.5201C227.73 88.2561 226.17 84.1521 226.17 79.2081C226.17 74.4081 227.73 70.3281 230.85 66.9681C233.97 63.6081 237.906 61.9281 242.658 61.9281C245.25 61.9281 247.41 62.4081 249.138 63.3681C250.866 64.2801 252.066 65.4081 252.738 66.7521V62.5761H261.954V94.1841C261.954 99.5121 260.418 103.928 257.346 107.432C254.274 110.984 249.618 112.76 243.378 112.76C238.722 112.76 234.81 111.512 231.642 109.016C228.522 106.52 226.698 103.496 226.17 99.9441ZM244.314 88.2081C246.762 88.2081 248.754 87.3921 250.29 85.7601C251.874 84.1281 252.666 81.9441 252.666 79.2081C252.666 76.5201 251.85 74.3601 250.218 72.7281C248.634 71.0961 246.666 70.2801 244.314 70.2801C241.866 70.2801 239.826 71.0961 238.194 72.7281C236.61 74.3601 235.818 76.5201 235.818 79.2081C235.818 81.9441 236.61 84.1281 238.194 85.7601C239.778 87.3921 241.818 88.2081 244.314 88.2081Z" fill="white"/>
<path d="M281.227 98.0001H271.651V62.5761H281.227V98.0001ZM270.499 50.9841C270.499 49.3521 271.075 47.9601 272.227 46.8081C273.379 45.6081 274.771 45.0081 276.403 45.0081C278.035 45.0081 279.427 45.5841 280.579 46.7361C281.731 47.8881 282.307 49.3041 282.307 50.9841C282.307 52.5681 281.731 53.9361 280.579 55.0881C279.427 56.2401 278.035 56.8161 276.403 56.8161C274.771 56.8161 273.379 56.2401 272.227 55.0881C271.075 53.9361 270.499 52.5681 270.499 50.9841Z" fill="white"/>
<path d="M288.959 99.9441L297.599 97.6401C297.935 99.6081 298.847 101.216 300.335 102.464C301.823 103.712 303.671 104.336 305.879 104.336C312.167 104.336 315.311 101.048 315.311 94.4721V91.8801C314.495 93.1761 313.247 94.2561 311.567 95.1201C309.887 95.9841 307.847 96.4161 305.447 96.4161C300.743 96.4161 296.807 94.7841 293.639 91.5201C290.519 88.2561 288.959 84.1521 288.959 79.2081C288.959 74.4081 290.519 70.3281 293.639 66.9681C296.759 63.6081 300.695 61.9281 305.447 61.9281C308.039 61.9281 310.199 62.4081 311.927 63.3681C313.655 64.2801 314.855 65.4081 315.527 66.7521V62.5761H324.743V94.1841C324.743 99.5121 323.207 103.928 320.135 107.432C317.063 110.984 312.407 112.76 306.167 112.76C301.511 112.76 297.599 111.512 294.431 109.016C291.311 106.52 289.487 103.496 288.959 99.9441ZM307.103 88.2081C309.551 88.2081 311.543 87.3921 313.079 85.7601C314.663 84.1281 315.455 81.9441 315.455 79.2081C315.455 76.5201 314.639 74.3601 313.007 72.7281C311.423 71.0961 309.455 70.2801 307.103 70.2801C304.655 70.2801 302.615 71.0961 300.983 72.7281C299.399 74.3601 298.607 76.5201 298.607 79.2081C298.607 81.9441 299.399 84.1281 300.983 85.7601C302.567 87.3921 304.607 88.2081 307.103 88.2081Z" fill="white"/>
<path fill-rule="evenodd" clip-rule="evenodd" d="M98.9637 103L94.7157 91.3361H80.9803L76.7323 103H55.4465L78.8669 41.9521H97.2702L112.377 81.6215V57.5761H131.953V83.0241C131.953 84.1695 132.22 84.7053 132.436 84.9879C132.449 84.9995 132.469 85.0111 132.512 85.0285C132.608 85.0671 132.882 85.1521 133.433 85.1521C134.304 85.1521 134.583 84.9522 134.69 84.8495C134.872 84.641 135.129 84.2218 135.129 83.1681V57.5761H157.62C157.8 57.5761 157.933 57.5652 158.027 57.5526C158.054 57.4593 158.092 57.2737 158.092 56.9601V46.9921H176.732V57.5761H183.861V65.3764C184.417 64.6638 185.022 63.9755 185.676 63.3127L185.688 63.3006L185.7 63.2886C190.251 58.7376 195.99 56.4961 202.555 56.4961C209.114 56.4961 214.84 58.7346 219.35 63.2995C221.051 65.0032 222.427 66.8774 223.483 68.9018C224.427 66.9927 225.661 65.2087 227.186 63.5659C231.29 59.1459 236.573 56.9281 242.658 56.9281C244.499 56.9281 246.297 57.1244 248.001 57.5761H267.762C266.294 55.7017 265.499 53.4565 265.499 50.9841C265.499 48.0458 266.587 45.395 268.655 43.309C270.725 41.1715 273.397 40.0081 276.403 40.0081C279.359 40.0081 282.023 41.1091 284.115 43.2006C286.236 45.3225 287.307 48.0243 287.307 50.9841C287.307 53.4565 286.512 55.7017 285.044 57.5761H286.227V68.9937C287.177 67.05 288.425 65.235 289.975 63.5659C294.079 59.1459 299.362 56.9281 305.447 56.9281C307.288 56.9281 309.086 57.1244 310.79 57.5761H329.743V94.1841C329.743 100.534 327.884 106.172 323.905 110.716C319.597 115.689 313.347 117.76 306.167 117.76C300.57 117.76 295.519 116.239 291.337 112.944L291.322 112.932L291.308 112.92C287.963 110.245 285.613 106.922 284.509 103H266.651V98.4812C265.978 103.09 264.172 107.226 261.116 110.716C256.808 115.689 250.558 117.76 243.378 117.76C237.781 117.76 232.73 116.239 228.548 112.944L228.533 112.932L228.519 112.92C224.533 109.732 221.96 105.624 221.224 100.679L220.568 96.2633L226.87 94.5829C225.742 93.3465 224.786 92.0227 223.998 90.6201C222.889 93.0515 221.343 95.2815 219.349 97.2774C214.839 101.842 209.114 104.08 202.555 104.08C195.99 104.08 190.251 101.839 185.7 97.2877L185.688 97.2756L185.676 97.2635C185.022 96.6008 184.417 95.9125 183.861 95.1999V100.982L180.772 102.26C178.561 103.175 176.046 103.504 173.461 103.504C169.046 103.504 164.962 102.252 161.804 99.2448L161.782 99.2235L161.76 99.202C158.583 96.1008 157.229 92.0125 157.229 87.5601V76.0721H154.705V91.5921C154.705 93.672 154.816 95.6094 155.03 97.4091L155.696 103H136.855C134.923 103.628 132.911 103.936 130.841 103.936C126.587 103.936 122.71 102.828 119.532 100.41L120.518 103H98.9637ZM135.862 98.0525C136.086 97.9689 136.308 97.8795 136.529 97.7841C138.353 96.9681 139.721 95.7681 140.633 94.1841C140.633 95.7681 140.729 97.0401 140.921 98.0001H150.065C149.875 96.4083 149.761 94.7416 149.721 93.0001C149.71 92.5361 149.705 92.0668 149.705 91.5921V62.5761H140.129V83.1681C140.129 84.0372 140.027 84.8372 139.824 85.5681C139.534 86.6134 139.035 87.5174 138.329 88.2801C138.278 88.3336 138.225 88.3859 138.172 88.4371C136.988 89.5805 135.409 90.1521 133.433 90.1521C131.321 90.1521 129.713 89.5041 128.609 88.2081C127.505 86.8641 126.953 85.1361 126.953 83.0241V62.5761H117.377V84.9681C117.377 88.9521 118.577 92.2881 120.977 94.9761C123.377 97.6161 126.665 98.9361 130.841 98.9361C132.607 98.9361 134.28 98.6416 135.862 98.0525ZM179.278 84.4006C179.079 83.0697 178.979 81.6976 178.979 80.2881C178.979 78.8421 179.084 77.4354 179.294 76.0721H176.732V84.9889C176.884 84.981 177.018 84.971 177.133 84.9598C177.385 84.9352 177.494 84.91 177.498 84.9094L179.278 84.4006ZM171.732 71.0721H178.861V62.5761H171.732V51.9921H163.092V56.9601C163.092 58.6401 162.613 60.0081 161.653 61.0641C160.741 62.0721 159.396 62.5761 157.62 62.5761H155.821V71.0721H162.229V87.5601C162.229 90.9681 163.237 93.6561 165.253 95.6241C167.269 97.5441 170.005 98.5041 173.461 98.5041C175.669 98.5041 177.469 98.2161 178.861 97.6401V89.7201C178.189 89.9121 177.205 90.0081 175.909 90.0081C175.11 90.0081 174.429 89.9121 173.867 89.7201C173.415 89.566 173.04 89.35 172.741 89.0721C172.069 88.4481 171.732 87.3921 171.732 85.9041V71.0721ZM232.56 93.0653C232.973 93.3897 233.396 93.6905 233.831 93.9677C235.584 95.0864 237.518 95.8217 239.632 96.1737C240.603 96.3353 241.611 96.4161 242.658 96.4161C244.467 96.4161 246.071 96.1708 247.47 95.6803C247.928 95.5198 248.364 95.3331 248.778 95.1201C249.175 94.9162 249.547 94.7002 249.896 94.4721C251.023 93.7342 251.899 92.8702 252.522 91.8801V94.4721C252.522 96.2866 252.283 97.8508 251.804 99.1646C250.548 102.612 247.643 104.336 243.09 104.336C240.882 104.336 239.034 103.712 237.546 102.464C236.816 101.852 236.224 101.153 235.772 100.367C235.561 100.001 235.38 99.6168 235.23 99.2136C235.044 98.7175 234.905 98.193 234.81 97.6401L226.17 99.9441C226.324 100.98 226.589 101.972 226.963 102.918C227.203 103.524 227.488 104.111 227.818 104.679C228.74 106.269 230.015 107.714 231.642 109.016C234.81 111.512 238.722 112.76 243.378 112.76C249.618 112.76 254.274 110.984 257.346 107.432C260.418 103.928 261.954 99.5121 261.954 94.1841V62.5761H252.738V66.7521C252.066 65.4081 250.866 64.2801 249.138 63.3681C248.699 63.1243 248.233 62.9115 247.738 62.7296C246.285 62.1953 244.592 61.9281 242.658 61.9281C237.906 61.9281 233.97 63.6081 230.85 66.9681C227.73 70.3281 226.17 74.4081 226.17 79.2081C226.17 84.1521 227.73 88.2561 230.85 91.5201C231.397 92.0839 231.967 92.5989 232.56 93.0653ZM250.971 84.9599C251.209 84.6394 251.421 84.3014 251.609 83.946C252.314 82.6123 252.666 81.033 252.666 79.2081C252.666 76.5201 251.85 74.3601 250.218 72.7281C248.634 71.0961 246.666 70.2801 244.314 70.2801C241.866 70.2801 239.826 71.0961 238.194 72.7281C236.61 74.3601 235.818 76.5201 235.818 79.2081C235.818 81.9441 236.61 84.1281 238.194 85.7601C239.778 87.3921 241.818 88.2081 244.314 88.2081C246.762 88.2081 248.754 87.3921 250.29 85.7601C250.536 85.5067 250.763 85.24 250.971 84.9599ZM241.757 76.2363C241.252 76.769 240.818 77.5936 240.818 79.2081C240.818 80.9249 241.282 81.7627 241.782 82.2777C242.328 82.8399 243.025 83.2081 244.314 83.2081C245.525 83.2081 246.151 82.8628 246.649 82.3333L246.675 82.3053L246.702 82.2777C247.202 81.7627 247.666 80.9249 247.666 79.2081C247.666 77.6103 247.222 76.8034 246.683 76.2637L246.656 76.2373L246.63 76.2105C246.023 75.5852 245.366 75.2801 244.314 75.2801C243.12 75.2801 242.384 75.6206 241.757 76.2363ZM286.227 95.498L289.659 94.5829C288.249 93.0372 287.108 91.3547 286.227 89.5526V95.498ZM295.349 93.0653C295.762 93.3897 296.185 93.6905 296.62 93.9677C298.373 95.0864 300.307 95.8217 302.421 96.1737C303.392 96.3353 304.401 96.4161 305.447 96.4161C307.256 96.4161 308.86 96.1708 310.259 95.6803C310.717 95.5198 311.153 95.3331 311.567 95.1201C311.964 94.9162 312.336 94.7002 312.685 94.4721C313.812 93.7342 314.688 92.8702 315.311 91.8801V94.4721C315.311 96.2866 315.072 97.8508 314.593 99.1646C313.337 102.612 310.432 104.336 305.879 104.336C303.671 104.336 301.823 103.712 300.335 102.464C299.605 101.852 299.014 101.153 298.561 100.367C298.35 100.001 298.169 99.6168 298.019 99.2136C297.833 98.7175 297.694 98.193 297.599 97.6401L288.959 99.9441C289.113 100.98 289.378 101.972 289.752 102.918C289.992 103.524 290.277 104.111 290.607 104.679C291.529 106.269 292.804 107.714 294.431 109.016C297.599 111.512 301.511 112.76 306.167 112.76C312.407 112.76 317.063 110.984 320.135 107.432C323.207 103.928 324.743 99.5121 324.743 94.1841V62.5761H315.527V66.7521C314.855 65.4081 313.655 64.2801 311.927 63.3681C311.488 63.1243 311.022 62.9115 310.527 62.7296C309.074 62.1953 307.381 61.9281 305.447 61.9281C300.695 61.9281 296.759 63.6081 293.639 66.9681C290.519 70.3281 288.959 74.4081 288.959 79.2081C288.959 84.1521 290.519 88.2561 293.639 91.5201C294.186 92.0839 294.756 92.5989 295.349 93.0653ZM313.76 84.9599C313.998 84.6394 314.21 84.3014 314.398 83.946C315.103 82.6123 315.455 81.033 315.455 79.2081C315.455 76.5201 314.639 74.3601 313.007 72.7281C311.423 71.0961 309.455 70.2801 307.103 70.2801C304.655 70.2801 302.615 71.0961 300.983 72.7281C299.399 74.3601 298.607 76.5201 298.607 79.2081C298.607 81.9441 299.399 84.1281 300.983 85.7601C302.567 87.3921 304.607 88.2081 307.103 88.2081C309.551 88.2081 311.543 87.3921 313.079 85.7601C313.325 85.5067 313.552 85.24 313.76 84.9599ZM304.546 76.2363C304.041 76.769 303.607 77.5936 303.607 79.2081C303.607 80.9249 304.071 81.7627 304.571 82.2777C305.117 82.8399 305.814 83.2081 307.103 83.2081C308.314 83.2081 308.94 82.8628 309.438 82.3333L309.465 82.3053L309.491 82.2777C309.991 81.7627 310.455 80.9249 310.455 79.2081C310.455 77.6103 310.011 76.8034 309.472 76.2637L309.445 76.2373L309.419 76.2105C308.812 75.5852 308.155 75.2801 307.103 75.2801C305.91 75.2801 305.173 75.6206 304.546 76.2363ZM272.227 46.8081C271.075 47.9601 270.499 49.3521 270.499 50.9841C270.499 52.5681 271.075 53.9361 272.227 55.0881C273.379 56.2401 274.771 56.8161 276.403 56.8161C278.035 56.8161 279.427 56.2401 280.579 55.0881C281.731 53.9361 282.307 52.5681 282.307 50.9841C282.307 49.3041 281.731 47.8881 280.579 46.7361C279.427 45.5841 278.035 45.0081 276.403 45.0081C274.771 45.0081 273.379 45.6081 272.227 46.8081ZM77.48 86.3361H98.216L102.464 98.0001H113.264L93.824 46.9521H82.304L62.72 98.0001H73.232L77.48 86.3361ZM80.792 77.2641H94.904L87.848 57.9681L80.792 77.2641ZM208.891 72.8721C207.163 71.0961 205.051 70.2081 202.555 70.2081C200.059 70.2081 197.923 71.0961 196.147 72.8721C194.419 74.6481 193.555 77.1201 193.555 80.2881C193.555 83.4561 194.419 85.9281 196.147 87.7041C197.923 89.4801 200.059 90.3681 202.555 90.3681C205.051 90.3681 207.163 89.4801 208.891 87.7041C210.667 85.9281 211.555 83.4561 211.555 80.2881C211.555 77.1201 210.667 74.6481 208.891 72.8721ZM199.709 84.1947C200.546 85.0208 201.407 85.3681 202.555 85.3681C203.713 85.3681 204.529 85.018 205.308 84.2174L205.331 84.1928L205.356 84.1686C205.964 83.5602 206.555 82.495 206.555 80.2881C206.555 78.0813 205.964 77.0161 205.356 76.4077L205.331 76.3834L205.308 76.3589C204.529 75.5583 203.713 75.2081 202.555 75.2081C201.407 75.2081 200.546 75.5554 199.709 76.3815C199.13 76.9883 198.555 78.0716 198.555 80.2881C198.555 82.5045 199.13 83.5879 199.709 84.1947ZM189.235 66.8241C192.787 63.2721 197.227 61.4961 202.555 61.4961C207.883 61.4961 212.299 63.2721 215.803 66.8241C219.355 70.3761 221.131 74.8641 221.131 80.2881C221.131 85.7121 219.355 90.2001 215.803 93.7521C212.299 97.3041 207.883 99.0801 202.555 99.0801C197.227 99.0801 192.787 97.3041 189.235 93.7521C185.731 90.2001 183.979 85.7121 183.979 80.2881C183.979 74.8641 185.731 70.3761 189.235 66.8241ZM281.227 98.0001V62.5761H271.651V98.0001H281.227Z" fill="black"/>
<path d="M102.464 95.0001L98.216 83.3361H77.48L73.232 95.0001H62.72L82.304 43.9521H93.824L113.264 95.0001H102.464ZM87.848 54.9681L80.792 74.2641H94.904L87.848 54.9681Z" fill="white"/>
<path d="M140.921 95.0001C140.729 94.0401 140.633 92.7681 140.633 91.1841C139.721 92.7681 138.353 93.9681 136.529 94.7841C134.753 95.5521 132.857 95.9361 130.841 95.9361C126.665 95.9361 123.377 94.6161 120.977 91.9761C118.577 89.2881 117.377 85.9521 117.377 81.9681V59.5761H126.953V80.0241C126.953 82.1361 127.505 83.8641 128.609 85.2081C129.713 86.5041 131.321 87.1521 133.433 87.1521C135.497 87.1521 137.129 86.5281 138.329 85.2801C139.529 83.9841 140.129 82.2801 140.129 80.1681V59.5761H149.705V88.5921C149.705 90.8481 149.825 92.9841 150.065 95.0001H140.921Z" fill="white"/>
<path d="M171.732 48.9921V59.5761H178.861V68.0721H171.732V82.9041C171.732 84.3921 172.069 85.4481 172.741 86.0721C173.413 86.6961 174.469 87.0081 175.909 87.0081C177.205 87.0081 178.189 86.9121 178.861 86.7201V94.6401C177.469 95.2161 175.669 95.5041 173.461 95.5041C170.005 95.5041 167.269 94.5441 165.253 92.6241C163.237 90.6561 162.229 87.9681 162.229 84.5601V68.0721H155.821V59.5761H157.62C159.396 59.5761 160.741 59.0721 161.653 58.0641C162.613 57.0081 163.092 55.6401 163.092 53.9601V48.9921H171.732Z" fill="white"/>
<path d="M196.147 84.7041C197.923 86.4801 200.059 87.3681 202.555 87.3681C205.051 87.3681 207.163 86.4801 208.891 84.7041C210.667 82.9281 211.555 80.4561 211.555 77.2881C211.555 74.1201 210.667 71.6481 208.891 69.8721C207.163 68.0961 205.051 67.2081 202.555 67.2081C200.059 67.2081 197.923 68.0961 196.147 69.8721C194.419 71.6481 193.555 74.1201 193.555 77.2881C193.555 80.4561 194.419 82.9281 196.147 84.7041ZM189.235 63.8241C192.787 60.2721 197.227 58.4961 202.555 58.4961C207.883 58.4961 212.299 60.2721 215.803 63.8241C219.355 67.3761 221.131 71.8641 221.131 77.2881C221.131 82.7121 219.355 87.2001 215.803 90.7521C212.299 94.3041 207.883 96.0801 202.555 96.0801C197.227 96.0801 192.787 94.3041 189.235 90.7521C185.731 87.2001 183.979 82.7121 183.979 77.2881C183.979 71.8641 185.731 67.3761 189.235 63.8241Z" fill="white"/>
<path d="M226.17 96.9441L234.81 94.6401C235.146 96.6081 236.058 98.2161 237.546 99.4641C239.034 100.712 240.882 101.336 243.09 101.336C249.378 101.336 252.522 98.0481 252.522 91.4721V88.8801C251.706 90.1761 250.458 91.2561 248.778 92.1201C247.098 92.9841 245.058 93.4161 242.658 93.4161C237.954 93.4161 234.018 91.7841 230.85 88.5201C227.73 85.2561 226.17 81.1521 226.17 76.2081C226.17 71.4081 227.73 67.3281 230.85 63.9681C233.97 60.6081 237.906 58.9281 242.658 58.9281C245.25 58.9281 247.41 59.4081 249.138 60.3681C250.866 61.2801 252.066 62.4081 252.738 63.7521V59.5761H261.954V91.1841C261.954 96.5121 260.418 100.928 257.346 104.432C254.274 107.984 249.618 109.76 243.378 109.76C238.722 109.76 234.81 108.512 231.642 106.016C228.522 103.52 226.698 100.496 226.17 96.9441ZM244.314 85.2081C246.762 85.2081 248.754 84.3921 250.29 82.7601C251.874 81.1281 252.666 78.9441 252.666 76.2081C252.666 73.5201 251.85 71.3601 250.218 69.7281C248.634 68.0961 246.666 67.2801 244.314 67.2801C241.866 67.2801 239.826 68.0961 238.194 69.7281C236.61 71.3601 235.818 73.5201 235.818 76.2081C235.818 78.9441 236.61 81.1281 238.194 82.7601C239.778 84.3921 241.818 85.2081 244.314 85.2081Z" fill="white"/>
<path d="M281.227 95.0001H271.651V59.5761H281.227V95.0001ZM270.499 47.9841C270.499 46.3521 271.075 44.9601 272.227 43.8081C273.379 42.6081 274.771 42.0081 276.403 42.0081C278.035 42.0081 279.427 42.5841 280.579 43.7361C281.731 44.8881 282.307 46.3041 282.307 47.9841C282.307 49.5681 281.731 50.9361 280.579 52.0881C279.427 53.2401 278.035 53.8161 276.403 53.8161C274.771 53.8161 273.379 53.2401 272.227 52.0881C271.075 50.9361 270.499 49.5681 270.499 47.9841Z" fill="white"/>
<path d="M288.959 96.9441L297.599 94.6401C297.935 96.6081 298.847 98.2161 300.335 99.4641C301.823 100.712 303.671 101.336 305.879 101.336C312.167 101.336 315.311 98.0481 315.311 91.4721V88.8801C314.495 90.1761 313.247 91.2561 311.567 92.1201C309.887 92.9841 307.847 93.4161 305.447 93.4161C300.743 93.4161 296.807 91.7841 293.639 88.5201C290.519 85.2561 288.959 81.1521 288.959 76.2081C288.959 71.4081 290.519 67.3281 293.639 63.9681C296.759 60.6081 300.695 58.9281 305.447 58.9281C308.039 58.9281 310.199 59.4081 311.927 60.3681C313.655 61.2801 314.855 62.4081 315.527 63.7521V59.5761H324.743V91.1841C324.743 96.5121 323.207 100.928 320.135 104.432C317.063 107.984 312.407 109.76 306.167 109.76C301.511 109.76 297.599 108.512 294.431 106.016C291.311 103.52 289.487 100.496 288.959 96.9441ZM307.103 85.2081C309.551 85.2081 311.543 84.3921 313.079 82.7601C314.663 81.1281 315.455 78.9441 315.455 76.2081C315.455 73.5201 314.639 71.3601 313.007 69.7281C311.423 68.0961 309.455 67.2801 307.103 67.2801C304.655 67.2801 302.615 68.0961 300.983 69.7281C299.399 71.3601 298.607 73.5201 298.607 76.2081C298.607 78.9441 299.399 81.1281 300.983 82.7601C302.567 84.3921 304.607 85.2081 307.103 85.2081Z" fill="white"/>
<path fill-rule="evenodd" clip-rule="evenodd" d="M98.9637 100L94.7157 88.3361H80.9803L76.7323 100H55.4465L78.8669 38.9521H97.2702L112.377 78.6215V54.5761H131.953V80.0241C131.953 81.1695 132.22 81.7053 132.436 81.9879C132.449 81.9995 132.469 82.0111 132.512 82.0285C132.608 82.0671 132.882 82.1521 133.433 82.1521C134.304 82.1521 134.583 81.9522 134.69 81.8495C134.872 81.641 135.129 81.2218 135.129 80.1681V54.5761H157.62C157.8 54.5761 157.933 54.5652 158.027 54.5526C158.054 54.4593 158.092 54.2737 158.092 53.9601V43.9921H176.732V54.5761H183.861V62.3764C184.417 61.6638 185.022 60.9755 185.676 60.3127L185.688 60.3006L185.7 60.2886C190.251 55.7376 195.99 53.4961 202.555 53.4961C209.114 53.4961 214.84 55.7346 219.35 60.2995C221.051 62.0032 222.427 63.8774 223.483 65.9018C224.427 63.9927 225.661 62.2087 227.186 60.5659C231.29 56.1459 236.573 53.9281 242.658 53.9281C244.499 53.9281 246.297 54.1244 248.001 54.5761H267.762C266.294 52.7017 265.499 50.4565 265.499 47.9841C265.499 45.0458 266.587 42.395 268.655 40.309C270.725 38.1715 273.397 37.0081 276.403 37.0081C279.359 37.0081 282.023 38.1091 284.115 40.2006C286.236 42.3225 287.307 45.0243 287.307 47.9841C287.307 50.4565 286.512 52.7017 285.044 54.5761H286.227V65.9937C287.177 64.05 288.425 62.235 289.975 60.5659C294.079 56.1459 299.362 53.9281 305.447 53.9281C307.288 53.9281 309.086 54.1244 310.79 54.5761H329.743V91.1841C329.743 97.5341 327.884 103.172 323.905 107.716C319.597 112.689 313.347 114.76 306.167 114.76C300.57 114.76 295.519 113.239 291.337 109.944L291.322 109.932L291.308 109.92C287.963 107.245 285.613 103.922 284.509 100H266.651V95.4812C265.978 100.09 264.172 104.226 261.116 107.716C256.808 112.689 250.558 114.76 243.378 114.76C237.781 114.76 232.73 113.239 228.548 109.944L228.533 109.932L228.519 109.92C224.533 106.732 221.96 102.624 221.224 97.6793L220.568 93.2633L226.87 91.5829C225.742 90.3465 224.786 89.0227 223.998 87.6201C222.889 90.0515 221.343 92.2815 219.349 94.2774C214.839 98.8419 209.114 101.08 202.555 101.08C195.99 101.08 190.251 98.8386 185.7 94.2877L185.688 94.2756L185.676 94.2635C185.022 93.6008 184.417 92.9125 183.861 92.1999V97.9823L180.772 99.2602C178.561 100.175 176.046 100.504 173.461 100.504C169.046 100.504 164.962 99.2519 161.804 96.2448L161.782 96.2235L161.76 96.202C158.583 93.1008 157.229 89.0125 157.229 84.5601V73.0721H154.705V88.5921C154.705 90.672 154.816 92.6094 155.03 94.4091L155.696 100H136.855C134.923 100.628 132.911 100.936 130.841 100.936C126.587 100.936 122.71 99.8277 119.532 97.4096L120.518 100H98.9637ZM135.862 95.0525C136.086 94.9689 136.308 94.8795 136.529 94.7841C138.353 93.9681 139.721 92.7681 140.633 91.1841C140.633 92.7681 140.729 94.0401 140.921 95.0001H150.065C149.875 93.4083 149.761 91.7416 149.721 90.0001C149.71 89.5361 149.705 89.0668 149.705 88.5921V59.5761H140.129V80.1681C140.129 81.0372 140.027 81.8372 139.824 82.5681C139.534 83.6134 139.035 84.5174 138.329 85.2801C138.278 85.3336 138.225 85.3859 138.172 85.4371C136.988 86.5805 135.409 87.1521 133.433 87.1521C131.321 87.1521 129.713 86.5041 128.609 85.2081C127.505 83.8641 126.953 82.1361 126.953 80.0241V59.5761H117.377V81.9681C117.377 85.9521 118.577 89.2881 120.977 91.9761C123.377 94.6161 126.665 95.9361 130.841 95.9361C132.607 95.9361 134.28 95.6416 135.862 95.0525ZM179.278 81.4006C179.079 80.0697 178.979 78.6976 178.979 77.2881C178.979 75.8421 179.084 74.4354 179.294 73.0721H176.732V81.9889C176.884 81.981 177.018 81.971 177.133 81.9598C177.385 81.9352 177.494 81.91 177.498 81.9094L179.278 81.4006ZM171.732 68.0721H178.861V59.5761H171.732V48.9921H163.092V53.9601C163.092 55.6401 162.613 57.0081 161.653 58.0641C160.741 59.0721 159.396 59.5761 157.62 59.5761H155.821V68.0721H162.229V84.5601C162.229 87.9681 163.237 90.6561 165.253 92.6241C167.269 94.5441 170.005 95.5041 173.461 95.5041C175.669 95.5041 177.469 95.2161 178.861 94.6401V86.7201C178.189 86.9121 177.205 87.0081 175.909 87.0081C175.11 87.0081 174.429 86.9121 173.867 86.7201C173.415 86.566 173.04 86.35 172.741 86.0721C172.069 85.4481 171.732 84.3921 171.732 82.9041V68.0721ZM232.56 90.0653C232.973 90.3897 233.396 90.6905 233.831 90.9677C235.584 92.0864 237.518 92.8217 239.632 93.1737C240.603 93.3353 241.611 93.4161 242.658 93.4161C244.467 93.4161 246.071 93.1708 247.47 92.6803C247.928 92.5198 248.364 92.3331 248.778 92.1201C249.175 91.9162 249.547 91.7002 249.896 91.4721C251.023 90.7342 251.899 89.8702 252.522 88.8801V91.4721C252.522 93.2866 252.283 94.8508 251.804 96.1646C250.548 99.6123 247.643 101.336 243.09 101.336C240.882 101.336 239.034 100.712 237.546 99.4641C236.816 98.8517 236.224 98.1527 235.772 97.3669C235.561 97.0012 235.38 96.6168 235.23 96.2136C235.044 95.7175 234.905 95.193 234.81 94.6401L226.17 96.9441C226.324 97.9805 226.589 98.9718 226.963 99.9183C227.203 100.524 227.488 101.111 227.818 101.679C228.74 103.269 230.015 104.714 231.642 106.016C234.81 108.512 238.722 109.76 243.378 109.76C249.618 109.76 254.274 107.984 257.346 104.432C260.418 100.928 261.954 96.5121 261.954 91.1841V59.5761H252.738V63.7521C252.066 62.4081 250.866 61.2801 249.138 60.3681C248.699 60.1243 248.233 59.9115 247.738 59.7296C246.285 59.1953 244.592 58.9281 242.658 58.9281C237.906 58.9281 233.97 60.6081 230.85 63.9681C227.73 67.3281 226.17 71.4081 226.17 76.2081C226.17 81.1521 227.73 85.2561 230.85 88.5201C231.397 89.0839 231.967 89.5989 232.56 90.0653ZM250.971 81.9599C251.209 81.6394 251.421 81.3014 251.609 80.946C252.314 79.6123 252.666 78.033 252.666 76.2081C252.666 73.5201 251.85 71.3601 250.218 69.7281C248.634 68.0961 246.666 67.2801 244.314 67.2801C241.866 67.2801 239.826 68.0961 238.194 69.7281C236.61 71.3601 235.818 73.5201 235.818 76.2081C235.818 78.9441 236.61 81.1281 238.194 82.7601C239.778 84.3921 241.818 85.2081 244.314 85.2081C246.762 85.2081 248.754 84.3921 250.29 82.7601C250.536 82.5067 250.763 82.24 250.971 81.9599ZM241.757 73.2363C241.252 73.769 240.818 74.5936 240.818 76.2081C240.818 77.9249 241.282 78.7627 241.782 79.2777C242.328 79.8399 243.025 80.2081 244.314 80.2081C245.525 80.2081 246.151 79.8628 246.649 79.3333L246.675 79.3053L246.702 79.2777C247.202 78.7627 247.666 77.9249 247.666 76.2081C247.666 74.6103 247.222 73.8034 246.683 73.2637L246.656 73.2373L246.63 73.2105C246.023 72.5852 245.366 72.2801 244.314 72.2801C243.12 72.2801 242.384 72.6206 241.757 73.2363ZM286.227 92.498L289.659 91.5829C288.249 90.0372 287.108 88.3547 286.227 86.5526V92.498ZM295.349 90.0653C295.762 90.3897 296.185 90.6905 296.62 90.9677C298.373 92.0864 300.307 92.8217 302.421 93.1737C303.392 93.3353 304.401 93.4161 305.447 93.4161C307.256 93.4161 308.86 93.1708 310.259 92.6803C310.717 92.5198 311.153 92.3331 311.567 92.1201C311.964 91.9162 312.336 91.7002 312.685 91.4721C313.812 90.7342 314.688 89.8702 315.311 88.8801V91.4721C315.311 93.2866 315.072 94.8508 314.593 96.1646C313.337 99.6123 310.432 101.336 305.879 101.336C303.671 101.336 301.823 100.712 300.335 99.4641C299.605 98.8517 299.014 98.1527 298.561 97.3669C298.35 97.0012 298.169 96.6168 298.019 96.2136C297.833 95.7175 297.694 95.193 297.599 94.6401L288.959 96.9441C289.113 97.9805 289.378 98.9718 289.752 99.9183C289.992 100.524 290.277 101.111 290.607 101.679C291.529 103.269 292.804 104.714 294.431 106.016C297.599 108.512 301.511 109.76 306.167 109.76C312.407 109.76 317.063 107.984 320.135 104.432C323.207 100.928 324.743 96.5121 324.743 91.1841V59.5761H315.527V63.7521C314.855 62.4081 313.655 61.2801 311.927 60.3681C311.488 60.1243 311.022 59.9115 310.527 59.7296C309.074 59.1953 307.381 58.9281 305.447 58.9281C300.695 58.9281 296.759 60.6081 293.639 63.9681C290.519 67.3281 288.959 71.4081 288.959 76.2081C288.959 81.1521 290.519 85.2561 293.639 88.5201C294.186 89.0839 294.756 89.5989 295.349 90.0653ZM313.76 81.9599C313.998 81.6394 314.21 81.3014 314.398 80.946C315.103 79.6123 315.455 78.033 315.455 76.2081C315.455 73.5201 314.639 71.3601 313.007 69.7281C311.423 68.0961 309.455 67.2801 307.103 67.2801C304.655 67.2801 302.615 68.0961 300.983 69.7281C299.399 71.3601 298.607 73.5201 298.607 76.2081C298.607 78.9441 299.399 81.1281 300.983 82.7601C302.567 84.3921 304.607 85.2081 307.103 85.2081C309.551 85.2081 311.543 84.3921 313.079 82.7601C313.325 82.5067 313.552 82.24 313.76 81.9599ZM304.546 73.2363C304.041 73.769 303.607 74.5936 303.607 76.2081C303.607 77.9249 304.071 78.7627 304.571 79.2777C305.117 79.8399 305.814 80.2081 307.103 80.2081C308.314 80.2081 308.94 79.8628 309.438 79.3333L309.465 79.3053L309.491 79.2777C309.991 78.7627 310.455 77.9249 310.455 76.2081C310.455 74.6103 310.011 73.8034 309.472 73.2637L309.445 73.2373L309.419 73.2105C308.812 72.5852 308.155 72.2801 307.103 72.2801C305.91 72.2801 305.173 72.6206 304.546 73.2363ZM272.227 43.8081C271.075 44.9601 270.499 46.3521 270.499 47.9841C270.499 49.5681 271.075 50.9361 272.227 52.0881C273.379 53.2401 274.771 53.8161 276.403 53.8161C278.035 53.8161 279.427 53.2401 280.579 52.0881C281.731 50.9361 282.307 49.5681 282.307 47.9841C282.307 46.3041 281.731 44.8881 280.579 43.7361C279.427 42.5841 278.035 42.0081 276.403 42.0081C274.771 42.0081 273.379 42.6081 272.227 43.8081ZM77.48 83.3361H98.216L102.464 95.0001H113.264L93.824 43.9521H82.304L62.72 95.0001H73.232L77.48 83.3361ZM80.792 74.2641H94.904L87.848 54.9681L80.792 74.2641ZM208.891 69.8721C207.163 68.0961 205.051 67.2081 202.555 67.2081C200.059 67.2081 197.923 68.0961 196.147 69.8721C194.419 71.6481 193.555 74.1201 193.555 77.2881C193.555 80.4561 194.419 82.9281 196.147 84.7041C197.923 86.4801 200.059 87.3681 202.555 87.3681C205.051 87.3681 207.163 86.4801 208.891 84.7041C210.667 82.9281 211.555 80.4561 211.555 77.2881C211.555 74.1201 210.667 71.6481 208.891 69.8721ZM199.709 81.1947C200.546 82.0208 201.407 82.3681 202.555 82.3681C203.713 82.3681 204.529 82.018 205.308 81.2174L205.331 81.1928L205.356 81.1686C205.964 80.5602 206.555 79.495 206.555 77.2881C206.555 75.0813 205.964 74.0161 205.356 73.4077L205.331 73.3834L205.308 73.3589C204.529 72.5583 203.713 72.2081 202.555 72.2081C201.407 72.2081 200.546 72.5554 199.709 73.3815C199.13 73.9883 198.555 75.0716 198.555 77.2881C198.555 79.5045 199.13 80.5879 199.709 81.1947ZM189.235 63.8241C192.787 60.2721 197.227 58.4961 202.555 58.4961C207.883 58.4961 212.299 60.2721 215.803 63.8241C219.355 67.3761 221.131 71.8641 221.131 77.2881C221.131 82.7121 219.355 87.2001 215.803 90.7521C212.299 94.3041 207.883 96.0801 202.555 96.0801C197.227 96.0801 192.787 94.3041 189.235 90.7521C185.731 87.2001 183.979 82.7121 183.979 77.2881C183.979 71.8641 185.731 67.3761 189.235 63.8241ZM281.227 95.0001V59.5761H271.651V95.0001H281.227Z" fill="black"/>
</svg>
