<svg width="16" height="24" viewBox="0 0 16 24" version="1.1" xmlns="http://www.w3.org/2000/svg" xmlns:xlink="http://www.w3.org/1999/xlink">
<title>Group 2</title>
<desc>Created using Figma</desc>
<g id="Canvas" transform="translate(475 315)">
<g id="Group 2">
<g id="Vector">
<use xlink:href="#path0_fill" transform="translate(-475 -315)" fill="#333333"/>
</g>
</g>
</g>
<defs>
<path id="path0_fill" d="M 5 12.242L 5 20.136L 0.709 21L 1.77636e-15 17.173L 4.005 11.264C 4.336 11.646 4.357 11.724 5 12.242ZM 7 13.418L 7 21.433L 9.732 24L 13 21.433L 11.948 20.324L 13 19.216L 11.948 18.108L 13 17L 13 13.417C 12.059 13.798 11.045 14 9.999 14C 8.954 14 7.94 13.798 7 13.418ZM 14.242 1.757C 12.111 -0.374 8.818 -0.493 6.555 1.106C 5.381 1.927 4.595 3.046 4.22 4.484C 2.556 4.397 1.5 3.579 1.5 3C 1.5 2.4 2.628 1.54 4.398 1.506C 4.818 0.982 5.068 0.684 5.818 0.146C 5.398 0.06 4.962 0 4.5 0C 2.015 0 1.77636e-15 1.343 1.77636e-15 3C 1.77636e-15 4.936 2.526 6 4.5 6C 7.318 6 9.837 4.108 8.752 2.033C 9.319 1.121 10.434 1.131 11.061 1.758C 12.036 2.733 11.301 4.383 9.915 4.302C 9.053 6.308 6.539 7.302 4.121 7.181C 4.346 8.303 4.889 9.373 5.759 10.243C 8.101 12.587 11.9 12.586 14.243 10.243C 15.413 9.071 16 7.535 16 5.999C 16 4.464 15.414 2.929 14.242 1.757Z"/>
</defs>
</svg>
